<svg width="83" height="408" viewBox="0 0 83 408" fill="none" xmlns="http://www.w3.org/2000/svg">
<path opacity="0.4" d="M45.2724 407.459L45.2725 0L83.0002 1.64913e-06L83.0001 407.459L45.2724 407.459Z" fill="#82c232"/>
<path d="M33.1894 304.562C30.4934 315.24 25.2516 331.21 17.6513 333.201C10.9362 331.443 6.0625 318.769 3.15817 308.476C3.1349 308.378 -5.22102e-06 295.445 -4.62865e-06 281.893L-2.20259e-07 181.041C-9.86288e-08 178.258 2.2581 176.002 5.04292 176.002L30.2596 176.002C33.0445 176.002 35.3026 178.257 35.3026 181.041L35.3026 288.34C34.8732 294.939 33.9001 300.872 33.1894 304.562V304.562Z" fill="url(#paint0_linear_441_30646)"/>
<path d="M10.8569 192.53L10.8569 187.243C10.8569 186.134 11.76 185.236 12.8739 185.236L22.139 185.236C23.2529 185.236 24.156 186.134 24.156 187.243L24.156 192.53C24.156 193.639 23.2529 194.537 22.139 194.537L12.8739 194.537C11.76 194.537 10.8569 193.639 10.8569 192.53Z" fill="#82c232"/>
<path d="M5.69775 209.497L5.69775 198.202C5.69775 197.519 6.25463 196.965 6.94156 196.965L28.6352 196.965C29.3222 196.965 29.879 197.519 29.879 198.202L29.879 209.497C29.879 210.18 29.3222 210.735 28.6352 210.735L6.94156 210.735C6.25462 210.735 5.69775 210.18 5.69775 209.497Z" fill="#82c232"/>
<path d="M5.80322 305.604L5.80322 297.86L8.28132 297.86L8.28132 305.604L5.80322 305.604Z" fill="#82c232"/>
<path d="M8.82617 305.604L8.82617 297.86L11.3053 297.86L11.3053 305.604L8.82617 305.604Z" fill="#82c232"/>
<path d="M11.8477 305.604L11.8477 297.86L14.3258 297.86L14.3258 305.604L11.8477 305.604Z" fill="#82c232"/>
<path d="M14.8706 305.604L14.8706 297.86L17.3498 297.86L17.3498 305.604L14.8706 305.604Z" fill="#82c232"/>
<path d="M17.8936 305.604L17.8936 297.86L20.3717 297.86L20.3717 305.604L17.8936 305.604Z" fill="#82c232"/>
<path d="M20.916 305.604L20.916 297.86L23.3941 297.86L23.3941 305.604L20.916 305.604Z" fill="#82c232"/>
<path d="M23.939 305.604L23.939 297.86L26.4181 297.86L26.4181 305.604L23.939 305.604Z" fill="#82c232"/>
<path d="M26.9619 305.604L26.9619 297.86L29.44 297.86L29.44 305.604L26.9619 305.604Z" fill="#82c232"/>
<path d="M2.84082 286.684L2.84082 278.941L5.31892 278.941L5.31892 286.684L2.84082 286.684Z" fill="#82c232"/>
<path d="M8.82617 286.684L8.82617 278.941L11.3053 278.941L11.3053 286.684L8.82617 286.684Z" fill="#82c232"/>
<path d="M11.8477 286.684L11.8477 278.941L14.3258 278.941L14.3258 286.684L11.8477 286.684Z" fill="#82c232"/>
<path d="M14.8706 286.684L14.8706 278.941L17.3498 278.941L17.3498 286.684L14.8706 286.684Z" fill="#82c232"/>
<path d="M17.8936 286.684L17.8936 278.941L20.3717 278.941L20.3717 286.684L17.8936 286.684Z" fill="#82c232"/>
<path d="M20.916 286.684L20.916 278.941L23.3941 278.941L23.3941 286.684L20.916 286.684Z" fill="#82c232"/>
<path d="M23.939 286.684L23.939 278.941L26.4181 278.941L26.4181 286.684L23.939 286.684Z" fill="#82c232"/>
<path d="M26.9619 286.684L26.9619 278.941L29.44 278.941L29.44 286.684L26.9619 286.684Z" fill="#82c232"/>
<path d="M29.9834 286.684L29.9834 278.941L32.4626 278.941L32.4626 286.684L29.9834 286.684Z" fill="#82c232"/>
<path d="M5.80322 286.684L5.80322 278.941L8.28132 278.941L8.28132 286.684L5.80322 286.684Z" fill="#82c232"/>
<path d="M2.84082 278.309L2.84082 270.566L5.31892 270.566L5.31892 278.309L2.84082 278.309Z" fill="#82c232"/>
<path d="M8.82617 278.309L8.82617 270.566L11.3053 270.566L11.3053 278.309L8.82617 278.309Z" fill="#82c232"/>
<path d="M11.8477 278.309L11.8477 270.566L14.3258 270.566L14.3258 278.309L11.8477 278.309Z" fill="#82c232"/>
<path d="M14.8706 278.309L14.8706 270.566L17.3498 270.566L17.3498 278.309L14.8706 278.309Z" fill="#82c232"/>
<path d="M17.8936 278.309L17.8936 270.566L20.3717 270.566L20.3717 278.309L17.8936 278.309Z" fill="#82c232"/>
<path d="M20.916 278.309L20.916 270.566L23.3941 270.566L23.3941 278.309L20.916 278.309Z" fill="#82c232"/>
<path d="M23.939 278.309L23.939 270.566L26.4181 270.566L26.4181 278.309L23.939 278.309Z" fill="#82c232"/>
<path d="M26.9619 278.309L26.9619 270.566L29.44 270.566L29.44 278.309L26.9619 278.309Z" fill="#82c232"/>
<path d="M29.9834 278.309L29.9834 270.566L32.4626 270.566L32.4626 278.309L29.9834 278.309Z" fill="#82c232"/>
<path d="M5.80322 278.309L5.80322 270.566L8.28132 270.566L8.28132 278.309L5.80322 278.309Z" fill="#82c232"/>
<path d="M2.84082 269.933L2.84082 262.191L5.31892 262.191L5.31892 269.933L2.84082 269.933Z" fill="#82c232"/>
<path d="M8.82617 269.934L8.82617 262.191L11.3053 262.191L11.3053 269.934L8.82617 269.934Z" fill="#82c232"/>
<path d="M11.8477 269.934L11.8477 262.191L14.3258 262.191L14.3258 269.934L11.8477 269.934Z" fill="#82c232"/>
<path d="M14.8706 269.934L14.8706 262.191L17.3498 262.191L17.3498 269.934L14.8706 269.934Z" fill="#82c232"/>
<path d="M17.8936 269.934L17.8936 262.191L20.3717 262.191L20.3717 269.934L17.8936 269.934Z" fill="#82c232"/>
<path d="M20.916 269.934L20.916 262.191L23.3941 262.191L23.3941 269.934L20.916 269.934Z" fill="#82c232"/>
<path d="M23.939 269.934L23.939 262.191L26.4181 262.191L26.4181 269.934L23.939 269.934Z" fill="#82c232"/>
<path d="M26.9619 269.934L26.9619 262.191L29.44 262.191L29.44 269.934L26.9619 269.934Z" fill="#82c232"/>
<path d="M29.9834 269.934L29.9834 262.191L32.4626 262.191L32.4626 269.934L29.9834 269.934Z" fill="#82c232"/>
<path d="M5.80322 269.934L5.80322 262.191L8.28132 262.191L8.28132 269.934L5.80322 269.934Z" fill="#82c232"/>
<path d="M2.84082 261.56L2.84082 253.816L5.31892 253.816L5.31892 261.56L2.84082 261.56Z" fill="#82c232"/>
<path d="M8.82617 261.56L8.82617 253.816L11.3053 253.816L11.3053 261.56L8.82617 261.56Z" fill="#82c232"/>
<path d="M11.8477 261.56L11.8477 253.816L14.3258 253.816L14.3258 261.56L11.8477 261.56Z" fill="#82c232"/>
<path d="M14.8706 261.56L14.8706 253.816L17.3498 253.816L17.3498 261.56L14.8706 261.56Z" fill="#82c232"/>
<path d="M17.8936 261.56L17.8936 253.816L20.3717 253.816L20.3717 261.56L17.8936 261.56Z" fill="#82c232"/>
<path d="M20.916 261.56L20.916 253.816L23.3941 253.816L23.3941 261.56L20.916 261.56Z" fill="#82c232"/>
<path d="M23.939 261.56L23.939 253.816L26.4181 253.816L26.4181 261.56L23.939 261.56Z" fill="#82c232"/>
<path d="M26.9619 261.56L26.9619 253.816L29.44 253.816L29.44 261.56L26.9619 261.56Z" fill="#82c232"/>
<path d="M29.9834 261.56L29.9834 253.816L32.4626 253.816L32.4626 261.56L29.9834 261.56Z" fill="#82c232"/>
<path d="M5.80322 261.56L5.80322 253.816L8.28132 253.816L8.28132 261.56L5.80322 261.56Z" fill="#82c232"/>
<path d="M2.84082 253.184L2.84082 245.442L5.31892 245.442L5.31892 253.184L2.84082 253.184Z" fill="#82c232"/>
<path d="M8.82617 253.184L8.82617 245.442L11.3053 245.442L11.3053 253.184L8.82617 253.184Z" fill="#82c232"/>
<path d="M11.8477 253.184L11.8477 245.442L14.3258 245.442L14.3258 253.184L11.8477 253.184Z" fill="#82c232"/>
<path d="M14.8706 253.184L14.8706 245.442L17.3498 245.442L17.3498 253.184L14.8706 253.184Z" fill="#82c232"/>
<path d="M17.8936 253.184L17.8936 245.442L20.3717 245.442L20.3717 253.184L17.8936 253.184Z" fill="#82c232"/>
<path d="M20.916 253.184L20.916 245.442L23.3941 245.442L23.3941 253.184L20.916 253.184Z" fill="#82c232"/>
<path d="M23.939 253.184L23.939 245.442L26.4181 245.442L26.4181 253.184L23.939 253.184Z" fill="#82c232"/>
<path d="M26.9619 253.184L26.9619 245.442L29.44 245.442L29.44 253.184L26.9619 253.184Z" fill="#82c232"/>
<path d="M29.9834 253.184L29.9834 245.442L32.4626 245.442L32.4626 253.184L29.9834 253.184Z" fill="#82c232"/>
<path d="M5.80322 253.184L5.80322 245.442L8.28132 245.442L8.28132 253.184L5.80322 253.184Z" fill="#82c232"/>
<path d="M8.82617 244.591L8.82617 236.848L11.3053 236.848L11.3053 244.591L8.82617 244.591Z" fill="#82c232"/>
<path d="M14.8706 244.591L14.8706 236.848L17.3498 236.848L17.3498 244.591L14.8706 244.591Z" fill="#82c232"/>
<path d="M20.916 244.591L20.916 236.848L23.3941 236.848L23.3941 244.591L20.916 244.591Z" fill="#82c232"/>
<path d="M2.84082 244.59L2.84082 236.848L5.31892 236.848L5.31892 244.59L2.84082 244.59Z" fill="#82c232"/>
<path d="M11.8477 244.591L11.8477 236.848L14.3258 236.848L14.3258 244.591L11.8477 244.591Z" fill="#82c232"/>
<path d="M17.8936 244.591L17.8936 236.848L20.3717 236.848L20.3717 244.591L17.8936 244.591Z" fill="#82c232"/>
<path d="M23.939 244.591L23.939 236.848L26.4181 236.848L26.4181 244.591L23.939 244.591Z" fill="#82c232"/>
<path d="M26.9619 244.591L26.9619 236.848L29.44 236.848L29.44 244.591L26.9619 244.591Z" fill="#82c232"/>
<path d="M29.9834 244.591L29.9834 236.848L32.4626 236.848L32.4626 244.591L29.9834 244.591Z" fill="#82c232"/>
<path d="M5.80322 244.591L5.80322 236.848L8.28132 236.848L8.28132 244.591L5.80322 244.591Z" fill="#82c232"/>
<path d="M2.84082 236.214L2.84082 228.472L5.31892 228.472L5.31892 236.214L2.84082 236.214Z" fill="#82c232"/>
<path d="M8.82617 236.214L8.82617 228.472L11.3053 228.472L11.3053 236.214L8.82617 236.214Z" fill="#82c232"/>
<path d="M11.8477 236.214L11.8477 228.472L14.3258 228.472L14.3258 236.214L11.8477 236.214Z" fill="#82c232"/>
<path d="M14.8706 236.214L14.8706 228.472L17.3498 228.472L17.3498 236.214L14.8706 236.214Z" fill="#82c232"/>
<path d="M17.8936 236.214L17.8936 228.472L20.3717 228.472L20.3717 236.214L17.8936 236.214Z" fill="#82c232"/>
<path d="M20.916 236.214L20.916 228.472L23.3941 228.472L23.3941 236.214L20.916 236.214Z" fill="#82c232"/>
<path d="M23.939 236.214L23.939 228.472L26.4181 228.472L26.4181 236.214L23.939 236.214Z" fill="#82c232"/>
<path d="M26.9619 236.214L26.9619 228.472L29.44 228.472L29.44 236.214L26.9619 236.214Z" fill="#82c232"/>
<path d="M29.9834 236.214L29.9834 228.472L32.4626 228.472L32.4626 236.214L29.9834 236.214Z" fill="#82c232"/>
<path d="M5.80322 236.214L5.80322 228.472L8.28132 228.472L8.28132 236.214L5.80322 236.214Z" fill="#82c232"/>
<path d="M8.82617 296.266L8.82617 288.523L11.3053 288.523L11.3053 296.266L8.82617 296.266Z" fill="#82c232"/>
<path d="M11.8477 296.266L11.8477 288.523L14.3258 288.523L14.3258 296.266L11.8477 296.266Z" fill="#82c232"/>
<path d="M14.8706 296.266L14.8706 288.523L17.3498 288.523L17.3498 296.266L14.8706 296.266Z" fill="#82c232"/>
<path d="M17.8936 296.266L17.8936 288.523L20.3717 288.523L20.3717 296.266L17.8936 296.266Z" fill="#82c232"/>
<path d="M20.916 296.266L20.916 288.523L23.3941 288.523L23.3941 296.266L20.916 296.266Z" fill="#82c232"/>
<path d="M23.939 296.266L23.939 288.523L26.4181 288.523L26.4181 296.266L23.939 296.266Z" fill="#82c232"/>
<path d="M26.9619 296.266L26.9619 288.523L29.44 288.523L29.44 296.266L26.9619 296.266Z" fill="#82c232"/>
<path d="M5.80322 296.266L5.80322 288.523L8.28132 288.523L8.28132 296.266L5.80322 296.266Z" fill="#82c232"/>
<g opacity="0.2">
<path d="M69.7397 259.742L69.7397 252L72.2178 252L72.2178 259.742L69.7397 259.742Z" fill="#82c232"/>
<path d="M72.7627 259.742L72.7627 252L75.2408 252L75.2408 259.742L72.7627 259.742Z" fill="#82c232"/>
<path d="M75.7852 259.742L75.7852 252L78.2633 252L78.2633 259.742L75.7852 259.742Z" fill="#82c232"/>
<path d="M78.8081 259.742L78.8081 252L81.2873 252L81.2873 259.742L78.8081 259.742Z" fill="#82c232"/>
<path d="M69.7397 240.823L69.7397 233.08L72.2178 233.08L72.2178 240.823L69.7397 240.823Z" fill="#82c232"/>
<path d="M72.7627 240.823L72.7627 233.08L75.2408 233.08L75.2408 240.823L72.7627 240.823Z" fill="#82c232"/>
<path d="M75.7852 240.823L75.7852 233.08L78.2633 233.08L78.2633 240.823L75.7852 240.823Z" fill="#82c232"/>
<path d="M78.8081 240.823L78.8081 233.08L81.2873 233.08L81.2873 240.823L78.8081 240.823Z" fill="#82c232"/>
<path d="M69.7397 232.448L69.7397 224.705L72.2178 224.705L72.2178 232.448L69.7397 232.448Z" fill="#82c232"/>
<path d="M72.7627 232.448L72.7627 224.705L75.2408 224.705L75.2408 232.448L72.7627 232.448Z" fill="#82c232"/>
<path d="M75.7852 232.448L75.7852 224.705L78.2633 224.705L78.2633 232.448L75.7852 232.448Z" fill="#82c232"/>
<path d="M78.8081 232.448L78.8081 224.705L81.2873 224.705L81.2873 232.448L78.8081 232.448Z" fill="#82c232"/>
<path d="M69.7397 224.073L69.7397 216.33L72.2178 216.33L72.2178 224.073L69.7397 224.073Z" fill="#82c232"/>
<path d="M72.7627 224.073L72.7627 216.33L75.2408 216.33L75.2408 224.073L72.7627 224.073Z" fill="#82c232"/>
<path d="M75.7852 224.073L75.7852 216.33L78.2633 216.33L78.2633 224.073L75.7852 224.073Z" fill="#82c232"/>
<path d="M78.8081 224.073L78.8081 216.33L81.2873 216.33L81.2873 224.073L78.8081 224.073Z" fill="#82c232"/>
<path d="M69.7397 215.699L69.7397 207.956L72.2178 207.956L72.2178 215.699L69.7397 215.699Z" fill="#82c232"/>
<path d="M72.7627 215.699L72.7627 207.956L75.2408 207.956L75.2408 215.699L72.7627 215.699Z" fill="#82c232"/>
<path d="M75.7852 215.699L75.7852 207.956L78.2633 207.956L78.2633 215.699L75.7852 215.699Z" fill="#82c232"/>
<path d="M78.8081 215.699L78.8081 207.956L81.2873 207.956L81.2873 215.699L78.8081 215.699Z" fill="#82c232"/>
<path d="M69.7397 207.324L69.7397 199.581L72.2178 199.581L72.2178 207.324L69.7397 207.324Z" fill="#82c232"/>
<path d="M72.7627 207.324L72.7627 199.581L75.2408 199.581L75.2408 207.324L72.7627 207.324Z" fill="#82c232"/>
<path d="M75.7852 207.324L75.7852 199.581L78.2633 199.581L78.2633 207.324L75.7852 207.324Z" fill="#82c232"/>
<path d="M78.8081 207.324L78.8081 199.581L81.2873 199.581L81.2873 207.324L78.8081 207.324Z" fill="#82c232"/>
<path d="M69.7397 198.73L69.7397 190.987L72.2178 190.987L72.2178 198.73L69.7397 198.73Z" fill="#82c232"/>
<path d="M75.7852 198.73L75.7852 190.987L78.2633 190.987L78.2633 198.73L75.7852 198.73Z" fill="#82c232"/>
<path d="M72.7627 198.73L72.7627 190.987L75.2408 190.987L75.2408 198.73L72.7627 198.73Z" fill="#82c232"/>
<path d="M78.8081 198.73L78.8081 190.987L81.2873 190.987L81.2873 198.73L78.8081 198.73Z" fill="#82c232"/>
<path d="M69.7397 190.355L69.7397 182.612L72.2178 182.612L72.2178 190.355L69.7397 190.355Z" fill="#82c232"/>
<path d="M72.7627 190.355L72.7627 182.612L75.2408 182.612L75.2408 190.355L72.7627 190.355Z" fill="#82c232"/>
<path d="M75.7852 190.355L75.7852 182.612L78.2633 182.612L78.2633 190.355L75.7852 190.355Z" fill="#82c232"/>
<path d="M78.8081 190.355L78.8081 182.612L81.2873 182.612L81.2873 190.355L78.8081 190.355Z" fill="#82c232"/>
<path d="M69.7397 250.405L69.7397 242.663L72.2178 242.663L72.2178 250.405L69.7397 250.405Z" fill="#82c232"/>
<path d="M72.7627 250.405L72.7627 242.663L75.2408 242.663L75.2408 250.405L72.7627 250.405Z" fill="#82c232"/>
<path d="M75.7852 250.405L75.7852 242.663L78.2633 242.663L78.2633 250.405L75.7852 250.405Z" fill="#82c232"/>
<path d="M78.8081 250.405L78.8081 242.663L81.2873 242.663L81.2873 250.405L78.8081 250.405Z" fill="#82c232"/>
</g>
<path d="M23.0557 234.244L23.0557 211.189L33.2001 211.189L33.2001 234.244L23.0557 234.244Z" fill="#364954"/>
<g opacity="0.7">
<path d="M49.2363 407.459L49.2363 25.1253L50.1861 25.1253L50.1861 407.459L49.2363 407.459Z" fill="#82c232"/>
<path d="M56.8462 407.459L56.8462 25.1254L57.796 25.1254L57.796 407.459L56.8462 407.459Z" fill="#82c232"/>
</g>
<path d="M60.9932 227.725L60.9932 217.609L67.2238 217.609L67.2238 227.725L60.9932 227.725Z" fill="#82c232"/>
<path d="M63.979 226.771L63.979 218.341L22.0513 218.341L22.0513 226.771L63.979 226.771V226.771ZM62.4211 219.898L62.4211 225.216L23.6092 225.216L23.6092 219.898L62.4211 219.898Z" fill="#82c232"/>
<path d="M31.346 219.999L30.7992 219.445L24.4395 225.716L24.9863 226.269L31.346 219.999Z" fill="#82c232"/>
<path d="M31.3069 225.132L24.9472 218.862L24.4004 219.416L30.7601 225.686L31.3069 225.132Z" fill="#82c232"/>
<path d="M40.0336 219.999L39.4867 219.445L33.126 225.716L33.6728 226.269L40.0336 219.999Z" fill="#82c232"/>
<path d="M39.9934 225.132L33.6337 218.862L33.0869 219.416L39.4466 225.686L39.9934 225.132Z" fill="#82c232"/>
<path d="M49.1868 219.999L48.64 219.445L42.2803 225.716L42.8271 226.269L49.1868 219.999Z" fill="#82c232"/>
<path d="M49.1477 225.132L42.787 218.862L42.2412 219.416L48.6009 225.686L49.1477 225.132Z" fill="#82c232"/>
<path d="M58.6337 219.999L58.0868 219.445L51.7261 225.716L52.2729 226.269L58.6337 219.999Z" fill="#82c232"/>
<path d="M58.5936 225.132L52.2328 218.862L51.686 219.416L58.0468 225.686L58.5936 225.132Z" fill="#82c232"/>
<path d="M55.1792 232.717L55.1792 212.875L57.4881 212.875L57.4881 232.717L55.1792 232.717Z" fill="#82c232"/>
<path d="M47.7598 232.717L47.7598 212.875L50.0686 212.875L50.0686 232.717L47.7598 232.717Z" fill="#82c232"/>
<path opacity="0.2" d="M65.3633 178.507L65.3633 134.852L81.6555 134.852L81.6555 178.507L65.3633 178.507Z" fill="#82c232"/>
<defs>
<linearGradient id="paint0_linear_441_30646" x1="14.398" y1="284.264" x2="13.9745" y2="175.855" gradientUnits="userSpaceOnUse">
<stop stop-color="#344e5a"/>
<stop offset="1" stop-color="#496e52"/>
</linearGradient>
</defs>
</svg>
