<svg width="110" height="288" viewBox="0 0 110 288" fill="none" xmlns="http://www.w3.org/2000/svg">
<path d="M4.73438 1C17.7344 67.5 41.8344 228.2 44.2344 287" stroke="#496e52" stroke-dasharray="4 4"/>
<path d="M61.7344 1C78.7344 66 101.834 228.2 104.234 287" stroke="#496e52" stroke-dasharray="4 4"/>
<rect x="60.7461" y="42.8205" width="21.958" height="74.1083" transform="rotate(-8.58872 60.7461 42.8205)" fill="url(#paint0_linear_441_30645)"/>
<path fill-rule="evenodd" clip-rule="evenodd" d="M96.3465 205.397C96.6134 205.357 96.8725 205.238 97.0749 205.04C100.846 201.331 103.49 196.905 104.798 190.886C106.076 184.973 104.446 166.864 102.916 157.007C102.121 151.879 97.5052 122.207 96.4648 117.287C95.4216 112.35 94.1944 107.273 92.6609 101.625C91.834 96.1497 86.6084 97.3242 86.6084 97.3242C86.6084 97.3242 73.8897 99.0125 73.7329 99.2688C73.7329 99.2688 68.3935 99.69 69.221 105.169C69.4285 111.021 69.7508 116.231 70.2123 121.256C70.6706 126.26 75.0282 155.975 75.7792 161.109C77.2245 170.975 81.0191 188.761 83.9866 194.029C87.0134 199.393 90.8468 202.841 95.5451 205.271C95.7929 205.401 96.0756 205.438 96.3465 205.397Z" fill="url(#paint1_linear_441_30645)"/>
<rect x="72.4072" y="111.222" width="19.2133" height="9.60663" rx="1.37238" transform="rotate(-8.58872 72.4072 111.222)" fill="#344e5a"/>
<rect x="75.3701" y="130.841" width="2.74475" height="10.979" transform="rotate(-8.58872 75.3701 130.841)" fill="#344e5a"/>
<rect x="79.4414" y="130.226" width="2.74475" height="10.979" transform="rotate(-8.58872 79.4414 130.226)" fill="#344e5a"/>
<rect x="83.5122" y="129.611" width="2.74475" height="10.979" transform="rotate(-8.58872 83.5122 129.611)" fill="#344e5a"/>
<rect x="87.583" y="128.996" width="2.74475" height="10.979" transform="rotate(-8.58872 87.583 128.996)" fill="#344e5a"/>
<rect x="75.145" y="103.349" width="3" height="2" rx="1" transform="rotate(-8.58872 75.145 103.349)" fill="#82c232"/>
<rect x="84.0552" y="102.154" width="3" height="2" rx="1" transform="rotate(-8.58872 84.0552 102.154)" fill="#82c232"/>
<rect x="91.6543" y="128.381" width="2.74475" height="10.979" transform="rotate(-8.58872 91.6543 128.381)" fill="#344e5a"/>
<rect x="77.4199" y="144.411" width="2.74475" height="10.979" transform="rotate(-8.58872 77.4199 144.411)" fill="#344e5a"/>
<rect x="81.4907" y="143.796" width="2.74475" height="10.979" transform="rotate(-8.58872 81.4907 143.796)" fill="#344e5a"/>
<rect x="85.5615" y="143.181" width="2.74475" height="10.979" transform="rotate(-8.58872 85.5615 143.181)" fill="#344e5a"/>
<rect x="89.6328" y="142.566" width="2.74475" height="10.979" transform="rotate(-8.58872 89.6328 142.566)" fill="#344e5a"/>
<rect x="93.7036" y="141.951" width="2.74475" height="10.979" transform="rotate(-8.58872 93.7036 141.951)" fill="#344e5a"/>
<rect x="79.4692" y="157.98" width="2.74475" height="10.979" transform="rotate(-8.58872 79.4692 157.98)" fill="#344e5a"/>
<rect x="83.54" y="157.366" width="2.74475" height="10.979" transform="rotate(-8.58872 83.54 157.366)" fill="#344e5a"/>
<rect x="87.6113" y="156.751" width="2.74475" height="10.979" transform="rotate(-8.58872 87.6113 156.751)" fill="#344e5a"/>
<rect x="91.6821" y="156.136" width="2.74475" height="10.979" transform="rotate(-8.58872 91.6821 156.136)" fill="#344e5a"/>
<rect x="95.7534" y="155.521" width="2.74475" height="10.979" transform="rotate(-8.58872 95.7534 155.521)" fill="#344e5a"/>
<rect x="81.519" y="171.55" width="2.74475" height="10.979" transform="rotate(-8.58872 81.519 171.55)" fill="#344e5a"/>
<rect x="85.5898" y="170.935" width="2.74475" height="10.979" transform="rotate(-8.58872 85.5898 170.935)" fill="#344e5a"/>
<rect x="89.6606" y="170.321" width="2.74475" height="10.979" transform="rotate(-8.58872 89.6606 170.321)" fill="#344e5a"/>
<rect x="93.7314" y="169.706" width="2.74475" height="10.979" transform="rotate(-8.58872 93.7314 169.706)" fill="#344e5a"/>
<rect x="87.6392" y="184.505" width="2.74475" height="10.979" transform="rotate(-8.58872 87.6392 184.505)" fill="#344e5a"/>
<rect x="91.7104" y="183.89" width="2.74475" height="10.979" transform="rotate(-8.58872 91.7104 183.89)" fill="#344e5a"/>
<rect x="95.7812" y="183.276" width="2.74475" height="10.979" transform="rotate(-8.58872 95.7812 183.276)" fill="#344e5a"/>
<rect x="97.8027" y="169.091" width="2.74475" height="10.979" transform="rotate(-8.58872 97.8027 169.091)" fill="#344e5a"/>
<rect opacity="0.4" x="2.18555" y="27.3397" width="17.6276" height="59.493" transform="rotate(-8.58872 2.18555 27.3397)" fill="url(#paint2_linear_441_30645)"/>
<path fill-rule="evenodd" clip-rule="evenodd" d="M29.3644 151.782C29.5687 151.751 29.7676 151.664 29.924 151.523C32.8378 148.875 34.8976 145.731 35.951 141.477C36.9814 137.298 35.9008 124.549 34.8225 117.616C34.2622 114.01 31.0071 93.1387 30.2572 89.6809C29.5055 86.2106 28.6145 82.6437 27.4948 78.6768C26.9131 74.8255 22.9115 75.7008 22.9115 75.7008C22.9115 75.7008 13.1826 77.0066 13.0605 77.1887C13.0605 77.1887 8.97888 77.5342 9.56094 81.388C9.6661 85.5107 9.86483 89.1795 10.1715 92.7171C10.476 96.2396 13.5333 117.143 14.0601 120.755C15.0741 127.695 17.8101 140.196 20.0284 143.882C22.2912 147.635 25.1874 150.03 28.7536 151.7C28.9416 151.789 29.1572 151.813 29.3644 151.782Z" fill="url(#paint3_linear_441_30645)"/>
<rect x="11.6895" y="86.3025" width="15.4241" height="7.71206" rx="1.10172" transform="rotate(-8.58872 11.6895 86.3025)" fill="#344e5a"/>
<rect x="14.127" y="102.442" width="2.20344" height="8.81378" transform="rotate(-8.58872 14.127 102.442)" fill="#344e5a"/>
<rect x="17.395" y="101.948" width="2.20344" height="8.81378" transform="rotate(-8.58872 17.395 101.948)" fill="#344e5a"/>
<rect x="20.6631" y="101.455" width="2.20344" height="8.81378" transform="rotate(-8.58872 20.6631 101.455)" fill="#344e5a"/>
<rect x="23.9312" y="100.961" width="2.20344" height="8.81378" transform="rotate(-8.58872 23.9312 100.961)" fill="#344e5a"/>
<rect x="14.0049" y="80.2203" width="10" height="2" rx="1" transform="rotate(-8.58872 14.0049 80.2203)" fill="#82c232"/>
<rect x="27.1992" y="100.467" width="2.20344" height="8.81378" transform="rotate(-8.58872 27.1992 100.467)" fill="#344e5a"/>
<rect x="15.772" y="113.336" width="2.20344" height="8.81378" transform="rotate(-8.58872 15.772 113.336)" fill="#344e5a"/>
<rect x="19.04" y="112.842" width="2.20344" height="8.81378" transform="rotate(-8.58872 19.04 112.842)" fill="#344e5a"/>
<rect x="22.3081" y="112.348" width="2.20344" height="8.81378" transform="rotate(-8.58872 22.3081 112.348)" fill="#344e5a"/>
<rect x="25.5767" y="111.855" width="2.20344" height="8.81378" transform="rotate(-8.58872 25.5767 111.855)" fill="#344e5a"/>
<rect x="28.8447" y="111.361" width="2.20344" height="8.81378" transform="rotate(-8.58872 28.8447 111.361)" fill="#344e5a"/>
<rect x="17.4175" y="124.229" width="2.20344" height="8.81378" transform="rotate(-8.58872 17.4175 124.229)" fill="#344e5a"/>
<rect x="20.6855" y="123.736" width="2.20344" height="8.81378" transform="rotate(-8.58872 20.6855 123.736)" fill="#344e5a"/>
<rect x="23.9536" y="123.242" width="2.20344" height="8.81378" transform="rotate(-8.58872 23.9536 123.242)" fill="#344e5a"/>
<rect x="27.2217" y="122.748" width="2.20344" height="8.81378" transform="rotate(-8.58872 27.2217 122.748)" fill="#344e5a"/>
<rect x="30.4897" y="122.255" width="2.20344" height="8.81378" transform="rotate(-8.58872 30.4897 122.255)" fill="#344e5a"/>
<rect x="22.3257" y="134.594" width="2.20344" height="8.81378" transform="rotate(-8.58872 22.3257 134.594)" fill="#344e5a"/>
<rect x="25.5938" y="134.101" width="2.20344" height="8.81378" transform="rotate(-8.58872 25.5938 134.101)" fill="#344e5a"/>
<rect x="28.8618" y="133.607" width="2.20344" height="8.81378" transform="rotate(-8.58872 28.8618 133.607)" fill="#344e5a"/>
<defs>
<linearGradient id="paint0_linear_441_30645" x1="71.7251" y1="42.8205" x2="71.7251" y2="116.929" gradientUnits="userSpaceOnUse">
<stop stop-color="#496e52" stop-opacity="0"/>
<stop offset="1" stop-color="#496e52"/>
</linearGradient>
<linearGradient id="paint1_linear_441_30645" x1="80.1552" y1="98.1954" x2="96.3464" y2="205.397" gradientUnits="userSpaceOnUse">
<stop stop-color="#54722e"/>
<stop offset="1" stop-color="#82c232"/>
</linearGradient>
<linearGradient id="paint2_linear_441_30645" x1="10.9993" y1="27.3397" x2="10.9993" y2="86.8327" gradientUnits="userSpaceOnUse">
<stop stop-color="#496e52" stop-opacity="0"/>
<stop offset="1" stop-color="#496e52"/>
</linearGradient>
<linearGradient id="paint3_linear_441_30645" x1="17.9752" y1="76.3737" x2="29.3644" y2="151.782" gradientUnits="userSpaceOnUse">
<stop stop-color="#54722e"/>
<stop offset="1" stop-color="#82c232"/>
</linearGradient>
</defs>
</svg>
