<svg width="32" height="32" viewBox="0 0 32 32" fill="none" xmlns="http://www.w3.org/2000/svg">
<rect width="32" height="32" rx="8" fill="#82c232"/>
<path d="M23.6676 19.5229L18.0155 9.14592C17.1074 7.61904 14.8938 7.61701 13.9845 9.14592L8.33272 19.5229C7.4044 21.0831 8.52831 23.0588 10.3478 23.0588H21.652C23.47 23.0588 24.5959 21.0847 23.6676 19.5229ZM16 21.1862C15.4832 21.1862 15.0625 20.766 15.0625 20.2498C15.0625 19.7336 15.4832 19.3135 16 19.3135C16.5168 19.3135 16.9375 19.7336 16.9375 20.2498C16.9375 20.766 16.5168 21.1862 16 21.1862ZM16.9375 17.4408C16.9375 17.957 16.5168 18.3772 16 18.3772C15.4832 18.3772 15.0625 17.957 15.0625 17.4408V12.7591C15.0625 12.243 15.4832 11.8228 16 11.8228C16.5168 11.8228 16.9375 12.243 16.9375 12.7591V17.4408Z" fill="#54722e"/>
</svg>
