<svg width="1042" height="483" viewBox="0 0 1042 483" fill="none" xmlns="http://www.w3.org/2000/svg">
<g clip-path="url(#clip0_792_51876)">
<path d="M1938.68 49.9733L1812.93 43.4253C1749.25 40.1099 1694.96 -3.8404 1678.46 -65.4273V-65.4273C1664.18 -118.757 1621.23 -159.599 1567.25 -171.196L1431.63 -200.336L1354.94 -227.181C1260.13 -260.37 1154.82 -226.368 1097.32 -144.004V-144.004C1067.12 -100.742 1022.61 -69.5323 971.651 -55.8785L495.631 71.6538V71.6538C457.937 81.7524 418.046 79.9762 381.4 66.5675L373.906 63.8255C332.382 48.6324 287.182 46.6198 244.472 58.0623L219.621 64.7203C116.034 92.4727 35.5358 174.044 9.15712 277.989L-90.5619 670.933" stroke="#82c232" stroke-dasharray="4 4"/>
<rect x="316.357" y="52.3638" width="11.4711" height="38.715" transform="rotate(-74.3292 316.357 52.3638)" fill="url(#paint0_linear_792_51876)"/>
<path fill-rule="evenodd" clip-rule="evenodd" d="M401.431 70.3041C401.469 70.1683 401.468 70.0193 401.417 69.8805C400.46 67.2882 398.919 65.0789 396.333 63.1641C393.791 61.2859 384.816 58.1757 379.793 56.7884C377.181 56.0664 362.058 51.8959 359.491 51.3355C356.916 50.7726 354.234 50.2674 351.215 49.7854C348.43 49.0041 347.868 51.745 347.868 51.745C347.868 51.745 345.942 58.165 346.03 58.2947C346.03 58.2947 345.085 60.9282 347.872 61.71C350.703 62.8673 353.254 63.832 355.746 64.6908C358.228 65.5466 373.316 69.8493 375.922 70.5936C380.932 72.023 390.217 74.0333 393.363 73.7507C396.568 73.4606 399.033 72.3748 401.199 70.6587C401.314 70.5685 401.392 70.4419 401.431 70.3041Z" fill="url(#paint1_linear_792_51876)"/>
<rect x="351.44" y="61.4917" width="10.0372" height="5.01861" rx="0.716945" transform="rotate(-74.3292 351.44 61.4917)" fill="#54722E"/>
<rect x="361.42" y="64.2913" width="1.43389" height="5.73556" transform="rotate(-74.3292 361.42 64.2913)" fill="#54722E"/>
<rect x="362.001" y="62.2207" width="1.43389" height="5.73556" transform="rotate(-74.3292 362.001 62.2207)" fill="#54722E"/>
<rect x="362.582" y="60.1494" width="1.43389" height="5.73556" transform="rotate(-74.3292 362.582 60.1494)" fill="#54722E"/>
<rect x="363.162" y="58.0789" width="1.43389" height="5.73556" transform="rotate(-74.3292 363.162 58.0789)" fill="#54722E"/>
<rect x="348.277" y="58.4978" width="1.56723" height="1.04482" rx="0.522412" transform="rotate(-74.3292 348.277 58.4978)" fill="#54722E"/>
<rect x="349.621" y="53.9976" width="1.56723" height="1.04482" rx="0.522412" transform="rotate(-74.3292 349.621 53.9976)" fill="#54722E"/>
<rect x="363.743" y="56.0078" width="1.43389" height="5.73556" transform="rotate(-74.3292 363.743 56.0078)" fill="#54722E"/>
<rect x="368.323" y="66.2278" width="1.43389" height="5.73556" transform="rotate(-74.3292 368.323 66.2278)" fill="#54722E"/>
<rect x="368.903" y="64.1572" width="1.43389" height="5.73556" transform="rotate(-74.3292 368.903 64.1572)" fill="#54722E"/>
<rect x="369.484" y="62.0859" width="1.43389" height="5.73556" transform="rotate(-74.3292 369.484 62.0859)" fill="#54722E"/>
<rect x="370.065" y="60.0154" width="1.43389" height="5.73556" transform="rotate(-74.3292 370.065 60.0154)" fill="#54722E"/>
<rect x="370.646" y="57.9443" width="1.43389" height="5.73556" transform="rotate(-74.3292 370.646 57.9443)" fill="#54722E"/>
<rect x="375.226" y="68.1646" width="1.43389" height="5.73556" transform="rotate(-74.3292 375.226 68.1646)" fill="#54722E"/>
<rect x="375.807" y="66.0938" width="1.43389" height="5.73556" transform="rotate(-74.3292 375.807 66.0938)" fill="#54722E"/>
<rect x="376.388" y="64.0227" width="1.43389" height="5.73556" transform="rotate(-74.3292 376.388 64.0227)" fill="#54722E"/>
<rect x="376.969" y="61.9517" width="1.43389" height="5.73556" transform="rotate(-74.3292 376.969 61.9517)" fill="#54722E"/>
<rect x="377.55" y="59.8809" width="1.43389" height="5.73556" transform="rotate(-74.3292 377.55 59.8809)" fill="#54722E"/>
<rect x="382.129" y="70.1011" width="1.43389" height="5.73556" transform="rotate(-74.3292 382.129 70.1011)" fill="#54722E"/>
<rect x="382.71" y="68.03" width="1.43389" height="5.73556" transform="rotate(-74.3292 382.71 68.03)" fill="#54722E"/>
<rect x="383.29" y="65.9592" width="1.43389" height="5.73556" transform="rotate(-74.3292 383.29 65.9592)" fill="#54722E"/>
<rect x="383.872" y="63.8884" width="1.43389" height="5.73556" transform="rotate(-74.3292 383.872 63.8884)" fill="#54722E"/>
<rect x="389.612" y="69.9666" width="1.43389" height="5.73556" transform="rotate(-74.3292 389.612 69.9666)" fill="#54722E"/>
<rect x="390.193" y="67.8958" width="1.43389" height="5.73556" transform="rotate(-74.3292 390.193 67.8958)" fill="#54722E"/>
<rect x="390.774" y="65.825" width="1.43389" height="5.73556" transform="rotate(-74.3292 390.774 65.825)" fill="#54722E"/>
<rect x="384.452" y="61.8174" width="1.43389" height="5.73556" transform="rotate(-74.3292 384.452 61.8174)" fill="#54722E"/>
<path d="M-658.53 -386L-601.897 -208.673C-595.534 -188.749 -593.873 -167.622 -597.044 -146.948V-146.948C-605.445 -92.1795 -579.63 -37.8188 -531.876 -9.71658L-315.205 117.79C-268.805 145.095 -231.092 184.987 -206.434 232.846V232.846C-162.327 318.451 -77.9612 375.982 17.8385 385.784L123.411 396.586C147.265 399.027 170.903 403.249 194.127 409.217L262.622 426.817C340.318 446.782 422.371 441.281 496.708 411.124V411.124C543.87 391.991 594.436 382.668 645.32 383.724L685.528 384.557C724.44 385.365 763.131 378.502 799.391 364.36V364.36C904.744 323.274 977.548 225.833 987.083 113.154L997.084 -5.04036" stroke="#82c232" stroke-dasharray="4 4"/>
<circle cx="28.5" cy="28.5" r="28.5" transform="matrix(-0.937319 -0.348471 -0.348471 0.937319 684.491 367.75)" fill="#82C232" fill-opacity="0.1"/>
<circle cx="28.5" cy="28.5" r="28" transform="matrix(-0.937319 -0.348471 -0.348471 0.937319 684.491 367.75)" stroke="#54722E" stroke-opacity="0.4"/>
<circle cx="14.5" cy="14.5" r="14" transform="matrix(-0.937319 -0.348471 -0.348471 0.937319 666.49 375.994)" fill="#C7EFFF" fill-opacity="0.2" stroke="#54722E"/>
<circle cx="6.5" cy="6.5" r="6.5" transform="matrix(-0.937319 -0.348471 -0.348471 0.937319 656.204 380.704)" fill="#E7F6FF"/>
<path opacity="0.3" d="M1493.63 204.086L1447.36 201.349C1369.17 196.724 1296.28 240.979 1264.32 312.484V312.484C1232.36 383.989 1159.48 428.244 1081.29 423.619L990.101 418.224L796.065 427.026C772.111 428.113 748.271 430.99 724.746 435.634L611.23 458.041C522.618 475.532 431.168 447.078 368.123 382.4V382.4C326.512 339.711 271.822 312.162 212.752 304.134L109.104 290.048C19.8628 277.92 -55.8112 218.412 -88.6413 134.548V134.548C-98.0905 110.41 -111.262 87.9007 -127.676 67.8386L-251.908 -83.9999" stroke="#82c232" stroke-dasharray="4 4"/>
</g>
<defs>
<linearGradient id="paint0_linear_792_51876" x1="322.093" y1="52.3638" x2="322.093" y2="91.0788" gradientUnits="userSpaceOnUse">
<stop stop-color="#b2db80" stop-opacity="0"/>
<stop offset="1" stop-color="#b2db80"/>
</linearGradient>
<linearGradient id="paint1_linear_792_51876" x1="346.897" y1="55.0055" x2="401.431" y2="70.3041" gradientUnits="userSpaceOnUse">
<stop stop-color="#82C232"/>
<stop offset="1" stop-color="#54722E"/>
</linearGradient>
<clipPath id="clip0_792_51876">
<rect width="1042" height="483" fill="white"/>
</clipPath>
</defs>
</svg>
