<svg width="362" height="222" viewBox="0 0 362 222" fill="none" xmlns="http://www.w3.org/2000/svg">
<path d="M198.751 9.14564C148.65 9.14563 108.035 49.7604 108.035 99.8613C108.035 149.962 148.65 190.577 198.751 190.577C248.852 190.577 289.466 149.962 289.466 99.8613C289.466 49.7604 248.852 9.14564 198.751 9.14564Z" fill="url(#paint0_linear_885_65600)" stroke="#54722e" stroke-width="2.4308"/>
<circle cx="275.547" cy="54.936" r="22.6064" fill="#344e5a" fill-opacity="0.1"/>
<circle cx="275.547" cy="54.936" r="21.9987" stroke="#82c232" stroke-opacity="0.4" stroke-width="1.2154"/>
<circle cx="275.546" cy="54.9358" r="10.8938" fill="#b2db80" fill-opacity="0.3" stroke="#82c232" stroke-width="1.2154"/>
<circle cx="275.546" cy="54.9358" r="5.15585" fill="#54722e"/>
<path d="M205.345 27.319C205.345 30.2313 202.982 32.5948 200.07 32.5948C197.157 32.5948 194.794 30.2313 194.794 27.319C194.794 24.4068 197.157 22.0432 200.07 22.0432C202.982 22.0432 205.345 24.4068 205.345 27.319ZM200.07 169.766C197.157 169.766 194.794 172.129 194.794 175.042C194.794 177.954 197.157 180.317 200.07 180.317C202.982 180.317 205.345 177.954 205.345 175.042C205.345 172.129 202.982 169.766 200.07 169.766ZM273.931 95.9045C271.019 95.9045 268.655 98.268 268.655 101.18C268.655 104.093 271.019 106.456 273.931 106.456C276.843 106.456 279.207 104.093 279.207 101.18C279.207 98.268 276.843 95.9045 273.931 95.9045ZM126.208 95.9045C123.296 95.9045 120.933 98.268 120.933 101.18C120.933 104.093 123.296 106.456 126.208 106.456C129.121 106.456 131.484 104.093 131.484 101.18C131.484 98.268 129.121 95.9045 126.208 95.9045Z" fill="#496e52"/>
<path d="M213.373 116.192C212.938 116.192 212.499 116.044 212.144 115.739L198.909 104.469C198.49 104.112 198.248 103.592 198.248 103.044V76.7469C198.248 75.7082 199.093 74.8685 200.138 74.8685C201.184 74.8685 202.029 75.7082 202.029 76.7469V102.18L214.602 112.888C215.396 113.562 215.488 114.748 214.806 115.535C214.435 115.97 213.904 116.192 213.373 116.192Z" fill="#608631"/>
<path d="M200.069 110.601C205.272 110.601 209.49 106.383 209.49 101.18C209.49 95.9769 205.272 91.7589 200.069 91.7589C194.866 91.7589 190.648 95.9769 190.648 101.18C190.648 106.383 194.866 110.601 200.069 110.601Z" fill="#608631"/>
<path d="M103.598 68.2067C103.028 68.2067 102.453 68.1078 101.893 67.8864C99.4667 66.9442 98.2655 64.2168 99.2123 61.7909C104.667 47.7535 112.826 35.2282 123.443 24.5635C134.127 13.9318 146.647 5.77789 160.685 0.323089C163.101 -0.62373 165.843 0.582168 166.78 3.00339C167.722 5.42931 166.521 8.15672 164.1 9.09883C151.278 14.0826 139.836 21.5252 130.099 31.2242C120.41 40.9421 112.967 52.384 107.983 65.2014C107.263 67.0667 105.482 68.2067 103.598 68.2067Z" fill="#608631"/>
<path d="M237.754 202.363C235.87 202.363 234.09 201.223 233.364 199.357C232.422 196.931 233.623 194.204 236.044 193.262C248.862 188.273 260.299 180.831 270.036 171.132C279.725 161.414 287.168 149.972 292.152 137.155C293.089 134.724 295.826 133.518 298.247 134.474C300.673 135.416 301.874 138.144 300.927 140.57C295.473 154.607 287.314 167.133 276.696 177.797C266.013 188.429 253.492 196.583 239.455 202.038C238.899 202.264 238.324 202.363 237.754 202.363Z" fill="#608631"/>
<g filter="url(#filter0_d_885_65600)">
<rect x="57" y="124" width="110" height="60.3226" rx="7.60369" fill="white"/>
</g>
<path d="M68.2678 174.032V168.404H70.3116C70.9557 168.404 71.4986 168.515 71.9403 168.739C72.3874 168.957 72.7254 169.277 72.9543 169.697C73.1832 170.112 73.2976 170.618 73.2976 171.214C73.2976 171.805 73.1832 172.31 72.9543 172.731C72.7254 173.151 72.3874 173.473 71.9403 173.697C71.4986 173.92 70.9557 174.032 70.3116 174.032H68.2678ZM69.2977 173.178H70.2478C70.9291 173.178 71.4347 173.016 71.7647 172.691C72.0947 172.366 72.2597 171.874 72.2597 171.214C72.2597 170.549 72.0947 170.056 71.7647 169.737C71.4347 169.412 70.9291 169.25 70.2478 169.25H69.2977V173.178ZM76.2175 174.112C75.5415 174.112 75.0119 173.926 74.6287 173.553C74.2454 173.181 74.0538 172.67 74.0538 172.02C74.0538 171.6 74.1363 171.233 74.3013 170.919C74.4663 170.604 74.6952 170.36 74.9879 170.184C75.286 170.008 75.632 169.921 76.0258 169.921C76.4144 169.921 76.7391 170.003 76.9999 170.168C77.2607 170.333 77.4576 170.565 77.5907 170.863C77.7291 171.161 77.7983 171.509 77.7983 171.909V172.172H74.8602V171.645H77.0877L76.952 171.757C76.952 171.384 76.8721 171.099 76.7125 170.903C76.5581 170.706 76.3319 170.607 76.0338 170.607C75.7038 170.607 75.4483 170.724 75.2674 170.958C75.0917 171.193 75.0039 171.52 75.0039 171.94V172.044C75.0039 172.481 75.1104 172.808 75.3233 173.026C75.5415 173.239 75.8475 173.346 76.2414 173.346C76.4703 173.346 76.6832 173.316 76.8801 173.258C77.0824 173.194 77.274 173.093 77.455 172.954L77.7504 173.625C77.5587 173.779 77.3299 173.899 77.0637 173.984C76.7976 174.069 76.5155 174.112 76.2175 174.112ZM78.6434 174.032V168.156H79.6413V174.032H78.6434ZM82.282 174.112C81.9307 174.112 81.6219 174.03 81.3558 173.865C81.0897 173.694 80.8821 173.452 80.7331 173.138C80.584 172.824 80.5095 172.449 80.5095 172.012C80.5095 171.576 80.584 171.203 80.7331 170.895C80.8821 170.581 81.0897 170.341 81.3558 170.176C81.6219 170.006 81.9307 169.921 82.282 169.921C82.6226 169.921 82.9207 170.006 83.1761 170.176C83.437 170.341 83.6099 170.565 83.6951 170.847H83.6073L83.6951 170H84.6532C84.6372 170.165 84.6212 170.333 84.6053 170.503C84.5946 170.674 84.5893 170.841 84.5893 171.006V174.032H83.5993L83.5913 173.202H83.6871C83.6019 173.479 83.429 173.7 83.1682 173.865C82.9074 174.03 82.612 174.112 82.282 174.112ZM82.5614 173.346C82.8754 173.346 83.1282 173.237 83.3199 173.018C83.5115 172.795 83.6073 172.459 83.6073 172.012C83.6073 171.565 83.5115 171.233 83.3199 171.014C83.1282 170.796 82.8754 170.687 82.5614 170.687C82.2474 170.687 81.9945 170.796 81.8029 171.014C81.6113 171.233 81.5155 171.565 81.5155 172.012C81.5155 172.459 81.6086 172.795 81.7949 173.018C81.9865 173.237 82.242 173.346 82.5614 173.346ZM85.5572 175.845L85.3257 175.054C85.5758 175.001 85.7861 174.94 85.9564 174.871C86.1267 174.801 86.2678 174.711 86.3795 174.599C86.4913 174.487 86.5845 174.344 86.659 174.168L86.8586 173.697L86.8346 174.088L85.0782 170H86.14L87.4015 173.146H87.17L88.4394 170H89.4454L87.6091 174.256C87.4866 174.543 87.3536 174.78 87.2099 174.966C87.0662 175.158 86.9118 175.31 86.7468 175.421C86.5818 175.539 86.4008 175.629 86.2039 175.693C86.007 175.757 85.7914 175.807 85.5572 175.845ZM91.8421 174.112C91.1662 174.112 90.6366 173.926 90.2533 173.553C89.8701 173.181 89.6785 172.67 89.6785 172.02C89.6785 171.6 89.761 171.233 89.926 170.919C90.091 170.604 90.3199 170.36 90.6126 170.184C90.9107 170.008 91.2567 169.921 91.6505 169.921C92.0391 169.921 92.3638 170.003 92.6246 170.168C92.8854 170.333 93.0823 170.565 93.2154 170.863C93.3538 171.161 93.4229 171.509 93.4229 171.909V172.172H90.4849V171.645H92.7124L92.5767 171.757C92.5767 171.384 92.4968 171.099 92.3371 170.903C92.1828 170.706 91.9566 170.607 91.6585 170.607C91.3285 170.607 91.073 170.724 90.8921 170.958C90.7164 171.193 90.6286 171.52 90.6286 171.94V172.044C90.6286 172.481 90.735 172.808 90.9479 173.026C91.1662 173.239 91.4722 173.346 91.8661 173.346C92.095 173.346 92.3079 173.316 92.5048 173.258C92.7071 173.194 92.8987 173.093 93.0796 172.954L93.375 173.625C93.1834 173.779 92.9546 173.899 92.6884 173.984C92.4223 174.069 92.1402 174.112 91.8421 174.112ZM95.8329 174.112C95.4816 174.112 95.1702 174.03 94.8988 173.865C94.6326 173.694 94.4251 173.452 94.276 173.138C94.127 172.824 94.0525 172.449 94.0525 172.012C94.0525 171.576 94.127 171.203 94.276 170.895C94.4251 170.581 94.6326 170.341 94.8988 170.176C95.1702 170.006 95.4816 169.921 95.8329 169.921C96.1682 169.921 96.4636 170.003 96.7191 170.168C96.9799 170.328 97.1529 170.546 97.238 170.823H97.1343V168.156H98.1322V174.032H97.1502V173.178H97.246C97.1609 173.465 96.9879 173.694 96.7271 173.865C96.4716 174.03 96.1735 174.112 95.8329 174.112ZM96.1123 173.346C96.4264 173.346 96.6792 173.237 96.8708 173.018C97.0624 172.795 97.1582 172.459 97.1582 172.012C97.1582 171.565 97.0624 171.233 96.8708 171.014C96.6792 170.796 96.4264 170.687 96.1123 170.687C95.7983 170.687 95.5428 170.796 95.3459 171.014C95.1543 171.233 95.0585 171.565 95.0585 172.012C95.0585 172.459 95.1543 172.795 95.3459 173.018C95.5428 173.237 95.7983 173.346 96.1123 173.346ZM99.1072 171.102V170H100.225V171.102H99.1072ZM99.1072 174.032V172.922H100.225V174.032H99.1072Z" fill="#82c232"/>
<path d="M103.47 174.032V173.274L105.338 171.326C105.573 171.081 105.745 170.855 105.857 170.647C105.969 170.439 106.025 170.227 106.025 170.008C106.025 169.737 105.94 169.532 105.769 169.394C105.599 169.255 105.352 169.186 105.027 169.186C104.766 169.186 104.516 169.234 104.276 169.33C104.037 169.42 103.803 169.564 103.574 169.761L103.239 168.994C103.467 168.792 103.75 168.63 104.085 168.507C104.425 168.385 104.782 168.324 105.155 168.324C105.761 168.324 106.227 168.459 106.552 168.731C106.877 169.002 107.039 169.391 107.039 169.897C107.039 170.248 106.956 170.583 106.791 170.903C106.626 171.217 106.371 171.547 106.025 171.893L104.468 173.449V173.178H107.262V174.032H103.47ZM110.448 174.032V168.404H111.478V170.751H114.36V168.404H115.39V174.032H114.36V171.605H111.478V174.032H110.448ZM118.371 174.112C117.956 174.112 117.597 174.027 117.294 173.857C116.99 173.686 116.753 173.444 116.583 173.13C116.418 172.816 116.336 172.443 116.336 172.012C116.336 171.581 116.418 171.211 116.583 170.903C116.753 170.589 116.99 170.346 117.294 170.176C117.597 170.006 117.956 169.921 118.371 169.921C118.787 169.921 119.146 170.006 119.449 170.176C119.758 170.346 119.995 170.589 120.16 170.903C120.33 171.211 120.415 171.581 120.415 172.012C120.415 172.443 120.33 172.816 120.16 173.13C119.995 173.444 119.758 173.686 119.449 173.857C119.146 174.027 118.787 174.112 118.371 174.112ZM118.371 173.346C118.686 173.346 118.936 173.237 119.122 173.018C119.308 172.795 119.401 172.459 119.401 172.012C119.401 171.565 119.308 171.233 119.122 171.014C118.936 170.796 118.686 170.687 118.371 170.687C118.057 170.687 117.807 170.796 117.621 171.014C117.435 171.233 117.342 171.565 117.342 172.012C117.342 172.459 117.435 172.795 117.621 173.018C117.807 173.237 118.057 173.346 118.371 173.346ZM122.729 174.112C122.234 174.112 121.864 173.976 121.619 173.705C121.374 173.433 121.252 173.018 121.252 172.459V170H122.25V172.451C122.25 172.749 122.311 172.97 122.434 173.114C122.556 173.252 122.742 173.322 122.993 173.322C123.275 173.322 123.503 173.226 123.679 173.034C123.86 172.843 123.951 172.59 123.951 172.276V170H124.949V174.032H123.975V173.21H124.086C123.969 173.497 123.791 173.721 123.551 173.881C123.317 174.035 123.043 174.112 122.729 174.112ZM126.024 174.032V171.03C126.024 170.86 126.019 170.687 126.008 170.511C126.003 170.336 125.989 170.165 125.968 170H126.934L127.046 171.102H126.886C126.94 170.836 127.027 170.615 127.15 170.439C127.277 170.264 127.432 170.133 127.613 170.048C127.794 169.963 127.991 169.921 128.204 169.921C128.299 169.921 128.377 169.926 128.435 169.937C128.494 169.942 128.552 169.955 128.611 169.976L128.603 170.855C128.502 170.812 128.414 170.785 128.339 170.775C128.27 170.764 128.182 170.759 128.076 170.759C127.847 170.759 127.653 170.807 127.493 170.903C127.339 170.998 127.222 171.131 127.142 171.302C127.067 171.472 127.03 171.666 127.03 171.885V174.032H126.024ZM130.564 174.112C130.218 174.112 129.899 174.072 129.606 173.992C129.319 173.907 129.077 173.79 128.88 173.641L129.159 172.97C129.362 173.109 129.585 173.215 129.83 173.29C130.075 173.364 130.322 173.402 130.572 173.402C130.839 173.402 131.035 173.356 131.163 173.266C131.296 173.175 131.363 173.053 131.363 172.899C131.363 172.776 131.32 172.68 131.235 172.611C131.155 172.537 131.025 172.481 130.844 172.443L130.045 172.292C129.705 172.217 129.444 172.089 129.263 171.909C129.087 171.728 129 171.491 129 171.198C129 170.948 129.066 170.727 129.199 170.535C129.338 170.344 129.532 170.195 129.782 170.088C130.037 169.976 130.336 169.921 130.676 169.921C130.974 169.921 131.254 169.96 131.514 170.04C131.781 170.12 132.004 170.24 132.185 170.4L131.898 171.046C131.733 170.913 131.544 170.809 131.331 170.735C131.118 170.66 130.91 170.623 130.708 170.623C130.431 170.623 130.229 170.674 130.101 170.775C129.974 170.871 129.91 170.996 129.91 171.15C129.91 171.267 129.947 171.366 130.022 171.445C130.101 171.52 130.224 171.576 130.389 171.613L131.187 171.765C131.544 171.834 131.813 171.956 131.994 172.132C132.18 172.302 132.273 172.537 132.273 172.835C132.273 173.101 132.201 173.33 132.057 173.521C131.914 173.713 131.714 173.859 131.459 173.96C131.203 174.062 130.905 174.112 130.564 174.112Z" fill="#E40000"/>
<path d="M67.645 142.984L70.8791 135.836H71.9741L75.2487 142.984H73.9206L73.0487 140.977L73.5759 141.331H69.2874L69.8349 140.977L68.963 142.984H67.645ZM71.4164 137.235L69.987 140.622L69.7234 140.307H73.1298L72.9169 140.622L71.457 137.235H71.4164ZM75.928 142.984V139.172C75.928 138.956 75.9212 138.736 75.9077 138.513C75.9009 138.29 75.884 138.074 75.857 137.864H77.0837L77.2257 139.263H77.0229C77.0905 138.925 77.202 138.645 77.3575 138.422C77.5197 138.199 77.7157 138.033 77.9455 137.925C78.1753 137.817 78.4254 137.763 78.6957 137.763C78.8174 137.763 78.9154 137.769 78.9897 137.783C79.0641 137.79 79.1384 137.807 79.2128 137.834L79.2026 138.949C79.0742 138.895 78.9627 138.861 78.8681 138.847C78.7802 138.834 78.6687 138.827 78.5335 138.827C78.2429 138.827 77.9962 138.888 77.7934 139.01C77.5974 139.131 77.4487 139.3 77.3473 139.517C77.2527 139.733 77.2054 139.98 77.2054 140.257V142.984H75.928ZM79.908 142.984V139.172C79.908 138.956 79.9013 138.736 79.8877 138.513C79.881 138.29 79.8641 138.074 79.8371 137.864H81.0638L81.2057 139.263H81.003C81.0705 138.925 81.1821 138.645 81.3375 138.422C81.4997 138.199 81.6957 138.033 81.9255 137.925C82.1553 137.817 82.4054 137.763 82.6758 137.763C82.7974 137.763 82.8954 137.769 82.9698 137.783C83.0441 137.79 83.1185 137.807 83.1928 137.834L83.1827 138.949C83.0543 138.895 82.9427 138.861 82.8481 138.847C82.7603 138.834 82.6487 138.827 82.5136 138.827C82.2229 138.827 81.9762 138.888 81.7735 139.01C81.5775 139.131 81.4288 139.3 81.3274 139.517C81.2328 139.733 81.1854 139.98 81.1854 140.257V142.984H79.908ZM83.8982 142.984V137.864H85.1655V142.984H83.8982ZM83.8272 136.901V135.664H85.2365V136.901H83.8272ZM88.0421 142.984L85.832 137.864H87.1804L88.7822 141.869H88.468L90.1104 137.864H91.3776L89.1574 142.984H88.0421ZM93.9343 143.085C93.4882 143.085 93.0962 142.981 92.7583 142.771C92.4203 142.555 92.1567 142.247 91.9675 141.848C91.7782 141.45 91.6836 140.973 91.6836 140.419C91.6836 139.865 91.7782 139.392 91.9675 139C92.1567 138.601 92.4203 138.297 92.7583 138.087C93.0962 137.871 93.4882 137.763 93.9343 137.763C94.3669 137.763 94.7454 137.871 95.0698 138.087C95.401 138.297 95.6206 138.581 95.7288 138.939H95.6172L95.7288 137.864H96.9454C96.9251 138.074 96.9048 138.286 96.8845 138.503C96.871 138.719 96.8642 138.932 96.8642 139.141V142.984H95.6071L95.597 141.93H95.7186C95.6105 142.281 95.3908 142.561 95.0596 142.771C94.7285 142.981 94.3533 143.085 93.9343 143.085ZM94.2891 142.112C94.6879 142.112 95.0089 141.973 95.2523 141.696C95.4956 141.412 95.6172 140.987 95.6172 140.419C95.6172 139.851 95.4956 139.429 95.2523 139.152C95.0089 138.875 94.6879 138.736 94.2891 138.736C93.8904 138.736 93.5693 138.875 93.326 139.152C93.0827 139.429 92.961 139.851 92.961 140.419C92.961 140.987 93.0793 141.412 93.3159 141.696C93.5592 141.973 93.8836 142.112 94.2891 142.112ZM98.2442 142.984V135.522H99.5115V142.984H98.2442ZM105.454 142.984V136.911H103.092V135.836H109.124V136.911H106.762V142.984H105.454ZM109.947 142.984V137.864H111.214V142.984H109.947ZM109.876 136.901V135.664H111.285V136.901H109.876ZM112.59 142.984V139.141C112.59 138.932 112.583 138.719 112.57 138.503C112.556 138.286 112.536 138.074 112.509 137.864H113.736L113.837 138.878H113.716C113.858 138.526 114.074 138.253 114.364 138.057C114.662 137.861 115.013 137.763 115.419 137.763C115.824 137.763 116.159 137.861 116.423 138.057C116.693 138.246 116.882 138.543 116.99 138.949H116.828C116.97 138.584 117.203 138.297 117.528 138.087C117.852 137.871 118.224 137.763 118.643 137.763C119.217 137.763 119.646 137.932 119.93 138.27C120.214 138.608 120.356 139.135 120.356 139.851V142.984H119.089V139.902C119.089 139.496 119.021 139.206 118.886 139.03C118.751 138.847 118.535 138.756 118.237 138.756C117.886 138.756 117.609 138.881 117.406 139.131C117.203 139.375 117.102 139.706 117.102 140.125V142.984H115.834V139.902C115.834 139.496 115.767 139.206 115.632 139.03C115.497 138.847 115.28 138.756 114.983 138.756C114.631 138.756 114.354 138.881 114.152 139.131C113.956 139.375 113.858 139.706 113.858 140.125V142.984H112.59ZM124.182 143.085C123.324 143.085 122.652 142.849 122.165 142.376C121.678 141.902 121.435 141.254 121.435 140.429C121.435 139.895 121.54 139.429 121.749 139.03C121.959 138.631 122.249 138.32 122.621 138.097C123 137.874 123.439 137.763 123.939 137.763C124.433 137.763 124.845 137.867 125.176 138.077C125.507 138.286 125.757 138.581 125.926 138.959C126.102 139.337 126.19 139.78 126.19 140.287V140.622H122.459V139.953H125.288L125.115 140.094C125.115 139.621 125.014 139.26 124.811 139.01C124.615 138.76 124.328 138.635 123.949 138.635C123.53 138.635 123.206 138.783 122.976 139.081C122.753 139.378 122.641 139.794 122.641 140.328V140.459C122.641 141.014 122.777 141.429 123.047 141.706C123.324 141.977 123.713 142.112 124.213 142.112C124.504 142.112 124.774 142.075 125.024 142C125.281 141.919 125.524 141.791 125.754 141.615L126.129 142.467C125.886 142.663 125.595 142.815 125.257 142.923C124.919 143.031 124.561 143.085 124.182 143.085ZM68.5372 158.984V151.836H73.0994V152.526H69.3584V155.01H72.8764V155.709H69.3584V158.284H73.0994V158.984H68.5372ZM76.7302 159.075C76.1557 159.075 75.642 159.001 75.1891 158.852C74.7363 158.703 74.3409 158.49 74.003 158.213L74.3071 157.544C74.5437 157.72 74.7802 157.869 75.0168 157.99C75.2601 158.105 75.5203 158.193 75.7974 158.254C76.0746 158.308 76.3855 158.335 76.7302 158.335C77.3317 158.335 77.7778 158.224 78.0684 158C78.359 157.777 78.5044 157.48 78.5044 157.108C78.5044 156.791 78.403 156.547 78.2002 156.378C77.9974 156.209 77.6426 156.074 77.1357 155.973L76.0712 155.76C75.4156 155.625 74.9256 155.405 74.6011 155.101C74.2835 154.797 74.1246 154.385 74.1246 153.864C74.1246 153.438 74.2328 153.067 74.4491 152.749C74.6721 152.431 74.983 152.185 75.3818 152.009C75.7805 151.833 76.2435 151.745 76.7707 151.745C77.2776 151.745 77.7406 151.823 78.1597 151.978C78.5787 152.127 78.9369 152.347 79.2343 152.637L78.9403 153.286C78.6226 153.002 78.2881 152.8 77.9366 152.678C77.5919 152.549 77.1999 152.485 76.7606 152.485C76.2063 152.485 75.767 152.607 75.4426 152.85C75.1249 153.087 74.9661 153.411 74.9661 153.824C74.9661 154.155 75.0675 154.415 75.2703 154.604C75.473 154.787 75.8076 154.925 76.2739 155.02L77.3486 155.233C78.038 155.375 78.5449 155.588 78.8693 155.871C79.1938 156.155 79.356 156.554 79.356 157.068C79.356 157.46 79.2478 157.808 79.0315 158.112C78.822 158.416 78.5212 158.653 78.1292 158.822C77.7372 158.991 77.2709 159.075 76.7302 159.075ZM82.3001 158.984V152.546H79.7757V151.836H85.6559V152.546H83.1416V158.984H82.3001ZM91.4778 159.075C90.6668 159.075 90.045 158.761 89.6124 158.132C89.1798 157.504 88.9635 156.595 88.9635 155.405C88.9635 154.209 89.1798 153.3 89.6124 152.678C90.045 152.056 90.6668 151.745 91.4778 151.745C92.2956 151.745 92.9175 152.056 93.3433 152.678C93.7758 153.3 93.9921 154.205 93.9921 155.395C93.9921 156.591 93.7758 157.504 93.3433 158.132C92.9107 158.761 92.2889 159.075 91.4778 159.075ZM91.4778 158.345C92.0456 158.345 92.468 158.105 92.7451 157.625C93.0222 157.145 93.1608 156.402 93.1608 155.395C93.1608 154.381 93.0222 153.641 92.7451 153.175C92.468 152.702 92.0456 152.465 91.4778 152.465C90.9168 152.465 90.4944 152.702 90.2105 153.175C89.9334 153.648 89.7949 154.388 89.7949 155.395C89.7949 156.402 89.9334 157.145 90.2105 157.625C90.4944 158.105 90.9168 158.345 91.4778 158.345ZM97.0803 159.075C96.7086 159.075 96.3335 158.997 95.955 158.842C95.5765 158.68 95.2622 158.47 95.0121 158.213L95.3264 157.554C95.5832 157.818 95.8637 158.014 96.1679 158.142C96.472 158.271 96.7795 158.335 97.0905 158.335C97.7731 158.335 98.2969 158.092 98.6619 157.605C99.0336 157.112 99.2195 156.375 99.2195 155.395V154.452H99.3209C99.2803 154.831 99.162 155.162 98.966 155.446C98.7768 155.73 98.5301 155.946 98.2259 156.094C97.9286 156.243 97.594 156.318 97.2223 156.318C96.7897 156.318 96.4044 156.223 96.0665 156.034C95.7353 155.844 95.4751 155.577 95.2858 155.233C95.0966 154.888 95.002 154.499 95.002 154.067C95.002 153.614 95.1 153.215 95.296 152.871C95.4988 152.519 95.7725 152.245 96.1172 152.049C96.4686 151.847 96.8708 151.745 97.3236 151.745C98.1955 151.745 98.8646 152.049 99.331 152.658C99.8041 153.266 100.041 154.124 100.041 155.233C100.041 156.051 99.9224 156.747 99.6858 157.321C99.4493 157.896 99.1113 158.332 98.672 158.629C98.2327 158.926 97.7021 159.075 97.0803 159.075ZM97.3946 155.618C97.7055 155.618 97.9792 155.55 98.2158 155.415C98.4524 155.28 98.6348 155.094 98.7633 154.858C98.8984 154.621 98.966 154.347 98.966 154.036C98.966 153.719 98.8984 153.442 98.7633 153.205C98.6348 152.969 98.4524 152.783 98.2158 152.647C97.9792 152.512 97.7055 152.445 97.3946 152.445C97.0837 152.445 96.8066 152.512 96.5633 152.647C96.3267 152.783 96.1408 152.969 96.0057 153.205C95.8772 153.442 95.813 153.719 95.813 154.036C95.813 154.347 95.8772 154.621 96.0057 154.858C96.1408 155.094 96.3267 155.28 96.5633 155.415C96.8066 155.55 97.0837 155.618 97.3946 155.618ZM101.233 154.929V153.894H102.267V154.929H101.233ZM101.233 158.984V157.95H102.267V158.984H101.233ZM105.943 159.075C105.132 159.075 104.51 158.761 104.077 158.132C103.645 157.504 103.428 156.595 103.428 155.405C103.428 154.209 103.645 153.3 104.077 152.678C104.51 152.056 105.132 151.745 105.943 151.745C106.76 151.745 107.382 152.056 107.808 152.678C108.241 153.3 108.457 154.205 108.457 155.395C108.457 156.591 108.241 157.504 107.808 158.132C107.376 158.761 106.754 159.075 105.943 159.075ZM105.943 158.345C106.51 158.345 106.933 158.105 107.21 157.625C107.487 157.145 107.626 156.402 107.626 155.395C107.626 154.381 107.487 153.641 107.21 153.175C106.933 152.702 106.51 152.465 105.943 152.465C105.382 152.465 104.959 152.702 104.675 153.175C104.398 153.648 104.26 154.388 104.26 155.395C104.26 156.402 104.398 157.145 104.675 157.625C104.959 158.105 105.382 158.345 105.943 158.345ZM112.022 159.075C111.211 159.075 110.589 158.761 110.156 158.132C109.724 157.504 109.507 156.595 109.507 155.405C109.507 154.209 109.724 153.3 110.156 152.678C110.589 152.056 111.211 151.745 112.022 151.745C112.839 151.745 113.461 152.056 113.887 152.678C114.32 153.3 114.536 154.205 114.536 155.395C114.536 156.591 114.32 157.504 113.887 158.132C113.455 158.761 112.833 159.075 112.022 159.075ZM112.022 158.345C112.589 158.345 113.012 158.105 113.289 157.625C113.566 157.145 113.705 156.402 113.705 155.395C113.705 154.381 113.566 153.641 113.289 153.175C113.012 152.702 112.589 152.465 112.022 152.465C111.461 152.465 111.038 152.702 110.754 153.175C110.477 153.648 110.339 154.388 110.339 155.395C110.339 156.402 110.477 157.145 110.754 157.625C111.038 158.105 111.461 158.345 112.022 158.345ZM117.885 158.984L121.038 151.836H121.768L124.972 158.984H124.1L123.208 156.946L123.583 157.159H119.213L119.619 156.946L118.747 158.984H117.885ZM121.393 152.8L119.751 156.652L119.507 156.47H123.279L123.096 156.652L121.413 152.8H121.393ZM126.06 158.984V151.836H126.79L129.659 158.315H129.365L132.234 151.836H132.964V158.984H132.194V152.921H132.498L129.791 158.984H129.233L126.516 152.921H126.82V158.984H126.06Z" fill="#82c232"/>
<defs>
<filter id="filter0_d_885_65600" x="0.225807" y="70.7742" width="223.548" height="173.871" filterUnits="userSpaceOnUse" color-interpolation-filters="sRGB">
<feFlood flood-opacity="0" result="BackgroundImageFix"/>
<feColorMatrix in="SourceAlpha" type="matrix" values="0 0 0 0 0 0 0 0 0 0 0 0 0 0 0 0 0 0 127 0" result="hardAlpha"/>
<feOffset dy="3.54839"/>
<feGaussianBlur stdDeviation="28.3871"/>
<feComposite in2="hardAlpha" operator="out"/>
<feColorMatrix type="matrix" values="0 0 0 0 0.203194 0 0 0 0 0.2882 0 0 0 0 0.366667 0 0 0 0.16 0"/>
<feBlend mode="normal" in2="BackgroundImageFix" result="effect1_dropShadow_885_65600"/>
<feBlend mode="normal" in="SourceGraphic" in2="effect1_dropShadow_885_65600" result="shape"/>
</filter>
<linearGradient id="paint0_linear_885_65600" x1="296.5" y1="201.5" x2="131" y2="28" gradientUnits="userSpaceOnUse">
<stop stop-color="#82c232"/>
<stop offset="1" stop-color="#82c232" stop-opacity="0"/>
</linearGradient>
</defs>
</svg>
