<svg width="32" height="32" viewBox="0 0 32 32" fill="none" xmlns="http://www.w3.org/2000/svg">
<rect width="32" height="32" rx="8" fill="#82c232"/>
<path d="M16 8C14.4178 8 12.871 8.46919 11.5554 9.34824C10.2398 10.2273 9.21447 11.4767 8.60897 12.9385C8.00347 14.4003 7.84504 16.0089 8.15372 17.5607C8.4624 19.1126 9.22433 20.538 10.3431 21.6569C11.462 22.7757 12.8874 23.5376 14.4393 23.8463C15.9911 24.155 17.5997 23.9965 19.0615 23.391C20.5233 22.7855 21.7727 21.7602 22.6518 20.4446C23.5308 19.129 24 17.5822 24 16C23.9975 13.879 23.1538 11.8457 21.6541 10.3459C20.1543 8.84616 18.121 8.0025 16 8ZM18.696 18.696C18.5596 18.8323 18.3747 18.9089 18.1818 18.9089C17.989 18.9089 17.804 18.8323 17.6676 18.696L15.4858 16.5142C15.3494 16.3778 15.2728 16.1929 15.2727 16V11.6364C15.2727 11.4435 15.3494 11.2585 15.4857 11.1221C15.6221 10.9857 15.8071 10.9091 16 10.9091C16.1929 10.9091 16.3779 10.9857 16.5143 11.1221C16.6507 11.2585 16.7273 11.4435 16.7273 11.6364V15.6989L18.696 17.6676C18.8323 17.804 18.9089 17.989 18.9089 18.1818C18.9089 18.3747 18.8323 18.5596 18.696 18.696Z" fill="#54722e"/>
</svg>
