<svg width="485" height="292" viewBox="0 0 485 292" fill="none" xmlns="http://www.w3.org/2000/svg">
<g opacity="0.4">
<path d="M22.8564 178.493C22.8564 176.284 24.6473 174.493 26.8564 174.493H72.8564C75.0656 174.493 76.8564 176.284 76.8564 178.493V291.493H22.8564V178.493Z" fill="url(#paint0_linear_803_51674)"/>
<path d="M100.856 126.493C100.856 124.284 102.647 122.493 104.856 122.493H150.856C153.066 122.493 154.856 124.284 154.856 126.493V291.493H100.856V126.493Z" fill="url(#paint1_linear_803_51674)"/>
<path d="M178.856 161.493C178.856 159.284 180.647 157.493 182.856 157.493H230.856C233.066 157.493 234.856 159.284 234.856 161.493V291.493H178.856V161.493Z" fill="url(#paint2_linear_803_51674)"/>
<path d="M258.856 89.4927C258.856 87.2835 260.647 85.4927 262.856 85.4927H309.856C312.066 85.4927 313.856 87.2835 313.856 89.4927V291.493H258.856V89.4927Z" fill="url(#paint3_linear_803_51674)"/>
<path d="M337.856 224.493C337.856 222.284 339.647 220.493 341.856 220.493H387.856C390.066 220.493 391.856 222.284 391.856 224.493V291.493H337.856V224.493Z" fill="url(#paint4_linear_803_51674)"/>
<path d="M415.856 134.493C415.856 132.284 417.647 130.493 419.856 130.493H465.856C468.066 130.493 469.856 132.284 469.856 134.493V291.493H415.856V134.493Z" fill="url(#paint5_linear_803_51674)"/>
</g>
<g filter="url(#filter0_d_803_51674)">
<rect x="64.8564" y="60.4927" width="154" height="74" rx="12" fill="white"/>
</g>
<path d="M84.0004 89.4927V79.3327H80.0164V78.2127H89.2964V79.3327H85.3284V89.4927H84.0004ZM92.8539 89.6367C92.0859 89.6367 91.4139 89.4713 90.8379 89.1407C90.2726 88.7993 89.8353 88.3193 89.5259 87.7007C89.2166 87.0713 89.0619 86.33 89.0619 85.4767C89.0619 84.6127 89.2166 83.8713 89.5259 83.2527C89.8353 82.634 90.2726 82.1593 90.8379 81.8287C91.4139 81.4873 92.0859 81.3167 92.8539 81.3167C93.6326 81.3167 94.3046 81.4873 94.8699 81.8287C95.4459 82.1593 95.8886 82.634 96.1979 83.2527C96.5179 83.8713 96.6779 84.6127 96.6779 85.4767C96.6779 86.33 96.5179 87.0713 96.1979 87.7007C95.8886 88.3193 95.4459 88.7993 94.8699 89.1407C94.3046 89.4713 93.6326 89.6367 92.8539 89.6367ZM92.8539 88.5807C93.6219 88.5807 94.2299 88.3193 94.6779 87.7967C95.1259 87.2633 95.3499 86.49 95.3499 85.4767C95.3499 84.4527 95.1206 83.6793 94.6619 83.1567C94.2139 82.6233 93.6113 82.3567 92.8539 82.3567C92.0966 82.3567 91.4939 82.6233 91.0459 83.1567C90.5979 83.6793 90.3739 84.4527 90.3739 85.4767C90.3739 86.49 90.5979 87.2633 91.0459 87.7967C91.4939 88.3193 92.0966 88.5807 92.8539 88.5807ZM101.468 89.6367C100.679 89.6367 100.076 89.4127 99.6604 88.9647C99.2444 88.506 99.0364 87.818 99.0364 86.9007V82.4687H97.4684V81.4607H99.0364V79.2687L100.332 78.9007V81.4607H102.636V82.4687H100.332V86.7567C100.332 87.3967 100.439 87.8553 100.652 88.1327C100.876 88.3993 101.207 88.5327 101.644 88.5327C101.847 88.5327 102.028 88.5167 102.188 88.4847C102.348 88.442 102.492 88.394 102.62 88.3407V89.4287C102.471 89.4927 102.29 89.5407 102.076 89.5727C101.874 89.6153 101.671 89.6367 101.468 89.6367ZM107.27 89.6367C106.556 89.6367 105.932 89.4713 105.398 89.1407C104.865 88.7993 104.449 88.3193 104.15 87.7007C103.862 87.082 103.718 86.3407 103.718 85.4767C103.718 84.602 103.862 83.8553 104.15 83.2367C104.449 82.618 104.865 82.1433 105.398 81.8127C105.932 81.482 106.556 81.3167 107.27 81.3167C107.996 81.3167 108.62 81.5033 109.142 81.8767C109.676 82.2393 110.028 82.7353 110.198 83.3647H110.006L110.182 81.4607H111.43C111.398 81.77 111.366 82.0847 111.334 82.4047C111.313 82.714 111.302 83.018 111.302 83.3167V89.4927H110.006V87.6047H110.182C110.012 88.234 109.66 88.73 109.126 89.0927C108.593 89.4553 107.974 89.6367 107.27 89.6367ZM107.526 88.5807C108.294 88.5807 108.902 88.3193 109.35 87.7967C109.798 87.2633 110.022 86.49 110.022 85.4767C110.022 84.4527 109.798 83.6793 109.35 83.1567C108.902 82.6233 108.294 82.3567 107.526 82.3567C106.769 82.3567 106.161 82.6233 105.702 83.1567C105.254 83.6793 105.03 84.4527 105.03 85.4767C105.03 86.49 105.254 87.2633 105.702 87.7967C106.161 88.3193 106.769 88.5807 107.526 88.5807ZM113.808 89.4927V77.7167H115.104V89.4927H113.808ZM124.848 89.6367C124.134 89.6367 123.51 89.4713 122.976 89.1407C122.443 88.7993 122.027 88.3193 121.728 87.7007C121.44 87.082 121.296 86.3407 121.296 85.4767C121.296 84.602 121.44 83.8553 121.728 83.2367C122.027 82.618 122.443 82.1433 122.976 81.8127C123.51 81.482 124.134 81.3167 124.848 81.3167C125.574 81.3167 126.198 81.5033 126.72 81.8767C127.254 82.2393 127.606 82.7353 127.776 83.3647H127.584L127.76 81.4607H129.008C128.976 81.77 128.944 82.0847 128.912 82.4047C128.891 82.714 128.88 83.018 128.88 83.3167V89.4927H127.584V87.6047H127.76C127.59 88.234 127.238 88.73 126.704 89.0927C126.171 89.4553 125.552 89.6367 124.848 89.6367ZM125.104 88.5807C125.872 88.5807 126.48 88.3193 126.928 87.7967C127.376 87.2633 127.6 86.49 127.6 85.4767C127.6 84.4527 127.376 83.6793 126.928 83.1567C126.48 82.6233 125.872 82.3567 125.104 82.3567C124.347 82.3567 123.739 82.6233 123.28 83.1567C122.832 83.6793 122.608 84.4527 122.608 85.4767C122.608 86.49 122.832 87.2633 123.28 87.7967C123.739 88.3193 124.347 88.5807 125.104 88.5807ZM134.762 89.6367C133.973 89.6367 133.285 89.466 132.698 89.1247C132.122 88.7833 131.674 88.298 131.354 87.6687C131.045 87.0393 130.89 86.2927 130.89 85.4287C130.89 84.554 131.05 83.8127 131.37 83.2047C131.69 82.586 132.138 82.1167 132.714 81.7967C133.301 81.4767 133.983 81.3167 134.762 81.3167C135.274 81.3167 135.77 81.4073 136.25 81.5887C136.741 81.77 137.146 82.026 137.466 82.3567L137.002 83.2847C136.682 82.9753 136.33 82.746 135.946 82.5967C135.573 82.4473 135.205 82.3727 134.842 82.3727C134.01 82.3727 133.365 82.634 132.906 83.1567C132.447 83.6793 132.218 84.442 132.218 85.4447C132.218 86.4367 132.447 87.2047 132.906 87.7487C133.365 88.2927 134.01 88.5647 134.842 88.5647C135.194 88.5647 135.557 88.4953 135.93 88.3567C136.314 88.218 136.671 87.9887 137.002 87.6687L137.466 88.5807C137.135 88.922 136.725 89.1833 136.234 89.3647C135.743 89.546 135.253 89.6367 134.762 89.6367ZM142.156 89.6367C141.367 89.6367 140.764 89.4127 140.348 88.9647C139.932 88.506 139.724 87.818 139.724 86.9007V82.4687H138.156V81.4607H139.724V79.2687L141.02 78.9007V81.4607H143.324V82.4687H141.02V86.7567C141.02 87.3967 141.127 87.8553 141.34 88.1327C141.564 88.3993 141.895 88.5327 142.332 88.5327C142.535 88.5327 142.716 88.5167 142.876 88.4847C143.036 88.442 143.18 88.394 143.308 88.3407V89.4287C143.159 89.4927 142.977 89.5407 142.764 89.5727C142.561 89.6153 142.359 89.6367 142.156 89.6367ZM144.902 89.4927V81.4607H146.198V89.4927H144.902ZM144.742 79.6367V78.1807H146.342V79.6367H144.742ZM151.082 89.4927L147.642 81.4607H149.05L151.93 88.5327H151.498L154.41 81.4607H155.754L152.314 89.4927H151.082ZM160.673 89.6367C159.414 89.6367 158.422 89.274 157.697 88.5487C156.971 87.8127 156.609 86.794 156.609 85.4927C156.609 84.65 156.769 83.9193 157.089 83.3007C157.409 82.6713 157.857 82.186 158.433 81.8447C159.009 81.4927 159.67 81.3167 160.417 81.3167C161.153 81.3167 161.771 81.4713 162.273 81.7807C162.774 82.09 163.158 82.5327 163.425 83.1087C163.691 83.674 163.825 84.346 163.825 85.1247V85.6047H157.601V84.7887H162.977L162.705 84.9967C162.705 84.1433 162.513 83.4767 162.129 82.9967C161.745 82.5167 161.174 82.2767 160.417 82.2767C159.617 82.2767 158.993 82.5593 158.545 83.1247C158.097 83.6793 157.873 84.4313 157.873 85.3807V85.5247C157.873 86.5273 158.118 87.29 158.609 87.8127C159.11 88.3247 159.809 88.5807 160.705 88.5807C161.185 88.5807 161.633 88.5113 162.049 88.3727C162.475 88.2233 162.881 87.9833 163.265 87.6527L163.713 88.5647C163.361 88.906 162.913 89.1727 162.369 89.3647C161.835 89.546 161.27 89.6367 160.673 89.6367Z" fill="black"/>
<path d="M138.596 116.601C137.748 116.601 137.028 116.425 136.436 116.073C135.844 115.721 135.388 115.221 135.068 114.573C134.756 113.925 134.6 113.153 134.6 112.257C134.6 111.361 134.756 110.593 135.068 109.953C135.388 109.305 135.844 108.805 136.436 108.453C137.028 108.101 137.748 107.925 138.596 107.925C139.196 107.925 139.732 108.017 140.204 108.201C140.676 108.385 141.088 108.653 141.44 109.005L141.068 109.797C140.684 109.461 140.304 109.217 139.928 109.065C139.552 108.905 139.112 108.825 138.608 108.825C137.64 108.825 136.904 109.125 136.4 109.725C135.896 110.325 135.644 111.169 135.644 112.257C135.644 113.345 135.896 114.193 136.4 114.801C136.904 115.401 137.64 115.701 138.608 115.701C139.112 115.701 139.552 115.625 139.928 115.473C140.304 115.313 140.684 115.061 141.068 114.717L141.44 115.521C141.088 115.865 140.676 116.133 140.204 116.325C139.732 116.509 139.196 116.601 138.596 116.601ZM145.058 116.601C144.482 116.601 143.978 116.477 143.546 116.229C143.122 115.973 142.794 115.613 142.562 115.149C142.33 114.677 142.214 114.121 142.214 113.481C142.214 112.833 142.33 112.277 142.562 111.813C142.794 111.349 143.122 110.993 143.546 110.745C143.978 110.489 144.482 110.361 145.058 110.361C145.642 110.361 146.146 110.489 146.57 110.745C147.002 110.993 147.334 111.349 147.566 111.813C147.806 112.277 147.926 112.833 147.926 113.481C147.926 114.121 147.806 114.677 147.566 115.149C147.334 115.613 147.002 115.973 146.57 116.229C146.146 116.477 145.642 116.601 145.058 116.601ZM145.058 115.809C145.634 115.809 146.09 115.613 146.426 115.221C146.762 114.821 146.93 114.241 146.93 113.481C146.93 112.713 146.758 112.133 146.414 111.741C146.078 111.341 145.626 111.141 145.058 111.141C144.49 111.141 144.038 111.341 143.702 111.741C143.366 112.133 143.198 112.713 143.198 113.481C143.198 114.241 143.366 114.821 143.702 115.221C144.038 115.613 144.49 115.809 145.058 115.809ZM149.441 116.493V111.861C149.441 111.637 149.429 111.409 149.405 111.177C149.389 110.937 149.369 110.701 149.345 110.469H150.281L150.401 111.789H150.257C150.433 111.325 150.713 110.973 151.097 110.733C151.489 110.485 151.941 110.361 152.453 110.361C153.165 110.361 153.701 110.553 154.061 110.937C154.429 111.313 154.613 111.909 154.613 112.725V116.493H153.641V112.785C153.641 112.217 153.525 111.805 153.293 111.549C153.069 111.285 152.717 111.153 152.237 111.153C151.677 111.153 151.233 111.325 150.905 111.669C150.577 112.013 150.413 112.473 150.413 113.049V116.493H149.441ZM158.608 116.601C158.016 116.601 157.564 116.433 157.252 116.097C156.94 115.753 156.784 115.237 156.784 114.549V111.225H155.608V110.469H156.784V108.825L157.756 108.549V110.469H159.484V111.225H157.756V114.441C157.756 114.921 157.836 115.265 157.996 115.473C158.164 115.673 158.412 115.773 158.74 115.773C158.892 115.773 159.028 115.761 159.148 115.737C159.268 115.705 159.376 115.669 159.472 115.629V116.445C159.36 116.493 159.224 116.529 159.064 116.553C158.912 116.585 158.76 116.601 158.608 116.601ZM162.96 116.601C162.424 116.601 161.956 116.477 161.556 116.229C161.156 115.973 160.844 115.613 160.62 115.149C160.404 114.685 160.296 114.129 160.296 113.481C160.296 112.825 160.404 112.265 160.62 111.801C160.844 111.337 161.156 110.981 161.556 110.733C161.956 110.485 162.424 110.361 162.96 110.361C163.504 110.361 163.972 110.501 164.364 110.781C164.764 111.053 165.028 111.425 165.156 111.897H165.012L165.144 110.469H166.08C166.056 110.701 166.032 110.937 166.008 111.177C165.992 111.409 165.984 111.637 165.984 111.861V116.493H165.012V115.077H165.144C165.016 115.549 164.752 115.921 164.352 116.193C163.952 116.465 163.488 116.601 162.96 116.601ZM163.152 115.809C163.728 115.809 164.184 115.613 164.52 115.221C164.856 114.821 165.024 114.241 165.024 113.481C165.024 112.713 164.856 112.133 164.52 111.741C164.184 111.341 163.728 111.141 163.152 111.141C162.584 111.141 162.128 111.341 161.784 111.741C161.448 112.133 161.28 112.713 161.28 113.481C161.28 114.241 161.448 114.821 161.784 115.221C162.128 115.613 162.584 115.809 163.152 115.809ZM167.863 116.493V110.469H168.835V116.493H167.863ZM167.743 109.101V108.009H168.943V109.101H167.743ZM170.722 116.493V111.861C170.722 111.637 170.71 111.409 170.686 111.177C170.67 110.937 170.65 110.701 170.626 110.469H171.562L171.682 111.789H171.538C171.714 111.325 171.994 110.973 172.378 110.733C172.77 110.485 173.222 110.361 173.734 110.361C174.446 110.361 174.982 110.553 175.342 110.937C175.71 111.313 175.894 111.909 175.894 112.725V116.493H174.922V112.785C174.922 112.217 174.806 111.805 174.574 111.549C174.35 111.285 173.998 111.153 173.518 111.153C172.958 111.153 172.514 111.325 172.186 111.669C171.858 112.013 171.694 112.473 171.694 113.049V116.493H170.722ZM180.43 116.601C179.486 116.601 178.742 116.329 178.198 115.785C177.654 115.233 177.382 114.469 177.382 113.493C177.382 112.861 177.502 112.313 177.742 111.849C177.982 111.377 178.318 111.013 178.75 110.757C179.182 110.493 179.678 110.361 180.238 110.361C180.79 110.361 181.254 110.477 181.63 110.709C182.006 110.941 182.294 111.273 182.494 111.705C182.694 112.129 182.794 112.633 182.794 113.217V113.577H178.126V112.965H182.158L181.954 113.121C181.954 112.481 181.81 111.981 181.522 111.621C181.234 111.261 180.806 111.081 180.238 111.081C179.638 111.081 179.17 111.293 178.834 111.717C178.498 112.133 178.33 112.697 178.33 113.409V113.517C178.33 114.269 178.514 114.841 178.882 115.233C179.258 115.617 179.782 115.809 180.454 115.809C180.814 115.809 181.15 115.757 181.462 115.653C181.782 115.541 182.086 115.361 182.374 115.113L182.71 115.797C182.446 116.053 182.11 116.253 181.702 116.397C181.302 116.533 180.878 116.601 180.43 116.601ZM184.257 116.493V111.921C184.257 111.681 184.249 111.437 184.233 111.189C184.225 110.941 184.209 110.701 184.185 110.469H185.121L185.241 111.933L185.073 111.945C185.153 111.585 185.293 111.289 185.493 111.057C185.693 110.825 185.929 110.653 186.201 110.541C186.473 110.421 186.757 110.361 187.053 110.361C187.173 110.361 187.277 110.365 187.365 110.373C187.461 110.381 187.549 110.401 187.629 110.433L187.617 111.297C187.497 111.257 187.385 111.233 187.281 111.225C187.185 111.209 187.073 111.201 186.945 111.201C186.593 111.201 186.285 111.285 186.021 111.453C185.765 111.621 185.569 111.837 185.433 112.101C185.305 112.365 185.241 112.645 185.241 112.941V116.493H184.257ZM190.586 116.601C190.106 116.601 189.658 116.537 189.242 116.409C188.826 116.273 188.482 116.085 188.21 115.845L188.546 115.161C188.842 115.393 189.162 115.565 189.506 115.677C189.858 115.789 190.222 115.845 190.598 115.845C191.078 115.845 191.438 115.761 191.678 115.593C191.926 115.417 192.05 115.177 192.05 114.873C192.05 114.641 191.97 114.457 191.81 114.321C191.658 114.177 191.406 114.065 191.054 113.985L189.938 113.757C189.426 113.645 189.042 113.457 188.786 113.193C188.53 112.921 188.402 112.577 188.402 112.161C188.402 111.809 188.494 111.501 188.678 111.237C188.862 110.965 189.13 110.753 189.482 110.601C189.834 110.441 190.246 110.361 190.718 110.361C191.158 110.361 191.562 110.429 191.93 110.565C192.306 110.693 192.618 110.881 192.866 111.129L192.518 111.801C192.278 111.569 192.002 111.397 191.69 111.285C191.386 111.165 191.07 111.105 190.742 111.105C190.27 111.105 189.914 111.201 189.674 111.393C189.442 111.577 189.326 111.821 189.326 112.125C189.326 112.357 189.398 112.549 189.542 112.701C189.694 112.845 189.926 112.953 190.238 113.025L191.354 113.253C191.898 113.373 192.302 113.561 192.566 113.817C192.838 114.065 192.974 114.401 192.974 114.825C192.974 115.185 192.874 115.501 192.674 115.773C192.474 116.037 192.194 116.241 191.834 116.385C191.482 116.529 191.066 116.601 190.586 116.601Z" fill="black"/>
<path d="M81.5764 116.493L88.4164 103.653V104.553H80.9364V102.393H90.7964V104.313L84.3964 116.493H81.5764ZM93.5686 116.493L100.409 103.653V104.553H92.9286V102.393H102.789V104.313L96.3886 116.493H93.5686ZM106.061 116.493V114.353H109.301V104.553H110.541L106.381 107.033V104.593L110.041 102.393H111.881V114.353H114.921V116.493H106.061ZM121.833 116.693C120.18 116.693 118.906 116.066 118.013 114.813C117.12 113.546 116.673 111.746 116.673 109.413C116.673 107.053 117.12 105.259 118.013 104.033C118.906 102.806 120.18 102.193 121.833 102.193C123.5 102.193 124.773 102.806 125.653 104.033C126.546 105.259 126.993 107.046 126.993 109.393C126.993 111.739 126.546 113.546 125.653 114.813C124.773 116.066 123.5 116.693 121.833 116.693ZM121.833 114.573C122.74 114.573 123.413 114.159 123.853 113.333C124.293 112.493 124.513 111.179 124.513 109.393C124.513 107.606 124.293 106.313 123.853 105.513C123.413 104.699 122.74 104.293 121.833 104.293C120.94 104.293 120.266 104.699 119.813 105.513C119.373 106.313 119.153 107.606 119.153 109.393C119.153 111.179 119.373 112.493 119.813 113.333C120.266 114.159 120.94 114.573 121.833 114.573Z" fill="#0A9663"/>
<path d="M24.8564 286.993L55.0546 243.709C88.217 196.176 153.643 184.252 201.637 216.744V216.744C244.336 245.653 301.884 239.549 337.369 202.135L376.113 161.284C407.766 127.91 462.98 136.255 483.356 177.493V177.493" stroke="#344e52" stroke-width="2"/>
<g filter="url(#filter1_d_803_51674)">
<rect x="300.856" y="160.493" width="127" height="53" rx="8.57143" fill="white"/>
</g>
<path d="M312.576 181.35V173.293H315.25C316.142 173.293 316.896 173.449 317.513 173.761C318.13 174.066 318.599 174.519 318.919 175.121C319.239 175.716 319.399 176.447 319.399 177.316C319.399 178.177 319.239 178.908 318.919 179.51C318.599 180.112 318.13 180.569 317.513 180.881C316.896 181.194 316.142 181.35 315.25 181.35H312.576ZM313.525 180.538H315.182C316.279 180.538 317.094 180.272 317.627 179.738C318.161 179.197 318.427 178.39 318.427 177.316C318.427 176.234 318.161 175.426 317.627 174.893C317.094 174.359 316.279 174.093 315.182 174.093H313.525V180.538ZM323.56 181.453C322.661 181.453 321.952 181.194 321.434 180.676C320.916 180.15 320.657 179.422 320.657 178.493C320.657 177.891 320.771 177.369 321 176.927C321.228 176.477 321.548 176.131 321.96 175.887C322.371 175.636 322.843 175.51 323.377 175.51C323.903 175.51 324.344 175.62 324.703 175.841C325.061 176.062 325.335 176.378 325.525 176.79C325.716 177.194 325.811 177.674 325.811 178.23V178.573H321.365V177.99H325.205L325.011 178.138C325.011 177.529 324.874 177.053 324.6 176.71C324.325 176.367 323.918 176.196 323.377 176.196C322.805 176.196 322.36 176.397 322.04 176.801C321.72 177.197 321.56 177.735 321.56 178.413V178.516C321.56 179.232 321.735 179.777 322.085 180.15C322.443 180.516 322.943 180.698 323.583 180.698C323.925 180.698 324.245 180.649 324.543 180.55C324.847 180.443 325.137 180.272 325.411 180.036L325.731 180.687C325.48 180.931 325.16 181.121 324.771 181.258C324.39 181.388 323.986 181.453 323.56 181.453ZM327.228 181.35V172.938H328.153V181.35H327.228ZM332.134 181.453C331.623 181.453 331.178 181.335 330.797 181.098C330.416 180.855 330.118 180.512 329.905 180.07C329.699 179.628 329.597 179.098 329.597 178.481C329.597 177.857 329.699 177.323 329.905 176.881C330.118 176.439 330.416 176.1 330.797 175.864C331.178 175.628 331.623 175.51 332.134 175.51C332.652 175.51 333.098 175.643 333.471 175.91C333.852 176.169 334.103 176.523 334.225 176.973H334.088L334.214 175.613H335.105C335.082 175.834 335.059 176.058 335.037 176.287C335.021 176.508 335.014 176.725 335.014 176.938V181.35H334.088V180.001H334.214C334.092 180.451 333.84 180.805 333.459 181.064C333.078 181.323 332.637 181.453 332.134 181.453ZM332.317 180.698C332.865 180.698 333.299 180.512 333.619 180.138C333.939 179.757 334.099 179.205 334.099 178.481C334.099 177.75 333.939 177.197 333.619 176.824C333.299 176.443 332.865 176.253 332.317 176.253C331.776 176.253 331.341 176.443 331.014 176.824C330.694 177.197 330.534 177.75 330.534 178.481C330.534 179.205 330.694 179.757 331.014 180.138C331.341 180.512 331.776 180.698 332.317 180.698ZM336.519 183.944L336.302 183.178C336.66 183.095 336.957 182.996 337.193 182.881C337.437 182.775 337.639 182.63 337.799 182.447C337.959 182.264 338.096 182.036 338.211 181.761L338.508 181.087L338.485 181.476L335.982 175.613H336.988L339.056 180.653H338.759L340.805 175.613H341.776L339.125 181.83C338.972 182.196 338.805 182.5 338.622 182.744C338.439 182.996 338.241 183.197 338.028 183.35C337.822 183.51 337.593 183.636 337.342 183.727C337.091 183.818 336.816 183.891 336.519 183.944ZM345.29 181.453C344.391 181.453 343.682 181.194 343.164 180.676C342.646 180.15 342.387 179.422 342.387 178.493C342.387 177.891 342.501 177.369 342.73 176.927C342.958 176.477 343.278 176.131 343.69 175.887C344.101 175.636 344.573 175.51 345.107 175.51C345.632 175.51 346.074 175.62 346.432 175.841C346.791 176.062 347.065 176.378 347.255 176.79C347.446 177.194 347.541 177.674 347.541 178.23V178.573H343.095V177.99H346.935L346.741 178.138C346.741 177.529 346.604 177.053 346.33 176.71C346.055 176.367 345.648 176.196 345.107 176.196C344.535 176.196 344.09 176.397 343.77 176.801C343.45 177.197 343.29 177.735 343.29 178.413V178.516C343.29 179.232 343.465 179.777 343.815 180.15C344.173 180.516 344.672 180.698 345.312 180.698C345.655 180.698 345.975 180.649 346.272 180.55C346.577 180.443 346.867 180.272 347.141 180.036L347.461 180.687C347.21 180.931 346.89 181.121 346.501 181.258C346.12 181.388 345.716 181.453 345.29 181.453ZM351.129 181.453C350.626 181.453 350.184 181.335 349.803 181.098C349.422 180.855 349.125 180.512 348.912 180.07C348.706 179.628 348.603 179.098 348.603 178.481C348.603 177.857 348.706 177.323 348.912 176.881C349.125 176.439 349.422 176.1 349.803 175.864C350.184 175.628 350.626 175.51 351.129 175.51C351.647 175.51 352.093 175.639 352.466 175.898C352.847 176.157 353.102 176.508 353.232 176.95H353.095V172.938H354.02V181.35H353.106V179.978H353.232C353.11 180.436 352.858 180.797 352.478 181.064C352.097 181.323 351.647 181.453 351.129 181.453ZM351.323 180.698C351.864 180.698 352.298 180.512 352.626 180.138C352.954 179.757 353.118 179.205 353.118 178.481C353.118 177.75 352.954 177.197 352.626 176.824C352.298 176.443 351.864 176.253 351.323 176.253C350.782 176.253 350.348 176.443 350.02 176.824C349.7 177.197 349.54 177.75 349.54 178.481C349.54 179.205 349.7 179.757 350.02 180.138C350.348 180.512 350.782 180.698 351.323 180.698ZM361.202 181.453C360.638 181.453 360.146 181.331 359.727 181.087C359.316 180.843 358.996 180.497 358.767 180.047C358.546 179.597 358.436 179.064 358.436 178.447C358.436 177.822 358.55 177.293 358.779 176.858C359.007 176.417 359.327 176.081 359.739 175.853C360.158 175.624 360.645 175.51 361.202 175.51C361.567 175.51 361.922 175.575 362.264 175.704C362.615 175.834 362.904 176.017 363.133 176.253L362.802 176.916C362.573 176.695 362.322 176.531 362.047 176.424C361.781 176.317 361.518 176.264 361.259 176.264C360.664 176.264 360.203 176.451 359.876 176.824C359.548 177.197 359.384 177.742 359.384 178.458C359.384 179.167 359.548 179.716 359.876 180.104C360.203 180.493 360.664 180.687 361.259 180.687C361.51 180.687 361.769 180.637 362.036 180.538C362.31 180.439 362.565 180.276 362.802 180.047L363.133 180.698C362.897 180.942 362.603 181.129 362.253 181.258C361.903 181.388 361.552 181.453 361.202 181.453ZM366.691 181.453C366.143 181.453 365.663 181.335 365.251 181.098C364.847 180.855 364.535 180.512 364.314 180.07C364.093 179.62 363.983 179.091 363.983 178.481C363.983 177.864 364.093 177.335 364.314 176.893C364.535 176.451 364.847 176.112 365.251 175.876C365.663 175.632 366.143 175.51 366.691 175.51C367.247 175.51 367.727 175.632 368.131 175.876C368.543 176.112 368.859 176.451 369.08 176.893C369.308 177.335 369.423 177.864 369.423 178.481C369.423 179.091 369.308 179.62 369.08 180.07C368.859 180.512 368.543 180.855 368.131 181.098C367.727 181.335 367.247 181.453 366.691 181.453ZM366.691 180.698C367.24 180.698 367.674 180.512 367.994 180.138C368.314 179.757 368.474 179.205 368.474 178.481C368.474 177.75 368.31 177.197 367.983 176.824C367.663 176.443 367.232 176.253 366.691 176.253C366.15 176.253 365.72 176.443 365.4 176.824C365.08 177.197 364.92 177.75 364.92 178.481C364.92 179.205 365.08 179.757 365.4 180.138C365.72 180.512 366.15 180.698 366.691 180.698ZM370.866 181.35V176.938C370.866 176.725 370.855 176.508 370.832 176.287C370.817 176.058 370.797 175.834 370.775 175.613H371.666L371.78 176.87H371.643C371.811 176.428 372.077 176.093 372.443 175.864C372.817 175.628 373.247 175.51 373.735 175.51C374.413 175.51 374.923 175.693 375.266 176.058C375.617 176.417 375.792 176.984 375.792 177.761V181.35H374.866V177.818C374.866 177.277 374.756 176.885 374.535 176.641C374.321 176.39 373.986 176.264 373.529 176.264C372.996 176.264 372.573 176.428 372.26 176.756C371.948 177.083 371.792 177.521 371.792 178.07V181.35H370.866ZM379.597 181.453C379.033 181.453 378.602 181.293 378.305 180.973C378.008 180.645 377.86 180.154 377.86 179.498V176.333H376.74V175.613H377.86V174.047L378.785 173.784V175.613H380.431V176.333H378.785V179.396C378.785 179.853 378.862 180.18 379.014 180.378C379.174 180.569 379.41 180.664 379.722 180.664C379.867 180.664 379.997 180.653 380.111 180.63C380.225 180.599 380.328 180.565 380.42 180.527V181.304C380.313 181.35 380.183 181.384 380.031 181.407C379.886 181.437 379.742 181.453 379.597 181.453ZM383.741 181.453C383.23 181.453 382.785 181.335 382.404 181.098C382.023 180.855 381.726 180.512 381.512 180.07C381.307 179.628 381.204 179.098 381.204 178.481C381.204 177.857 381.307 177.323 381.512 176.881C381.726 176.439 382.023 176.1 382.404 175.864C382.785 175.628 383.23 175.51 383.741 175.51C384.259 175.51 384.705 175.643 385.078 175.91C385.459 176.169 385.71 176.523 385.832 176.973H385.695L385.821 175.613H386.712C386.689 175.834 386.667 176.058 386.644 176.287C386.628 176.508 386.621 176.725 386.621 176.938V181.35H385.695V180.001H385.821C385.699 180.451 385.448 180.805 385.067 181.064C384.686 181.323 384.244 181.453 383.741 181.453ZM383.924 180.698C384.472 180.698 384.907 180.512 385.227 180.138C385.547 179.757 385.707 179.205 385.707 178.481C385.707 177.75 385.547 177.197 385.227 176.824C384.907 176.443 384.472 176.253 383.924 176.253C383.383 176.253 382.948 176.443 382.621 176.824C382.301 177.197 382.141 177.75 382.141 178.481C382.141 179.205 382.301 179.757 382.621 180.138C382.948 180.512 383.383 180.698 383.924 180.698ZM388.411 181.35V175.613H389.336V181.35H388.411ZM388.296 174.31V173.27H389.439V174.31H388.296ZM391.134 181.35V176.938C391.134 176.725 391.122 176.508 391.1 176.287C391.084 176.058 391.065 175.834 391.042 175.613H391.934L392.048 176.87H391.911C392.079 176.428 392.345 176.093 392.711 175.864C393.084 175.628 393.515 175.51 394.002 175.51C394.681 175.51 395.191 175.693 395.534 176.058C395.884 176.417 396.06 176.984 396.06 177.761V181.35H395.134V177.818C395.134 177.277 395.023 176.885 394.802 176.641C394.589 176.39 394.254 176.264 393.797 176.264C393.263 176.264 392.841 176.428 392.528 176.756C392.216 177.083 392.06 177.521 392.06 178.07V181.35H391.134ZM400.379 181.453C399.48 181.453 398.771 181.194 398.253 180.676C397.735 180.15 397.476 179.422 397.476 178.493C397.476 177.891 397.59 177.369 397.819 176.927C398.047 176.477 398.367 176.131 398.779 175.887C399.19 175.636 399.663 175.51 400.196 175.51C400.722 175.51 401.164 175.62 401.522 175.841C401.88 176.062 402.154 176.378 402.345 176.79C402.535 177.194 402.63 177.674 402.63 178.23V178.573H398.185V177.99H402.025L401.83 178.138C401.83 177.529 401.693 177.053 401.419 176.71C401.145 176.367 400.737 176.196 400.196 176.196C399.625 176.196 399.179 176.397 398.859 176.801C398.539 177.197 398.379 177.735 398.379 178.413V178.516C398.379 179.232 398.554 179.777 398.905 180.15C399.263 180.516 399.762 180.698 400.402 180.698C400.745 180.698 401.065 180.649 401.362 180.55C401.667 180.443 401.956 180.272 402.23 180.036L402.55 180.687C402.299 180.931 401.979 181.121 401.59 181.258C401.209 181.388 400.806 181.453 400.379 181.453ZM404.024 181.35V176.996C404.024 176.767 404.016 176.535 404.001 176.298C403.993 176.062 403.978 175.834 403.955 175.613H404.847L404.961 177.007L404.801 177.018C404.877 176.676 405.011 176.394 405.201 176.173C405.392 175.952 405.616 175.788 405.875 175.681C406.134 175.567 406.405 175.51 406.687 175.51C406.801 175.51 406.9 175.514 406.984 175.521C407.075 175.529 407.159 175.548 407.235 175.578L407.224 176.401C407.11 176.363 407.003 176.34 406.904 176.333C406.813 176.317 406.706 176.31 406.584 176.31C406.249 176.31 405.955 176.39 405.704 176.55C405.46 176.71 405.273 176.916 405.144 177.167C405.022 177.418 404.961 177.685 404.961 177.967V181.35H404.024ZM410.051 181.453C409.594 181.453 409.168 181.392 408.771 181.27C408.375 181.14 408.048 180.961 407.789 180.733L408.109 180.081C408.39 180.302 408.695 180.466 409.023 180.573C409.358 180.679 409.705 180.733 410.063 180.733C410.52 180.733 410.863 180.653 411.091 180.493C411.328 180.325 411.446 180.097 411.446 179.807C411.446 179.586 411.369 179.411 411.217 179.281C411.072 179.144 410.832 179.037 410.497 178.961L409.434 178.744C408.947 178.637 408.581 178.458 408.337 178.207C408.093 177.948 407.971 177.62 407.971 177.224C407.971 176.889 408.059 176.596 408.234 176.344C408.409 176.085 408.665 175.883 409 175.738C409.335 175.586 409.728 175.51 410.177 175.51C410.596 175.51 410.981 175.575 411.331 175.704C411.689 175.826 411.987 176.005 412.223 176.241L411.891 176.881C411.663 176.66 411.4 176.497 411.103 176.39C410.813 176.276 410.512 176.218 410.2 176.218C409.75 176.218 409.411 176.31 409.183 176.493C408.962 176.668 408.851 176.9 408.851 177.19C408.851 177.411 408.92 177.594 409.057 177.738C409.202 177.876 409.423 177.978 409.72 178.047L410.783 178.264C411.301 178.378 411.686 178.557 411.937 178.801C412.196 179.037 412.326 179.357 412.326 179.761C412.326 180.104 412.23 180.405 412.04 180.664C411.849 180.916 411.583 181.11 411.24 181.247C410.905 181.384 410.509 181.453 410.051 181.453Z" fill="black"/>
<path d="M344.956 200.998C344.35 200.998 343.836 200.873 343.413 200.621C342.99 200.37 342.665 200.013 342.436 199.55C342.213 199.087 342.102 198.536 342.102 197.896C342.102 197.256 342.213 196.707 342.436 196.25C342.665 195.787 342.99 195.43 343.413 195.178C343.836 194.927 344.35 194.801 344.956 194.801C345.385 194.801 345.767 194.867 346.105 194.998C346.442 195.13 346.736 195.321 346.987 195.573L346.722 196.138C346.447 195.898 346.176 195.724 345.907 195.616C345.639 195.501 345.325 195.444 344.965 195.444C344.273 195.444 343.747 195.658 343.387 196.087C343.027 196.516 342.847 197.118 342.847 197.896C342.847 198.673 343.027 199.278 343.387 199.713C343.747 200.141 344.273 200.356 344.965 200.356C345.325 200.356 345.639 200.301 345.907 200.193C346.176 200.078 346.447 199.898 346.722 199.653L346.987 200.227C346.736 200.473 346.442 200.664 346.105 200.801C345.767 200.933 345.385 200.998 344.956 200.998ZM349.571 200.998C349.16 200.998 348.8 200.91 348.491 200.733C348.188 200.55 347.954 200.293 347.788 199.961C347.623 199.624 347.54 199.227 347.54 198.77C347.54 198.307 347.623 197.91 347.788 197.578C347.954 197.247 348.188 196.993 348.491 196.816C348.8 196.633 349.16 196.541 349.571 196.541C349.988 196.541 350.348 196.633 350.651 196.816C350.96 196.993 351.197 197.247 351.363 197.578C351.534 197.91 351.62 198.307 351.62 198.77C351.62 199.227 351.534 199.624 351.363 199.961C351.197 200.293 350.96 200.55 350.651 200.733C350.348 200.91 349.988 200.998 349.571 200.998ZM349.571 200.433C349.983 200.433 350.308 200.293 350.548 200.013C350.788 199.727 350.908 199.313 350.908 198.77C350.908 198.221 350.785 197.807 350.54 197.527C350.3 197.241 349.977 197.098 349.571 197.098C349.165 197.098 348.843 197.241 348.603 197.527C348.363 197.807 348.243 198.221 348.243 198.77C348.243 199.313 348.363 199.727 348.603 200.013C348.843 200.293 349.165 200.433 349.571 200.433ZM352.702 200.921V197.613C352.702 197.453 352.694 197.29 352.677 197.124C352.665 196.953 352.651 196.784 352.634 196.618H353.302L353.388 197.561H353.285C353.411 197.23 353.611 196.978 353.885 196.807C354.165 196.63 354.488 196.541 354.854 196.541C355.362 196.541 355.745 196.678 356.002 196.953C356.265 197.221 356.397 197.647 356.397 198.23V200.921H355.702V198.273C355.702 197.867 355.619 197.573 355.454 197.39C355.294 197.201 355.042 197.107 354.699 197.107C354.299 197.107 353.982 197.23 353.748 197.476C353.514 197.721 353.397 198.05 353.397 198.461V200.921H352.702ZM359.25 200.998C358.827 200.998 358.505 200.878 358.282 200.638C358.059 200.393 357.947 200.024 357.947 199.533V197.158H357.107V196.618H357.947V195.444L358.642 195.247V196.618H359.876V197.158H358.642V199.456C358.642 199.798 358.699 200.044 358.813 200.193C358.933 200.336 359.11 200.407 359.345 200.407C359.453 200.407 359.55 200.398 359.636 200.381C359.722 200.358 359.799 200.333 359.867 200.304V200.887C359.787 200.921 359.69 200.947 359.576 200.964C359.467 200.987 359.359 200.998 359.25 200.998ZM362.358 200.998C361.976 200.998 361.641 200.91 361.356 200.733C361.07 200.55 360.847 200.293 360.687 199.961C360.533 199.63 360.456 199.233 360.456 198.77C360.456 198.301 360.533 197.901 360.687 197.57C360.847 197.238 361.07 196.984 361.356 196.807C361.641 196.63 361.976 196.541 362.358 196.541C362.747 196.541 363.081 196.641 363.361 196.841C363.647 197.036 363.836 197.301 363.927 197.638H363.824L363.918 196.618H364.587C364.57 196.784 364.553 196.953 364.536 197.124C364.524 197.29 364.518 197.453 364.518 197.613V200.921H363.824V199.91H363.918C363.827 200.247 363.638 200.513 363.353 200.707C363.067 200.901 362.736 200.998 362.358 200.998ZM362.496 200.433C362.907 200.433 363.233 200.293 363.473 200.013C363.713 199.727 363.833 199.313 363.833 198.77C363.833 198.221 363.713 197.807 363.473 197.527C363.233 197.241 362.907 197.098 362.496 197.098C362.09 197.098 361.764 197.241 361.518 197.527C361.278 197.807 361.158 198.221 361.158 198.77C361.158 199.313 361.278 199.727 361.518 200.013C361.764 200.293 362.09 200.433 362.496 200.433ZM365.861 200.921V196.618H366.555V200.921H365.861ZM365.775 195.641V194.861H366.632V195.641H365.775ZM367.903 200.921V197.613C367.903 197.453 367.895 197.29 367.877 197.124C367.866 196.953 367.852 196.784 367.835 196.618H368.503L368.589 197.561H368.486C368.612 197.23 368.812 196.978 369.086 196.807C369.366 196.63 369.689 196.541 370.055 196.541C370.563 196.541 370.946 196.678 371.203 196.953C371.466 197.221 371.597 197.647 371.597 198.23V200.921H370.903V198.273C370.903 197.867 370.82 197.573 370.655 197.39C370.495 197.201 370.243 197.107 369.9 197.107C369.5 197.107 369.183 197.23 368.949 197.476C368.715 197.721 368.597 198.05 368.597 198.461V200.921H367.903ZM374.837 200.998C374.163 200.998 373.631 200.804 373.243 200.416C372.854 200.021 372.66 199.476 372.66 198.778C372.66 198.327 372.745 197.936 372.917 197.604C373.088 197.267 373.328 197.007 373.637 196.824C373.945 196.636 374.3 196.541 374.7 196.541C375.094 196.541 375.425 196.624 375.694 196.79C375.963 196.956 376.168 197.193 376.311 197.501C376.454 197.804 376.525 198.164 376.525 198.581V198.838H373.191V198.401H376.071L375.925 198.513C375.925 198.056 375.823 197.698 375.617 197.441C375.411 197.184 375.105 197.056 374.7 197.056C374.271 197.056 373.937 197.207 373.697 197.51C373.457 197.807 373.337 198.21 373.337 198.718V198.796C373.337 199.333 373.468 199.741 373.731 200.021C374 200.296 374.374 200.433 374.854 200.433C375.111 200.433 375.351 200.396 375.574 200.321C375.803 200.241 376.02 200.113 376.225 199.936L376.465 200.424C376.277 200.607 376.037 200.75 375.745 200.853C375.46 200.95 375.157 200.998 374.837 200.998ZM377.571 200.921V197.656C377.571 197.484 377.565 197.31 377.554 197.133C377.548 196.956 377.536 196.784 377.519 196.618H378.188L378.274 197.664L378.154 197.673C378.211 197.416 378.311 197.204 378.454 197.038C378.596 196.873 378.765 196.75 378.959 196.67C379.154 196.584 379.356 196.541 379.568 196.541C379.654 196.541 379.728 196.544 379.791 196.55C379.859 196.556 379.922 196.57 379.979 196.593L379.971 197.21C379.885 197.181 379.805 197.164 379.731 197.158C379.662 197.147 379.582 197.141 379.491 197.141C379.239 197.141 379.019 197.201 378.831 197.321C378.648 197.441 378.508 197.596 378.411 197.784C378.319 197.973 378.274 198.173 378.274 198.384V200.921H377.571ZM382.091 200.998C381.748 200.998 381.428 200.953 381.131 200.861C380.834 200.764 380.588 200.63 380.394 200.458L380.634 199.97C380.846 200.136 381.074 200.258 381.32 200.338C381.571 200.418 381.831 200.458 382.1 200.458C382.443 200.458 382.7 200.398 382.871 200.278C383.048 200.153 383.137 199.981 383.137 199.764C383.137 199.598 383.08 199.467 382.966 199.37C382.857 199.267 382.677 199.187 382.426 199.13L381.628 198.967C381.263 198.887 380.988 198.753 380.806 198.564C380.623 198.37 380.531 198.124 380.531 197.827C380.531 197.576 380.597 197.356 380.728 197.167C380.86 196.973 381.051 196.821 381.303 196.713C381.554 196.598 381.848 196.541 382.186 196.541C382.5 196.541 382.788 196.59 383.051 196.687C383.32 196.778 383.543 196.913 383.72 197.09L383.471 197.57C383.3 197.404 383.103 197.281 382.88 197.201C382.663 197.116 382.437 197.073 382.203 197.073C381.866 197.073 381.611 197.141 381.44 197.278C381.274 197.41 381.191 197.584 381.191 197.801C381.191 197.967 381.243 198.104 381.346 198.213C381.454 198.316 381.62 198.393 381.843 198.444L382.64 198.607C383.028 198.693 383.317 198.827 383.506 199.01C383.7 199.187 383.797 199.427 383.797 199.73C383.797 199.987 383.726 200.213 383.583 200.407C383.44 200.596 383.24 200.741 382.983 200.844C382.731 200.947 382.434 200.998 382.091 200.998Z" fill="black"/>
<path d="M315.699 200.35C315.004 200.35 314.337 200.25 313.699 200.05C313.061 199.84 312.537 199.555 312.127 199.193L312.727 197.807C313.175 198.15 313.637 198.402 314.113 198.564C314.599 198.726 315.108 198.807 315.642 198.807C316.289 198.807 316.78 198.678 317.113 198.421C317.447 198.164 317.613 197.788 317.613 197.293C317.613 196.817 317.447 196.459 317.113 196.221C316.789 195.974 316.313 195.85 315.685 195.85H314.056V194.378H315.527C316.07 194.378 316.504 194.245 316.827 193.978C317.151 193.712 317.313 193.345 317.313 192.878C317.313 192.44 317.161 192.107 316.856 191.878C316.561 191.65 316.132 191.536 315.57 191.536C314.561 191.536 313.67 191.878 312.899 192.564L312.299 191.193C312.708 190.812 313.213 190.517 313.813 190.307C314.423 190.097 315.061 189.993 315.727 189.993C316.775 189.993 317.594 190.231 318.185 190.707C318.785 191.174 319.085 191.826 319.085 192.664C319.085 193.264 318.913 193.783 318.57 194.221C318.237 194.65 317.775 194.936 317.185 195.078V194.907C317.88 195.021 318.418 195.307 318.799 195.764C319.189 196.212 319.385 196.774 319.385 197.45C319.385 198.345 319.056 199.055 318.399 199.578C317.742 200.093 316.842 200.35 315.699 200.35ZM321.722 200.207V198.678H324.036V191.678H324.922L321.95 193.45V191.707L324.565 190.136H325.879V198.678H328.05V200.207H321.722ZM329.816 200.207V198.85L333.159 195.364C333.578 194.926 333.888 194.521 334.088 194.15C334.288 193.778 334.388 193.397 334.388 193.007C334.388 192.521 334.235 192.155 333.931 191.907C333.626 191.659 333.183 191.536 332.602 191.536C332.135 191.536 331.688 191.621 331.259 191.793C330.831 191.955 330.412 192.212 330.002 192.564L329.402 191.193C329.812 190.831 330.316 190.54 330.916 190.321C331.526 190.102 332.164 189.993 332.831 189.993C333.916 189.993 334.75 190.236 335.331 190.721C335.912 191.207 336.202 191.902 336.202 192.807C336.202 193.436 336.054 194.036 335.759 194.607C335.464 195.169 335.007 195.759 334.388 196.378L331.602 199.164V198.678H336.602V200.207H329.816Z" fill="#E40000"/>
<defs>
<filter id="filter0_d_803_51674" x="0.856445" y="0.492676" width="282" height="202" filterUnits="userSpaceOnUse" color-interpolation-filters="sRGB">
<feFlood flood-opacity="0" result="BackgroundImageFix"/>
<feColorMatrix in="SourceAlpha" type="matrix" values="0 0 0 0 0 0 0 0 0 0 0 0 0 0 0 0 0 0 127 0" result="hardAlpha"/>
<feOffset dy="4"/>
<feGaussianBlur stdDeviation="32"/>
<feComposite in2="hardAlpha" operator="out"/>
<feColorMatrix type="matrix" values="0 0 0 0 0.203194 0 0 0 0 0.2882 0 0 0 0 0.366667 0 0 0 0.16 0"/>
<feBlend mode="normal" in2="BackgroundImageFix" result="effect1_dropShadow_803_51674"/>
<feBlend mode="normal" in="SourceGraphic" in2="effect1_dropShadow_803_51674" result="shape"/>
</filter>
<filter id="filter1_d_803_51674" x="255.142" y="117.636" width="218.429" height="144.429" filterUnits="userSpaceOnUse" color-interpolation-filters="sRGB">
<feFlood flood-opacity="0" result="BackgroundImageFix"/>
<feColorMatrix in="SourceAlpha" type="matrix" values="0 0 0 0 0 0 0 0 0 0 0 0 0 0 0 0 0 0 127 0" result="hardAlpha"/>
<feOffset dy="2.85714"/>
<feGaussianBlur stdDeviation="22.8571"/>
<feComposite in2="hardAlpha" operator="out"/>
<feColorMatrix type="matrix" values="0 0 0 0 0.203194 0 0 0 0 0.2882 0 0 0 0 0.366667 0 0 0 0.16 0"/>
<feBlend mode="normal" in2="BackgroundImageFix" result="effect1_dropShadow_803_51674"/>
<feBlend mode="normal" in="SourceGraphic" in2="effect1_dropShadow_803_51674" result="shape"/>
</filter>
<linearGradient id="paint0_linear_803_51674" x1="49.8564" y1="174.493" x2="49.8564" y2="291.493" gradientUnits="userSpaceOnUse">
<stop stop-color="#82c232"/>
<stop offset="0.494792" stop-color="#82c232" stop-opacity="0.26"/>
<stop offset="1" stop-color="#82c232" stop-opacity="0"/>
</linearGradient>
<linearGradient id="paint1_linear_803_51674" x1="127.856" y1="122.493" x2="127.856" y2="291.493" gradientUnits="userSpaceOnUse">
<stop stop-color="#82c232"/>
<stop offset="0.494792" stop-color="#82c232" stop-opacity="0.26"/>
<stop offset="1" stop-color="#82c232" stop-opacity="0"/>
</linearGradient>
<linearGradient id="paint2_linear_803_51674" x1="206.856" y1="157.493" x2="206.856" y2="291.493" gradientUnits="userSpaceOnUse">
<stop stop-color="#82c232"/>
<stop offset="0.494792" stop-color="#82c232" stop-opacity="0.26"/>
<stop offset="1" stop-color="#82c232" stop-opacity="0"/>
</linearGradient>
<linearGradient id="paint3_linear_803_51674" x1="286.356" y1="85.4927" x2="286.356" y2="291.493" gradientUnits="userSpaceOnUse">
<stop stop-color="#82c232"/>
<stop offset="0.494792" stop-color="#82c232" stop-opacity="0.26"/>
<stop offset="1" stop-color="#82c232" stop-opacity="0"/>
</linearGradient>
<linearGradient id="paint4_linear_803_51674" x1="364.856" y1="220.493" x2="364.856" y2="291.493" gradientUnits="userSpaceOnUse">
<stop stop-color="#82c232"/>
<stop offset="0.494792" stop-color="#82c232" stop-opacity="0.26"/>
<stop offset="1" stop-color="#82c232" stop-opacity="0"/>
</linearGradient>
<linearGradient id="paint5_linear_803_51674" x1="442.856" y1="130.493" x2="442.856" y2="291.493" gradientUnits="userSpaceOnUse">
<stop stop-color="#82c232"/>
<stop offset="0.494792" stop-color="#82c232" stop-opacity="0.26"/>
<stop offset="1" stop-color="#82c232" stop-opacity="0"/>
</linearGradient>
</defs>
</svg>
