<svg width="348" height="348" viewBox="0 0 348 348" fill="none" xmlns="http://www.w3.org/2000/svg">
<circle opacity="0.6" cx="174" cy="174" r="67.5" stroke="#82c232" stroke-dasharray="14 14"/>
<circle opacity="0.2" cx="174" cy="174" r="38.5" stroke="#82c232" stroke-dasharray="14 14"/>
<circle opacity="0.4" cx="174" cy="174" r="89.5" transform="rotate(21.9905 174 174)" stroke="#82c232" stroke-dasharray="28 28"/>
<circle opacity="0.12" cx="174" cy="174" r="133.5" stroke="#82c232" stroke-dasharray="18 18"/>
<circle opacity="0.2" cx="174" cy="174" r="58.5" stroke="#82c232"/>
<circle opacity="0.16" cx="174" cy="174" r="109.5" stroke="#82c232"/>
<circle opacity="0.06" cx="174" cy="174" r="173.5" stroke="#82c232"/>
<rect x="24" y="148" width="299" height="52" rx="26" fill="#E40000"/>
<g clip-path="url(#clip0_803_51768)">
<path d="M50.2805 186.226C56.8778 186.226 62.226 180.877 62.226 174.28C62.226 167.683 56.8778 162.335 50.2805 162.335C43.6831 162.335 38.335 167.683 38.335 174.28C38.3421 180.875 43.6861 186.218 50.2805 186.226ZM49.285 168.307C49.285 167.758 49.7307 167.312 50.2805 167.312C50.8302 167.312 51.2759 167.758 51.2759 168.307V176.271C51.2759 176.821 50.8302 177.266 50.2805 177.266C49.7307 177.266 49.285 176.821 49.285 176.271V168.307V168.307ZM50.2805 180.253C50.8302 180.253 51.2759 180.699 51.2759 181.248C51.2759 181.798 50.8302 182.244 50.2805 182.244C49.7307 182.244 49.285 181.798 49.285 181.248C49.285 180.699 49.7307 180.253 50.2805 180.253Z" fill="white"/>
</g>
<path d="M78.5708 180.529V178.221H73.3029V176.716L78.9053 168.739H80.6446V176.582H82.3337V178.221H80.6446V180.529H78.5708ZM78.5708 176.582V171.281H78.9722L74.9083 177.084V176.582H78.5708ZM92.2512 180.696C91.3816 180.696 90.6179 180.518 89.9601 180.161C89.3134 179.805 88.8117 179.297 88.4549 178.639C88.0982 177.97 87.9198 177.179 87.9198 176.265C87.9198 175.35 88.0982 174.57 88.4549 173.923C88.8229 173.277 89.3301 172.781 89.9768 172.435C90.6234 172.089 91.3816 171.916 92.2512 171.916C92.8087 171.916 93.3494 172.006 93.8734 172.184C94.4086 172.351 94.8434 172.597 95.1779 172.92L94.5424 174.375C94.2413 174.096 93.9013 173.89 93.5222 173.756C93.1543 173.611 92.792 173.539 92.4352 173.539C91.6882 173.539 91.1029 173.773 90.6792 174.241C90.2667 174.709 90.0604 175.389 90.0604 176.281C90.0604 177.173 90.2667 177.859 90.6792 178.338C91.1029 178.818 91.6882 179.058 92.4352 179.058C92.7808 179.058 93.1376 178.991 93.5055 178.857C93.8846 178.723 94.2302 178.517 94.5424 178.238L95.1779 179.676C94.8323 180 94.3919 180.25 93.8567 180.429C93.3327 180.607 92.7975 180.696 92.2512 180.696ZM100.448 180.696C99.5786 180.696 98.826 180.518 98.1905 180.161C97.555 179.805 97.0589 179.297 96.7021 178.639C96.3565 177.982 96.1836 177.201 96.1836 176.298C96.1836 175.395 96.3565 174.62 96.7021 173.974C97.0589 173.316 97.555 172.808 98.1905 172.452C98.826 172.095 99.5786 171.916 100.448 171.916C101.318 171.916 102.07 172.095 102.706 172.452C103.353 172.808 103.849 173.316 104.194 173.974C104.551 174.62 104.729 175.395 104.729 176.298C104.729 177.201 104.551 177.982 104.194 178.639C103.849 179.297 103.353 179.805 102.706 180.161C102.07 180.518 101.318 180.696 100.448 180.696ZM100.448 179.091C101.106 179.091 101.63 178.862 102.02 178.405C102.41 177.937 102.606 177.235 102.606 176.298C102.606 175.362 102.41 174.665 102.02 174.208C101.63 173.751 101.106 173.522 100.448 173.522C99.7904 173.522 99.2664 173.751 98.8762 174.208C98.4859 174.665 98.2908 175.362 98.2908 176.298C98.2908 177.235 98.4859 177.937 98.8762 178.405C99.2664 178.862 99.7904 179.091 100.448 179.091ZM106.532 180.529V174.191C106.532 173.845 106.521 173.494 106.499 173.137C106.476 172.781 106.443 172.429 106.398 172.084H108.422L108.589 173.756H108.389C108.656 173.165 109.052 172.714 109.576 172.401C110.1 172.078 110.708 171.916 111.399 171.916C112.391 171.916 113.138 172.195 113.64 172.753C114.142 173.31 114.392 174.18 114.392 175.362V180.529H112.302V175.462C112.302 174.782 112.168 174.297 111.901 174.007C111.644 173.706 111.254 173.555 110.73 173.555C110.083 173.555 109.57 173.756 109.191 174.157C108.812 174.559 108.623 175.094 108.623 175.763V180.529H106.532ZM120.221 180.696C119.218 180.696 118.46 180.434 117.947 179.91C117.434 179.386 117.178 178.6 117.178 177.552V173.656H115.555V172.084H117.178V169.926L119.268 169.391V172.084H121.526V173.656H119.268V177.419C119.268 177.998 119.379 178.405 119.602 178.639C119.825 178.874 120.132 178.991 120.522 178.991C120.734 178.991 120.912 178.974 121.057 178.94C121.214 178.907 121.364 178.862 121.509 178.807V180.462C121.319 180.54 121.108 180.596 120.873 180.63C120.65 180.674 120.433 180.696 120.221 180.696ZM126.207 180.696C125.471 180.696 124.824 180.524 124.267 180.178C123.709 179.821 123.275 179.314 122.962 178.656C122.65 177.998 122.494 177.212 122.494 176.298C122.494 175.384 122.65 174.603 122.962 173.957C123.275 173.299 123.709 172.797 124.267 172.452C124.824 172.095 125.471 171.916 126.207 171.916C126.92 171.916 127.545 172.095 128.08 172.452C128.626 172.797 128.988 173.266 129.167 173.856H128.983L129.167 172.084H131.174C131.14 172.429 131.107 172.781 131.073 173.137C131.051 173.494 131.04 173.845 131.04 174.191V180.529H128.966L128.949 178.79H129.15C128.972 179.37 128.609 179.832 128.063 180.178C127.517 180.524 126.898 180.696 126.207 180.696ZM126.792 179.091C127.45 179.091 127.979 178.862 128.381 178.405C128.782 177.937 128.983 177.235 128.983 176.298C128.983 175.362 128.782 174.665 128.381 174.208C127.979 173.751 127.45 173.522 126.792 173.522C126.134 173.522 125.605 173.751 125.203 174.208C124.802 174.665 124.601 175.362 124.601 176.298C124.601 177.235 124.796 177.937 125.187 178.405C125.588 178.862 126.123 179.091 126.792 179.091ZM133.316 180.529V172.084H135.407V180.529H133.316ZM133.199 170.495V168.455H135.524V170.495H133.199ZM137.677 180.529V174.191C137.677 173.845 137.666 173.494 137.643 173.137C137.621 172.781 137.588 172.429 137.543 172.084H139.567L139.734 173.756H139.533C139.801 173.165 140.197 172.714 140.721 172.401C141.245 172.078 141.852 171.916 142.543 171.916C143.536 171.916 144.283 172.195 144.784 172.753C145.286 173.31 145.537 174.18 145.537 175.362V180.529H143.447V175.462C143.447 174.782 143.313 174.297 143.045 174.007C142.789 173.706 142.399 173.555 141.875 173.555C141.228 173.555 140.715 173.756 140.336 174.157C139.957 174.559 139.767 175.094 139.767 175.763V180.529H137.677ZM151.834 180.696C150.418 180.696 149.309 180.306 148.506 179.526C147.703 178.745 147.302 177.675 147.302 176.315C147.302 175.434 147.475 174.665 147.82 174.007C148.166 173.349 148.646 172.836 149.259 172.468C149.883 172.1 150.608 171.916 151.433 171.916C152.247 171.916 152.927 172.089 153.473 172.435C154.019 172.781 154.432 173.266 154.711 173.89C155.001 174.514 155.145 175.245 155.145 176.081V176.633H148.991V175.529H153.657L153.373 175.763C153.373 174.983 153.206 174.386 152.871 173.974C152.548 173.561 152.074 173.355 151.45 173.355C150.758 173.355 150.223 173.6 149.844 174.091C149.476 174.581 149.292 175.267 149.292 176.148V176.365C149.292 177.279 149.515 177.965 149.961 178.422C150.418 178.868 151.059 179.091 151.884 179.091C152.364 179.091 152.81 179.03 153.222 178.907C153.646 178.773 154.047 178.561 154.426 178.272L155.045 179.676C154.644 180 154.164 180.25 153.607 180.429C153.049 180.607 152.459 180.696 151.834 180.696ZM156.899 180.529V174.241C156.899 173.884 156.888 173.522 156.866 173.154C156.854 172.786 156.827 172.429 156.782 172.084H158.805L159.04 174.392H158.705C158.817 173.834 159.001 173.371 159.257 173.004C159.525 172.636 159.848 172.362 160.227 172.184C160.606 172.006 161.019 171.916 161.465 171.916C161.665 171.916 161.827 171.928 161.95 171.95C162.072 171.961 162.195 171.989 162.317 172.034L162.301 173.873C162.089 173.784 161.905 173.728 161.749 173.706C161.604 173.684 161.42 173.672 161.197 173.672C160.718 173.672 160.311 173.773 159.976 173.974C159.653 174.174 159.408 174.453 159.24 174.81C159.084 175.166 159.006 175.573 159.006 176.031V180.529H156.899ZM166.41 180.696C165.685 180.696 165.016 180.613 164.403 180.446C163.801 180.267 163.293 180.022 162.881 179.71L163.466 178.305C163.89 178.595 164.358 178.818 164.871 178.974C165.384 179.13 165.902 179.208 166.426 179.208C166.984 179.208 167.396 179.113 167.664 178.924C167.943 178.734 168.082 178.478 168.082 178.154C168.082 177.898 167.993 177.697 167.814 177.552C167.647 177.396 167.374 177.279 166.995 177.201L165.323 176.883C164.609 176.727 164.063 176.46 163.684 176.081C163.316 175.702 163.132 175.205 163.132 174.592C163.132 174.068 163.271 173.606 163.55 173.204C163.84 172.803 164.247 172.491 164.771 172.268C165.306 172.034 165.93 171.916 166.644 171.916C167.268 171.916 167.853 172 168.4 172.167C168.957 172.335 169.426 172.585 169.805 172.92L169.203 174.275C168.857 173.996 168.461 173.778 168.015 173.622C167.569 173.466 167.134 173.388 166.711 173.388C166.131 173.388 165.707 173.494 165.44 173.706C165.172 173.907 165.038 174.169 165.038 174.492C165.038 174.737 165.116 174.943 165.272 175.111C165.44 175.267 165.696 175.384 166.042 175.462L167.714 175.78C168.461 175.925 169.024 176.181 169.403 176.549C169.793 176.906 169.989 177.396 169.989 178.021C169.989 178.578 169.838 179.058 169.537 179.459C169.236 179.86 168.818 180.167 168.283 180.379C167.748 180.591 167.123 180.696 166.41 180.696ZM176.367 180.529V168.221H178.457V180.529H176.367ZM180.727 180.529V172.084H182.818V180.529H180.727ZM180.61 170.495V168.455H182.935V170.495H180.61ZM185.088 180.529V168.221H187.178V175.679H187.212L190.64 172.084H193.166L188.901 176.549L188.918 175.713L193.467 180.529H190.874L187.212 176.75H187.178V180.529H185.088ZM198.233 180.696C196.817 180.696 195.707 180.306 194.905 179.526C194.102 178.745 193.701 177.675 193.701 176.315C193.701 175.434 193.873 174.665 194.219 174.007C194.565 173.349 195.044 172.836 195.657 172.468C196.282 172.1 197.006 171.916 197.831 171.916C198.645 171.916 199.325 172.089 199.872 172.435C200.418 172.781 200.83 173.266 201.109 173.89C201.399 174.514 201.544 175.245 201.544 176.081V176.633H195.39V175.529H200.056L199.771 175.763C199.771 174.983 199.604 174.386 199.27 173.974C198.946 173.561 198.472 173.355 197.848 173.355C197.157 173.355 196.622 173.6 196.243 174.091C195.875 174.581 195.691 175.267 195.691 176.148V176.365C195.691 177.279 195.914 177.965 196.36 178.422C196.817 178.868 197.458 179.091 198.283 179.091C198.762 179.091 199.208 179.03 199.621 178.907C200.044 178.773 200.446 178.561 200.825 178.272L201.444 179.676C201.042 180 200.563 180.25 200.005 180.429C199.448 180.607 198.857 180.696 198.233 180.696ZM203.314 180.529V168.221H205.405V180.529H203.314ZM207.508 184.325L207.023 182.67C207.547 182.558 207.987 182.43 208.344 182.285C208.701 182.14 208.996 181.951 209.23 181.717C209.464 181.482 209.659 181.181 209.815 180.814L210.234 179.827L210.183 180.646L206.504 172.084H208.728L211.371 178.673H210.886L213.545 172.084H215.652L211.806 180.997C211.549 181.6 211.27 182.096 210.969 182.486C210.668 182.887 210.345 183.205 209.999 183.439C209.654 183.684 209.275 183.874 208.862 184.008C208.45 184.142 207.998 184.247 207.508 184.325ZM221.328 180.529V174.241C221.328 173.884 221.317 173.522 221.294 173.154C221.283 172.786 221.255 172.429 221.211 172.084H223.234L223.468 174.392H223.134C223.245 173.834 223.429 173.371 223.686 173.004C223.953 172.636 224.277 172.362 224.656 172.184C225.035 172.006 225.447 171.916 225.893 171.916C226.094 171.916 226.256 171.928 226.378 171.95C226.501 171.961 226.624 171.989 226.746 172.034L226.73 173.873C226.518 173.784 226.334 173.728 226.178 173.706C226.033 173.684 225.849 173.672 225.626 173.672C225.146 173.672 224.739 173.773 224.405 173.974C224.082 174.174 223.836 174.453 223.669 174.81C223.513 175.166 223.435 175.573 223.435 176.031V180.529H221.328ZM231.592 180.696C230.723 180.696 229.97 180.518 229.334 180.161C228.699 179.805 228.203 179.297 227.846 178.639C227.5 177.982 227.328 177.201 227.328 176.298C227.328 175.395 227.5 174.62 227.846 173.974C228.203 173.316 228.699 172.808 229.334 172.452C229.97 172.095 230.723 171.916 231.592 171.916C232.462 171.916 233.214 172.095 233.85 172.452C234.497 172.808 234.993 173.316 235.338 173.974C235.695 174.62 235.873 175.395 235.873 176.298C235.873 177.201 235.695 177.982 235.338 178.639C234.993 179.297 234.497 179.805 233.85 180.161C233.214 180.518 232.462 180.696 231.592 180.696ZM231.592 179.091C232.25 179.091 232.774 178.862 233.164 178.405C233.554 177.937 233.75 177.235 233.75 176.298C233.75 175.362 233.554 174.665 233.164 174.208C232.774 173.751 232.25 173.522 231.592 173.522C230.934 173.522 230.41 173.751 230.02 174.208C229.63 174.665 229.435 175.362 229.435 176.298C229.435 177.235 229.63 177.937 230.02 178.405C230.41 178.862 230.934 179.091 231.592 179.091ZM237.676 180.529V168.221H239.767V180.529H237.676ZM242.037 180.529V168.221H244.127V180.529H242.037ZM250.478 180.696C249.062 180.696 247.953 180.306 247.15 179.526C246.347 178.745 245.946 177.675 245.946 176.315C245.946 175.434 246.119 174.665 246.464 174.007C246.81 173.349 247.289 172.836 247.903 172.468C248.527 172.1 249.252 171.916 250.077 171.916C250.89 171.916 251.571 172.089 252.117 172.435C252.663 172.781 253.076 173.266 253.354 173.89C253.644 174.514 253.789 175.245 253.789 176.081V176.633H247.635V175.529H252.301L252.017 175.763C252.017 174.983 251.849 174.386 251.515 173.974C251.192 173.561 250.718 173.355 250.093 173.355C249.402 173.355 248.867 173.6 248.488 174.091C248.12 174.581 247.936 175.267 247.936 176.148V176.365C247.936 177.279 248.159 177.965 248.605 178.422C249.062 178.868 249.703 179.091 250.528 179.091C251.008 179.091 251.454 179.03 251.866 178.907C252.29 178.773 252.691 178.561 253.07 178.272L253.689 179.676C253.288 180 252.808 180.25 252.251 180.429C251.693 180.607 251.102 180.696 250.478 180.696ZM258.837 180.696C258.102 180.696 257.449 180.524 256.881 180.178C256.323 179.821 255.888 179.314 255.576 178.656C255.264 177.998 255.108 177.212 255.108 176.298C255.108 175.384 255.264 174.603 255.576 173.957C255.888 173.299 256.323 172.797 256.881 172.452C257.449 172.095 258.102 171.916 258.837 171.916C259.54 171.916 260.159 172.089 260.694 172.435C261.24 172.769 261.602 173.227 261.781 173.806H261.563V168.221H263.654V180.529H261.597V178.74H261.797C261.619 179.342 261.257 179.821 260.71 180.178C260.175 180.524 259.551 180.696 258.837 180.696ZM259.423 179.091C260.08 179.091 260.61 178.862 261.011 178.405C261.413 177.937 261.613 177.235 261.613 176.298C261.613 175.362 261.413 174.665 261.011 174.208C260.61 173.751 260.08 173.522 259.423 173.522C258.765 173.522 258.23 173.751 257.817 174.208C257.416 174.665 257.215 175.362 257.215 176.298C257.215 177.235 257.416 177.937 257.817 178.405C258.23 178.862 258.765 179.091 259.423 179.091ZM274.332 180.696C273.463 180.696 272.71 180.518 272.075 180.161C271.439 179.805 270.943 179.297 270.586 178.639C270.241 177.982 270.068 177.201 270.068 176.298C270.068 175.395 270.241 174.62 270.586 173.974C270.943 173.316 271.439 172.808 272.075 172.452C272.71 172.095 273.463 171.916 274.332 171.916C275.202 171.916 275.955 172.095 276.59 172.452C277.237 172.808 277.733 173.316 278.079 173.974C278.435 174.62 278.614 175.395 278.614 176.298C278.614 177.201 278.435 177.982 278.079 178.639C277.733 179.297 277.237 179.805 276.59 180.161C275.955 180.518 275.202 180.696 274.332 180.696ZM274.332 179.091C274.99 179.091 275.514 178.862 275.904 178.405C276.295 177.937 276.49 177.235 276.49 176.298C276.49 175.362 276.295 174.665 275.904 174.208C275.514 173.751 274.99 173.522 274.332 173.522C273.675 173.522 273.151 173.751 272.76 174.208C272.37 174.665 272.175 175.362 272.175 176.298C272.175 177.235 272.37 177.937 272.76 178.405C273.151 178.862 273.675 179.091 274.332 179.091ZM282.728 180.529L279.082 172.084H281.307L283.949 178.69H283.431L286.14 172.084H288.23L284.568 180.529H282.728ZM293.267 180.696C291.851 180.696 290.742 180.306 289.939 179.526C289.136 178.745 288.735 177.675 288.735 176.315C288.735 175.434 288.908 174.665 289.253 174.007C289.599 173.349 290.079 172.836 290.692 172.468C291.316 172.1 292.041 171.916 292.866 171.916C293.68 171.916 294.36 172.089 294.906 172.435C295.452 172.781 295.865 173.266 296.144 173.89C296.434 174.514 296.578 175.245 296.578 176.081V176.633H290.424V175.529H295.09L294.806 175.763C294.806 174.983 294.639 174.386 294.304 173.974C293.981 173.561 293.507 173.355 292.883 173.355C292.191 173.355 291.656 173.6 291.277 174.091C290.909 174.581 290.725 175.267 290.725 176.148V176.365C290.725 177.279 290.948 177.965 291.394 178.422C291.851 178.868 292.492 179.091 293.317 179.091C293.797 179.091 294.243 179.03 294.655 178.907C295.079 178.773 295.48 178.561 295.859 178.272L296.478 179.676C296.077 180 295.597 180.25 295.04 180.429C294.482 180.607 293.892 180.696 293.267 180.696ZM298.332 180.529V174.241C298.332 173.884 298.321 173.522 298.299 173.154C298.287 172.786 298.259 172.429 298.215 172.084H300.238L300.473 174.392H300.138C300.25 173.834 300.434 173.371 300.69 173.004C300.958 172.636 301.281 172.362 301.66 172.184C302.039 172.006 302.452 171.916 302.898 171.916C303.098 171.916 303.26 171.928 303.383 171.95C303.505 171.961 303.628 171.989 303.75 172.034L303.734 173.873C303.522 173.784 303.338 173.728 303.182 173.706C303.037 173.684 302.853 173.672 302.63 173.672C302.151 173.672 301.744 173.773 301.409 173.974C301.086 174.174 300.841 174.453 300.673 174.81C300.517 175.166 300.439 175.573 300.439 176.031V180.529H298.332Z" fill="white"/>
<defs>
<clipPath id="clip0_803_51768">
<rect width="23.891" height="23.891" fill="white" transform="translate(38.335 162.335)"/>
</clipPath>
</defs>
</svg>
