<svg width="33" height="32" viewBox="0 0 33 32" fill="none" xmlns="http://www.w3.org/2000/svg">
<rect x="0.00683594" width="32" height="32" rx="8" fill="#82c232"/>
<g clip-path="url(#clip0_822_57175)">
<path d="M18.0065 12.3335C17.6385 12.3335 17.3398 12.0348 17.3398 11.6668V10.6668H14.6732V11.6668C14.6732 12.0348 14.3745 12.3335 14.0065 12.3335C13.6385 12.3335 13.3398 12.0348 13.3398 11.6668V10.6668C13.3398 9.9315 13.9378 9.3335 14.6732 9.3335H17.3398C18.0752 9.3335 18.6732 9.9315 18.6732 10.6668V11.6668C18.6732 12.0348 18.3745 12.3335 18.0065 12.3335Z" fill="#54722e"/>
<path d="M16.4802 18.2532C16.3602 18.2999 16.1868 18.3332 16.0068 18.3332C15.8268 18.3332 15.6535 18.2999 15.4935 18.2399L8.00684 15.7466V20.8332C8.00684 21.8466 8.82684 22.6666 9.84017 22.6666H22.1735C23.1868 22.6666 24.0068 21.8466 24.0068 20.8332V15.7466L16.4802 18.2532Z" fill="#54722e"/>
<path d="M24.0068 13.1668V14.6935L16.1668 17.3068C16.1135 17.3268 16.0602 17.3335 16.0068 17.3335C15.9535 17.3335 15.9002 17.3268 15.8468 17.3068L8.00684 14.6935V13.1668C8.00684 12.1535 8.82684 11.3335 9.84017 11.3335H22.1735C23.1868 11.3335 24.0068 12.1535 24.0068 13.1668Z" fill="#54722e"/>
</g>
<defs>
<clipPath id="clip0_822_57175">
<rect width="16" height="16" fill="white" transform="translate(8.00684 8)"/>
</clipPath>
</defs>
</svg>
