<svg width="1889" height="661" viewBox="0 0 1889 661" fill="none" xmlns="http://www.w3.org/2000/svg">
<path opacity="0.3" d="M1835.5 319H1789.15C1710.83 319 1640.68 367.482 1613 440.75V440.75C1585.32 514.018 1515.17 562.5 1436.85 562.5H1345.5L1153.75 582.596C1128.95 585.195 1104.38 589.646 1080.24 595.912L978.051 622.439C881.246 647.568 779.129 643.088 684.897 609.578L620 586.5L439.345 521.182C358.502 491.952 292.732 431.565 256.723 353.506V353.506C242.661 323.023 223.912 294.931 201.157 270.251L76 134.5" stroke="#82c232" stroke-dasharray="4 4"/>
<path d="M76 269L251.5 319L351.13 353.706C394.753 368.902 432.969 396.543 461.059 433.215V433.215C502.345 487.117 564.81 520.669 632.546 525.328L751.695 533.522C780.503 535.503 809.065 540.151 837.015 547.406L932.582 572.214C1025.79 596.41 1124.92 571.883 1196.09 507.014V507.014C1235.88 470.748 1285.13 446.498 1338.14 437.073L1585.66 393.063C1640.21 383.363 1683.35 341.405 1694.57 287.142V287.142C1698.8 266.659 1707.72 247.435 1720.62 230.977L1835.5 84.5" stroke="#82c232" stroke-dasharray="4 4"/>
<rect x="1632" y="222.965" width="290.75" height="90.5487" transform="rotate(-50.0727 1632 222.965)" fill="url(#paint0_linear_909_122784)"/>
<rect x="1700.42" y="287.605" width="163.754" height="90.5487" transform="rotate(-5.46838 1700.42 287.605)" fill="url(#paint1_linear_909_122784)"/>
<rect x="245.805" y="312.831" width="290.75" height="67.2259" transform="rotate(-147.524 245.805 312.831)" fill="url(#paint2_linear_909_122784)"/>
<rect x="309.721" y="372.999" width="290.75" height="67.2259" transform="rotate(-164.168 309.721 372.999)" fill="url(#paint3_linear_909_122784)"/>
<defs>
<linearGradient id="paint0_linear_909_122784" x1="1628.9" y1="265.043" x2="1931.35" y2="271.708" gradientUnits="userSpaceOnUse">
<stop stop-color="#54722e" stop-opacity="0"/>
<stop offset="1" stop-color="#54722e"/>
</linearGradient>
<linearGradient id="paint1_linear_909_122784" x1="1698.67" y1="329.684" x2="1869.07" y2="331.799" gradientUnits="userSpaceOnUse">
<stop stop-color="#54722e" stop-opacity="0"/>
<stop offset="1" stop-color="#54722e"/>
</linearGradient>
<linearGradient id="paint2_linear_909_122784" x1="242.708" y1="344.07" x2="545.039" y2="353.045" gradientUnits="userSpaceOnUse">
<stop stop-color="#54722e" stop-opacity="0"/>
<stop offset="1" stop-color="#54722e"/>
</linearGradient>
<linearGradient id="paint3_linear_909_122784" x1="306.624" y1="404.238" x2="608.955" y2="413.213" gradientUnits="userSpaceOnUse">
<stop stop-color="#54722e" stop-opacity="0"/>
<stop offset="1" stop-color="#54722e"/>
</linearGradient>
</defs>
</svg>
