<svg width="32" height="32" viewBox="0 0 32 32" fill="none" xmlns="http://www.w3.org/2000/svg">
<rect width="32" height="32" rx="8" fill="#82c232"/>
<g clip-path="url(#clip0_822_57132)">
<path d="M21.6574 10.3431C18.5331 7.21916 13.4676 7.21881 10.3431 10.3431C7.21881 13.4673 7.21916 18.5328 10.3431 21.6574C13.4673 24.7809 18.5328 24.7813 21.6574 21.6574C24.7813 18.5328 24.7809 13.4676 21.6574 10.3431ZM17.0434 19.4786C17.0434 20.0549 16.5762 20.5221 15.9999 20.5221C15.4235 20.5221 14.9564 20.0549 14.9564 19.4786V15.3046C14.9564 14.7282 15.4235 14.261 15.9999 14.261C16.5762 14.261 17.0434 14.7282 17.0434 15.3046V19.4786ZM15.9814 13.5209C15.3804 13.5209 14.9797 13.0951 14.9922 12.5695C14.9797 12.0186 15.3804 11.6057 15.9936 11.6057C16.6072 11.6057 16.9954 12.0189 17.0082 12.5695C17.0079 13.0951 16.6075 13.5209 15.9814 13.5209Z" fill="#54722e"/>
</g>
<defs>
<clipPath id="clip0_822_57132">
<rect width="16" height="16" fill="white" transform="translate(8 8)"/>
</clipPath>
</defs>
</svg>
