<svg width="32" height="32" viewBox="0 0 32 32" fill="none" xmlns="http://www.w3.org/2000/svg">
<rect width="32" height="32" rx="8" fill="#82c232"/>
<path d="M11.2405 14.4805H10.4472C9.13288 14.4805 8.06738 15.546 8.06738 16.8603V18.4469C8.06738 19.7613 9.13288 20.8268 10.4472 20.8268H11.2405C12.5549 20.8268 13.6204 19.7613 13.6204 18.4469V16.8603C13.6204 15.546 12.5549 14.4805 11.2405 14.4805Z" fill="#54722e"/>
<path d="M21.553 14.4805H20.7597C19.4454 14.4805 18.3799 15.546 18.3799 16.8603V18.4469C18.3799 19.7613 19.4454 20.8268 20.7597 20.8268H21.553C22.8674 20.8268 23.9329 19.7613 23.9329 18.4469V16.8603C23.9329 15.546 22.8674 14.4805 21.553 14.4805Z" fill="#54722e"/>
<path d="M21.1568 16.0671C20.9464 16.0671 20.7446 15.9836 20.5959 15.8348C20.4471 15.686 20.3635 15.4843 20.3635 15.2739V14.0839C20.3635 12.9268 19.9038 11.817 19.0856 10.9988C18.2674 10.1805 17.1576 9.72085 16.0004 9.72085C14.8433 9.72085 13.7335 10.1805 12.9153 10.9988C12.097 11.817 11.6374 12.9268 11.6374 14.0839V15.2739C11.6374 15.4843 11.5538 15.686 11.405 15.8348C11.2562 15.9836 11.0545 16.0671 10.8441 16.0671C10.6337 16.0671 10.4319 15.9836 10.2831 15.8348C10.1344 15.686 10.0508 15.4843 10.0508 15.2739V14.0839C10.0508 12.506 10.6776 10.9927 11.7934 9.87689C12.9092 8.76111 14.4225 8.13428 16.0004 8.13428C17.5784 8.13428 19.0917 8.76111 20.2075 9.87689C21.3232 10.9927 21.9501 12.506 21.9501 14.0839V15.2739C21.9501 15.4843 21.8665 15.686 21.7177 15.8348C21.569 15.9836 21.3672 16.0671 21.1568 16.0671Z" fill="#54722e"/>
<path d="M19.5699 24H16.3968C16.1864 24 15.9846 23.9164 15.8359 23.7676C15.6871 23.6188 15.6035 23.4171 15.6035 23.2067C15.6035 22.9963 15.6871 22.7945 15.8359 22.6457C15.9846 22.497 16.1864 22.4134 16.3968 22.4134H19.5699C19.7803 22.4134 19.9821 22.3298 20.1309 22.181C20.2797 22.0323 20.3632 21.8305 20.3632 21.6201V20.0335C20.3632 19.8231 20.4468 19.6214 20.5956 19.4726C20.7444 19.3238 20.9461 19.2402 21.1565 19.2402C21.3669 19.2402 21.5687 19.3238 21.7175 19.4726C21.8662 19.6214 21.9498 19.8231 21.9498 20.0335V21.6201C21.9498 22.2513 21.6991 22.8566 21.2528 23.3029C20.8065 23.7492 20.2011 24 19.5699 24Z" fill="#54722e"/>
</svg>
