<svg width="32" height="32" viewBox="0 0 32 32" fill="none" xmlns="http://www.w3.org/2000/svg">
<rect width="32" height="32" rx="8" fill="#82c232"/>
<path d="M20.6125 23.2604V22.6802C20.6125 22.2957 20.3179 21.9752 19.9366 21.9439C19.6437 21.9193 19.3507 21.893 19.0578 21.8617C18.4932 21.8026 17.8713 21.7401 17.8713 21.035L17.8681 10.13C20.0937 10.0972 21.3129 11.3907 21.9593 13.3054C22.0624 13.6127 22.3488 13.8198 22.6712 13.8198H23.2636C23.6711 13.8198 24 13.4895 24 13.0802V8.7396C24 8.33035 23.6711 8 23.2636 8H16.0008H15.9975H8.73642C8.32894 8 8 8.33035 8 8.7396V13.0802C8 13.4895 8.32894 13.8198 8.73642 13.8198H9.32883C9.65122 13.8198 9.93761 13.6127 10.0407 13.3054C10.6855 11.3907 11.9063 10.0972 14.1319 10.13L14.127 21.035C14.127 21.7401 13.5052 21.8026 12.9406 21.8618C12.6476 21.893 12.3547 21.9193 12.0618 21.9439C11.6805 21.9752 11.3859 22.2957 11.3859 22.6802V23.2604C11.3859 23.6696 11.7148 24 12.1223 24H15.9975H16.0025H19.876C20.2819 24 20.6125 23.668 20.6125 23.2604Z" fill="#54722e"/>
</svg>
