<svg width="1885" height="862" viewBox="0 0 1885 862" fill="none" xmlns="http://www.w3.org/2000/svg">
<path opacity="0.4" d="M1821.38 386.759L1569.13 393.131C1496.01 394.978 1424.77 416.689 1363.05 455.939V455.939C1251.42 526.918 1112.08 538.605 990.191 487.211L751.965 386.759L515.522 315.407C455.259 297.222 399.585 266.353 352.238 224.873V224.873C287.809 168.428 208.344 131.957 123.538 119.909L43.9676 108.606" stroke="#82c232" stroke-dasharray="4 4"/>
<path d="M76.7484 621.187L267.865 567.616C328.478 550.627 391.777 545.365 454.363 552.113L494.097 556.398C551.726 562.612 606.816 583.432 654.149 616.887V616.887C713.697 658.974 785.181 680.837 858.084 679.259L935.29 677.588C962.416 677 989.547 678.443 1016.46 681.904L1082.41 690.387C1201.31 705.678 1320.84 667.184 1408.47 585.38V585.38C1457.62 539.494 1517.49 506.651 1582.6 489.851L1857.38 418.953" stroke="#82c232" stroke-dasharray="4 4"/>
</svg>
