<svg width="1942" height="603" viewBox="0 0 1942 603" fill="none" xmlns="http://www.w3.org/2000/svg">
<path opacity="0.9" d="M34.5 355.5L89.4477 425.563C155.39 509.644 243.387 588.823 342.267 548.315C387.919 529.613 442.628 505.462 517.769 495.786C562.377 490.042 607.062 501.568 647.64 520.965V520.965C724.292 557.607 812.85 560.188 891.507 528.073L1064.76 457.336C1130.48 430.501 1203.13 425.658 1271.83 443.53L1444.01 488.318C1545.17 514.633 1646.37 445.879 1659.17 342.141V342.141C1665.4 291.633 1693.57 246.436 1736.16 218.586L1774.81 193.317C1816.04 166.358 1864.24 152 1913.5 152V152" stroke="#54722e" stroke-dasharray="4 4"/>
<path d="M87 117.5C116.914 228.962 121.976 360.575 241.464 476.557C299.7 533.084 377.548 569.836 458.707 570.055C554.162 570.313 627.064 532.015 690.605 496.699C742.883 467.644 801.817 455 861.626 455H909.495C976.002 455 1040.68 476.752 1093.68 516.939L1129.07 543.784C1178.17 581.017 1241.19 594.708 1301.31 581.204V581.204C1345.26 571.333 1384.85 547.537 1414.19 513.357L1447.47 474.578C1493.18 421.334 1553.32 382.467 1620.64 362.673L1628.18 360.456C1757.15 322.537 1857.48 220.846 1893.66 91.3813L1915 15" stroke="#54722E" stroke-dasharray="4 4"/>
<rect x="190.009" y="602.006" width="290.75" height="67.2259" transform="rotate(-130.807 190.009 602.006)" fill="url(#paint0_linear_914_122837)"/>
<rect x="119.796" y="382.222" width="290.75" height="67.2259" transform="rotate(-105.111 119.796 382.222)" fill="url(#paint1_linear_914_122837)"/>
<rect x="1847.31" y="123.021" width="126.233" height="67.2259" transform="rotate(-77.046 1847.31 123.021)" fill="url(#paint2_linear_914_122837)"/>
<rect x="1831.95" y="150.892" width="80.1092" height="67.2259" transform="rotate(-16.6042 1831.95 150.892)" fill="url(#paint3_linear_914_122837)"/>
<defs>
<linearGradient id="paint0_linear_914_122837" x1="186.912" y1="633.246" x2="489.243" y2="642.221" gradientUnits="userSpaceOnUse">
<stop stop-color="#82C232" stop-opacity="0"/>
<stop offset="1" stop-color="#82C232"/>
</linearGradient>
<linearGradient id="paint1_linear_914_122837" x1="116.698" y1="413.462" x2="419.03" y2="422.437" gradientUnits="userSpaceOnUse">
<stop stop-color="#82C232" stop-opacity="0"/>
<stop offset="1" stop-color="#82C232"/>
</linearGradient>
<linearGradient id="paint2_linear_914_122837" x1="1845.96" y1="154.26" x2="1977.32" y2="155.953" gradientUnits="userSpaceOnUse">
<stop stop-color="#82C232" stop-opacity="0"/>
<stop offset="1" stop-color="#82C232"/>
</linearGradient>
<linearGradient id="paint3_linear_914_122837" x1="1831.1" y1="182.132" x2="1914.47" y2="182.814" gradientUnits="userSpaceOnUse">
<stop stop-color="#82C232" stop-opacity="0"/>
<stop offset="1" stop-color="#82C232"/>
</linearGradient>
</defs>
</svg>
