<svg width="32" height="32" viewBox="0 0 32 32" fill="none" xmlns="http://www.w3.org/2000/svg">
<rect width="32" height="32" rx="8" fill="#82c232"/>
<path d="M16 8.57129C17.578 8.57129 18.9098 9.85048 18.8549 11.5415C20.8372 12.5522 22.1566 14.5489 22.2767 16.8054C23.2904 17.2437 24 18.2532 24 19.4284C24 21.0064 22.7208 22.2856 21.1429 22.2856C20.7193 22.2856 20.3173 22.1934 19.9557 22.028C18.8478 22.9264 17.4624 23.4284 16 23.4284C14.5378 23.4284 13.1525 22.9266 12.0444 22.028C11.6832 22.1933 11.2809 22.2856 10.8571 22.2856C9.27919 22.2856 8 21.0064 8 19.4284C8 18.2532 8.70956 17.2437 9.72364 16.805C9.84355 14.5479 11.1639 12.5517 13.1451 11.5412C13.1004 9.84348 14.422 8.57129 16 8.57129ZM18.5666 12.6847L18.5594 12.6999C18.0915 13.6398 17.1212 14.2856 16 14.2856C14.873 14.2856 13.8984 13.633 13.4334 12.6852C12.0251 13.4959 11.0703 14.935 10.8886 16.5721C12.4525 16.5888 13.7143 17.8612 13.7143 19.4284C13.7143 20.1539 13.4439 20.8162 12.9984 21.3201C13.8623 21.9418 14.9038 22.2856 16 22.2856C17.0963 22.2856 18.1378 21.9418 19.0018 21.3193C18.5559 20.8157 18.2857 20.1536 18.2857 19.4284C18.2857 17.892 19.4985 16.6388 21.1114 16.572C20.9298 14.9357 19.9758 13.4967 18.5666 12.6847Z" fill="#54722e"/>
</svg>
