<svg width="32" height="32" viewBox="0 0 32 32" fill="none" xmlns="http://www.w3.org/2000/svg">
<rect width="32" height="32" rx="8" fill="#82c232"/>
<path d="M11.0326 20.7565C11.2427 20.9858 11.5353 21.1222 11.846 21.1358C12.1567 21.1494 12.4601 21.039 12.6894 20.8289C12.9187 20.6188 13.0551 20.3262 13.0687 20.0155C13.0823 19.7048 12.9719 19.4014 12.7618 19.1721L10.2633 16.4483L12.7612 13.7226C12.9713 13.4933 13.0817 13.19 13.0681 12.8793C13.0545 12.5686 12.9181 12.276 12.6888 12.0659C12.4595 11.8558 12.1561 11.7454 11.8454 11.7589C11.5347 11.7725 11.2421 11.909 11.032 12.1383L7.80816 15.6552C7.60996 15.8714 7.5 16.1541 7.5 16.4474C7.5 16.7407 7.60996 17.0234 7.80816 17.2396L11.0326 20.7565Z" fill="#54722e"/>
<path d="M20.9669 12.1402C20.7568 11.9109 20.4642 11.7745 20.1535 11.7609C19.8428 11.7473 19.5394 11.8577 19.3101 12.0678C19.0808 12.2779 18.9444 12.5705 18.9308 12.8812C18.9172 13.1919 19.0276 13.4953 19.2377 13.7246L21.7362 16.4484L19.2383 19.1741C19.0282 19.4034 18.9178 19.7067 18.9314 20.0174C18.945 20.3281 19.0814 20.6207 19.3107 20.8308C19.54 21.0409 19.8434 21.1513 20.1541 21.1378C20.4648 21.1242 20.7574 20.9877 20.9675 20.7584L24.1913 17.2415C24.3895 17.0253 24.4995 16.7426 24.4995 16.4493C24.4995 16.156 24.3895 15.8734 24.1913 15.6571L20.9669 12.1402Z" fill="#54722e"/>
<path d="M15.7215 10.9804L13.9631 21.5312C13.9122 21.8378 13.9852 22.152 14.1659 22.4048C14.3465 22.6576 14.6202 22.8283 14.9267 22.8794C14.9909 22.8902 15.0559 22.8957 15.121 22.8958C15.3984 22.8955 15.6666 22.7968 15.8781 22.6174C16.0895 22.4379 16.2306 22.1893 16.276 21.9157L18.0345 11.365C18.0856 11.0582 18.0127 10.7438 17.8319 10.4908C17.6512 10.2378 17.3773 10.067 17.0706 10.0159C16.9187 9.99063 16.7633 9.99551 16.6133 10.0303C16.4634 10.065 16.3217 10.129 16.1964 10.2185C15.9434 10.3993 15.7726 10.6731 15.7215 10.9799V10.9804Z" fill="#54722e"/>
</svg>
