<svg width="998" height="1529" viewBox="0 0 998 1529" fill="none" xmlns="http://www.w3.org/2000/svg">
<path d="M997.06 0.791306C784.653 60.4315 675.163 240.723 591.829 328.781C559.663 362.771 522.197 393.735 496.266 432.691V432.691C451.435 500.037 375.893 540.5 294.989 540.5L278.465 540.5C139.778 540.5 23.1903 644.61 7.55809 782.412L2.50015 827V827C-12.48 938.67 68.8037 1040.24 181.042 1050.11L273.746 1058.25C368.073 1066.54 452.212 1120.9 498.536 1203.49L550.581 1296.27C563.174 1318.72 577.496 1340.15 592.601 1361C650.111 1440.35 719.999 1535.44 997.06 1527.74" stroke="#82c232" stroke-dasharray="4 4"/>
</svg>
