<svg width="13" height="14" viewBox="0 0 13 14" fill="none" xmlns="http://www.w3.org/2000/svg">
<path d="M11.5735 5.99735C11.2693 5.99735 11.0224 5.75051 11.0224 5.44624C11.0224 3.9003 10.4205 2.4475 9.32761 1.35396C9.11215 1.1385 9.11215 0.790238 9.32761 0.574679C9.54307 0.359222 9.89143 0.359222 10.1069 0.574679C11.4082 1.8759 12.1246 3.60602 12.1246 5.44624C12.1246 5.75051 11.8778 5.99735 11.5735 5.99735Z" fill="#82c232"/>
<path d="M0.551108 5.99784C0.246944 5.99784 0 5.751 0 5.44673C0 3.60651 0.71651 1.87639 2.01773 0.575167C2.23319 0.35971 2.58156 0.35971 2.79701 0.575167C3.01257 0.790726 3.01257 1.13899 2.79701 1.35445C1.70408 2.44738 1.10232 3.90078 1.10232 5.44673C1.10232 5.751 0.855372 5.99784 0.551108 5.99784Z" fill="#82c232"/>
<path d="M11.2324 9.3215C10.399 8.6171 9.92119 7.58754 9.92119 6.49683V4.96027C9.92119 3.02085 8.4805 1.41536 6.61434 1.14642V0.551107C6.61434 0.246338 6.3674 0 6.06324 0C5.75897 0 5.51203 0.246338 5.51203 0.551107V1.14642C3.64537 1.41536 2.20518 3.02085 2.20518 4.96027V6.49683C2.20518 7.58754 1.72734 8.6171 0.889123 9.32584C0.674675 9.5094 0.551758 9.77613 0.551758 10.0583C0.551758 10.5902 0.984389 11.0229 1.51632 11.0229H10.6102C11.142 11.0229 11.5746 10.5902 11.5746 10.0583C11.5746 9.77613 11.4517 9.5094 11.2324 9.3215Z" fill="#82c232"/>
<path d="M6.06298 13.2276C7.06105 13.2276 7.89604 12.5161 8.08788 11.5742H4.03809C4.22983 12.5161 5.06482 13.2276 6.06298 13.2276Z" fill="#82c232"/>
</svg>
