<svg width="32" height="32" viewBox="0 0 32 32" fill="none" xmlns="http://www.w3.org/2000/svg">
<rect width="32" height="32" rx="8" fill="#82c232"/>
<path d="M26.9018 10.8734C26.8362 10.3988 26.7382 9.89108 26.6072 9.35086C26.4762 8.81081 26.282 8.35242 26.0241 7.97582C25.7663 7.59939 25.4776 7.41104 25.1585 7.41104C25.1218 7.25142 24.9437 7.26983 24.6244 7.46634C24.3052 7.66281 24.1557 7.72839 24.1764 7.66281C24.1967 7.59728 24.086 7.67907 23.8447 7.90826C23.6033 8.13746 23.4827 8.25201 23.4827 8.25201L23.1204 8.61408C22.8014 8.91698 22.3369 9.14811 21.7271 9.30768C21.1173 9.46756 20.4484 9.56552 19.7199 9.60241C18.9915 9.63935 18.261 9.66395 17.5285 9.67611C16.7959 9.68828 16.0613 9.72522 15.3247 9.78654C14.5881 9.84799 13.9947 9.95231 13.5447 10.0996C12.6524 10.3942 11.8176 10.7852 11.0401 11.2722C10.2625 11.7592 9.56485 12.328 8.94688 12.9788C8.32896 13.6294 7.84189 14.3845 7.48597 15.2439C7.13009 16.103 6.95194 17.0035 6.95194 17.9447C6.95194 18.3786 6.98871 18.8041 7.06237 19.2216C7.07875 19.3034 7.14415 19.4835 7.25888 19.7618C7.37352 20.0402 7.43076 20.1956 7.43076 20.2285C7.43076 20.3838 7.3039 20.5805 7.05011 20.8176C6.79636 21.055 6.51819 21.2842 6.21529 21.5051C5.91248 21.726 5.63426 21.9941 5.38047 22.3091C5.12694 22.6245 5 22.9253 5 23.2116C5 23.269 5.00602 23.324 5.0184 23.3775C5.03079 23.4307 5.04313 23.4695 5.05534 23.4939C5.06755 23.5186 5.09017 23.5593 5.12281 23.6165C5.15571 23.6737 5.18004 23.7191 5.19651 23.7516C5.33571 23.9888 5.44618 24.1608 5.52797 24.2672C5.60975 24.3735 5.73656 24.4716 5.90852 24.5618C6.08027 24.6517 6.28917 24.6968 6.53462 24.6968C6.77211 24.6968 7.01756 24.5658 7.27135 24.3042C7.52488 24.0424 7.73985 23.7556 7.91581 23.4448C8.09168 23.1339 8.27598 22.8473 8.46824 22.5854C8.6605 22.3236 8.82222 22.1927 8.95312 22.1927C9.14133 22.1927 9.53415 22.3442 10.1317 22.647C10.7291 22.95 11.0893 23.1218 11.2121 23.1628C12.3415 23.5475 13.5118 23.7398 14.7232 23.7398C16.5567 23.7398 18.3489 23.2975 20.1005 22.4136C21.8932 21.5216 23.3559 20.425 24.4896 19.1235C25.6233 17.8219 26.3782 16.2549 26.7548 14.4212C26.9181 13.6191 27 12.8294 27 12.0518C27 11.7408 26.9673 11.3479 26.9018 10.8734ZM20.4808 15.0351C20.3253 15.1906 20.1409 15.2684 19.9281 15.2684C18.4385 15.2684 17.1558 15.4812 16.0794 15.9067C15.0033 16.3322 13.9045 17.0525 12.7832 18.0674C12.6197 18.2229 12.3455 18.4929 11.9607 18.8776C11.5761 19.2624 11.2731 19.5529 11.0523 19.7493C10.8803 19.9048 10.6962 19.9826 10.4997 19.9826C10.2868 19.9826 10.1027 19.9048 9.94713 19.7493C9.79159 19.5941 9.71389 19.4096 9.71389 19.1968C9.71389 19.0003 9.79159 18.8165 9.94713 18.6443C10.9456 17.5394 11.9094 16.6411 12.8384 15.9496C13.7674 15.2582 14.8294 14.7098 16.0244 14.3046C17.2191 13.8994 18.5204 13.6968 19.9281 13.6968C20.1409 13.6968 20.3253 13.7746 20.4808 13.9301C20.6362 14.0858 20.7141 14.2699 20.7141 14.4826C20.714 14.6954 20.6365 14.8796 20.4808 15.0351Z" fill="#54722e"/>
</svg>
