<svg width="32" height="32" viewBox="0 0 32 32" fill="none" xmlns="http://www.w3.org/2000/svg">
<rect width="32" height="32" rx="8" fill="#82c232"/>
<path d="M22.1585 10.6034C22.1585 10.8792 21.9349 11.1029 21.659 11.1029H10.4679C10.1921 11.1029 9.9684 10.8792 9.9684 10.6034V8.36461C9.9684 8.08875 10.1921 7.86509 10.4679 7.86509H21.659C21.9349 7.86509 22.1585 8.08875 22.1585 8.36461V10.6034ZM22.1585 14.849C22.1585 15.1254 21.9349 15.3485 21.659 15.3485H19.6104C19.3345 15.3485 19.1109 15.1254 19.1109 14.849V13.6939C19.1109 13.4175 19.3345 13.1938 19.6104 13.1938H21.659C21.9349 13.1938 22.1585 13.4175 22.1585 13.6939V14.849ZM22.1585 22.2539C22.1585 22.5297 21.9349 22.7534 21.659 22.7534H19.6104C19.3345 22.7534 19.1109 22.5297 19.1109 22.2539V17.3961C19.1109 17.1202 19.3345 16.8966 19.6104 16.8966H21.659C21.9349 16.8966 22.1585 17.1202 22.1585 17.3961V22.2539ZM17.5238 14.849C17.5238 15.1254 17.3002 15.3485 17.0243 15.3485H14.9757C14.6998 15.3485 14.4762 15.1254 14.4762 14.849V13.6939C14.4762 13.4175 14.6998 13.1938 14.9757 13.1938H17.0243C17.3002 13.1938 17.5238 13.4175 17.5238 13.6939V14.849ZM17.5238 18.5517C17.5238 18.8276 17.3002 19.0512 17.0243 19.0512H14.9757C14.6998 19.0512 14.4762 18.8276 14.4762 18.5517V17.3961C14.4762 17.1202 14.6998 16.8966 14.9757 16.8966H17.0243C17.3002 16.8966 17.5238 17.1202 17.5238 17.3961V18.5517ZM17.5238 22.2539C17.5238 22.5297 17.3002 22.7534 17.0243 22.7534H14.9757C14.6998 22.7534 14.4762 22.5297 14.4762 22.2539V21.0982C14.4762 20.8224 14.6998 20.5987 14.9757 20.5987H17.0243C17.3002 20.5987 17.5238 20.8224 17.5238 21.0982V22.2539ZM13.0161 14.849C13.0161 15.1254 12.7924 15.3485 12.5166 15.3485H10.4679C10.1921 15.3485 9.9684 15.1254 9.9684 14.849V13.6939C9.9684 13.4175 10.1921 13.1938 10.4679 13.1938H12.5166C12.7924 13.1938 13.0161 13.4175 13.0161 13.6939V14.849ZM13.0161 18.5517C13.0161 18.8276 12.7924 19.0512 12.5166 19.0512H10.4679C10.1921 19.0512 9.9684 18.8276 9.9684 18.5517V17.3961C9.9684 17.1202 10.1921 16.8966 10.4679 16.8966H12.5166C12.7924 16.8966 13.0161 17.1202 13.0161 17.3961V18.5517ZM13.0161 22.2539C13.0161 22.5297 12.7924 22.7534 12.5166 22.7534H10.4679C10.1921 22.7534 9.9684 22.5297 9.9684 22.2539V21.0982C9.9684 20.8224 10.1921 20.5987 10.4679 20.5987H12.5166C12.7924 20.5987 13.0161 20.8224 13.0161 21.0982V22.2539ZM22.7581 6H9.24193C8.55612 6 8 6.55557 8 7.24138V23.5117C8 24.1976 8.55612 24.7531 9.24193 24.7531H22.7581C23.4439 24.7531 24 24.1976 24 23.5117V7.24138C24 6.55557 23.4439 6 22.7581 6Z" fill="#54722e"/>
</svg>
