<svg width="1151" height="1167" viewBox="0 0 1151 1167" fill="none" xmlns="http://www.w3.org/2000/svg">
<path d="M451.028 151.418L633.919 193.287C756.597 221.372 839.273 336.272 826.923 461.517L820.739 524.223C815.72 575.125 795.207 623.263 761.97 662.142L675.805 762.93C641.236 803.366 625.327 856.507 631.989 909.287V909.287C642.24 990.498 599.003 1069.07 524.911 1103.86L435.183 1146" stroke="#82c232" stroke-dasharray="4 4"/>
<path d="M451.028 151.418L633.919 193.287C756.597 221.372 839.273 336.272 826.923 461.517L820.739 524.223C815.72 575.125 795.207 623.263 761.97 662.142L675.805 762.93C641.236 803.366 625.327 856.507 631.989 909.287V909.287C642.24 990.498 599.003 1069.07 524.911 1103.86L435.183 1146" stroke="#61892f" stroke-dasharray="4 4"/>
<rect x="453.635" y="133.333" width="173.508" height="28.3929" transform="rotate(15.5992 453.635 133.333)" fill="url(#paint0_linear_874_51635)"/>
<rect x="429" y="1135.45" width="173.508" height="28.3929" transform="rotate(-24.6808 429 1135.45)" fill="url(#paint1_linear_874_51635)"/>
<defs>
<linearGradient id="paint0_linear_874_51635" x1="449.551" y1="147.535" x2="632.248" y2="149.225" gradientUnits="userSpaceOnUse">
<stop stop-color="white"/>
<stop offset="1" stop-color="white" stop-opacity="0"/>
</linearGradient>
<linearGradient id="paint1_linear_874_51635" x1="424.916" y1="1149.65" x2="607.613" y2="1151.34" gradientUnits="userSpaceOnUse">
<stop stop-color="white"/>
<stop offset="1" stop-color="white" stop-opacity="0"/>
</linearGradient>
</defs>
</svg>
