<svg width="32" height="32" viewBox="0 0 32 32" fill="none" xmlns="http://www.w3.org/2000/svg">
<rect width="32" height="32" rx="8" fill="#82c232"/>
<path d="M10.4479 10C10.4475 10 10.447 10 10.4466 10C10.2953 10 10.1529 10.059 10.0455 10.1662C9.93681 10.2746 9.87695 10.4189 9.87695 10.5726V19.1579C9.87695 19.4727 10.1341 19.7295 10.4502 19.7303C11.7829 19.7335 14.0157 20.0112 15.556 21.6231V12.6383C15.556 12.5316 15.5287 12.4314 15.4773 12.3484C14.2131 10.3125 11.7837 10.0031 10.4479 10Z" fill="#54722e"/>
<path d="M22.1243 19.1579V10.5726C22.1243 10.4189 22.0645 10.2746 21.9558 10.1662C21.8483 10.059 21.7059 10 21.5547 10C21.5542 10 21.5537 10 21.5533 10C20.2177 10.0032 17.7882 10.3125 16.524 12.3485C16.4725 12.4314 16.4453 12.5317 16.4453 12.6384V21.6231C17.9856 20.0112 20.2184 19.7335 21.5511 19.7303C21.8672 19.7295 22.1243 19.4727 22.1243 19.1579Z" fill="#54722e"/>
<path d="M23.4277 11.9805H23.0126V19.1585C23.0126 19.9623 22.3576 20.6177 21.5526 20.6197C20.4222 20.6224 18.5583 20.8435 17.2383 22.0928C19.5213 21.5338 21.928 21.8972 23.2995 22.2098C23.4708 22.2488 23.6478 22.2085 23.785 22.0991C23.9217 21.99 24.0002 21.827 24.0002 21.6519V12.5529C24.0002 12.2373 23.7433 11.9805 23.4277 11.9805Z" fill="#54722e"/>
<path d="M8.98759 19.1585V11.9805H8.57245C8.25686 11.9805 8 12.2373 8 12.5529V21.6518C8 21.8269 8.07844 21.9899 8.21517 22.099C8.35227 22.2083 8.52908 22.2487 8.70061 22.2096C10.0722 21.897 12.4789 21.5337 14.7618 22.0927C13.4418 20.8434 11.578 20.6224 10.4476 20.6197C9.64256 20.6177 8.98759 19.9623 8.98759 19.1585Z" fill="#54722e"/>
</svg>
