<svg width="33" height="32" viewBox="0 0 33 32" fill="none" xmlns="http://www.w3.org/2000/svg">
<rect x="0.394531" width="32" height="32" rx="8" fill="#82c232"/>
<g clip-path="url(#clip0_1588_21488)">
<path d="M24.3297 8.64534C24.2764 8.59151 24.2116 8.55048 24.1401 8.52536C24.0687 8.50025 23.9925 8.49169 23.9172 8.50034C19.7129 8.90182 15.7749 10.738 12.7647 13.7003L9.73221 14.3678C9.64418 14.3865 9.56282 14.4286 9.49671 14.4896C9.4306 14.5507 9.38219 14.6285 9.35659 14.7147C9.331 14.801 9.32915 14.8926 9.35126 14.9798C9.37337 15.067 9.41861 15.1467 9.48221 15.2103L17.8272 23.5528C17.8909 23.6164 17.9705 23.6617 18.0577 23.6838C18.145 23.7059 18.2365 23.7041 18.3228 23.6785C18.4091 23.6529 18.4868 23.6044 18.5479 23.5383C18.609 23.4722 18.651 23.3909 18.6697 23.3028L19.3397 20.2678C22.3018 17.2403 24.1174 13.2758 24.4747 9.05534C24.483 8.9805 24.4742 8.90475 24.4491 8.83375C24.424 8.76276 24.3832 8.69835 24.3297 8.64534ZM19.2822 15.4778C17.0147 15.4128 17.0022 12.1078 19.2822 12.0378C21.5597 12.1078 21.5472 15.4128 19.2822 15.4778Z" fill="#54722e"/>
<path d="M11.4404 18.897C11.3783 18.8347 11.3009 18.7899 11.216 18.7671C11.131 18.7443 11.0415 18.7443 10.9566 18.7671C10.8716 18.7899 10.7942 18.8348 10.7321 18.8971C10.67 18.9594 10.6255 19.037 10.6029 19.122L9.63545 22.732C9.61248 22.8171 9.6124 22.9067 9.63521 22.9918C9.65802 23.0769 9.70291 23.1545 9.76533 23.2166C9.82776 23.2788 9.9055 23.3234 9.99069 23.3458C10.0759 23.3683 10.1655 23.3679 10.2504 23.3445L13.8605 22.377C13.9455 22.3545 14.0231 22.31 14.0854 22.2479C14.1477 22.1858 14.1926 22.1084 14.2154 22.0234C14.2382 21.9385 14.2382 21.849 14.2154 21.764C14.1926 21.6791 14.1478 21.6016 14.0855 21.5395L11.4404 18.897Z" fill="#54722e"/>
</g>
<defs>
<clipPath id="clip0_1588_21488">
<rect width="16" height="16" fill="white" transform="translate(9 8)"/>
</clipPath>
</defs>
</svg>
