<svg width="4431" height="2557" viewBox="0 0 4431 2557" fill="none" xmlns="http://www.w3.org/2000/svg">
<path opacity="0.9" d="M476.227 2555.78L532.161 2455.66C654.629 2236.46 877.138 2091.58 1127.14 2068.26V2068.26L1343.6 2048.06C1462.58 2036.96 1582.07 2063.15 1685.5 2123V2123L1693.84 2128.44C1790.56 2191.57 1900.91 2230.78 2015.78 2242.81L2022.72 2243.54C2054.2 2246.84 2085.38 2252.49 2116.02 2260.44L2192.66 2280.34C2298.3 2307.76 2410.4 2294.25 2506.51 2242.52V2242.52C2528.79 2230.53 2552.09 2220.51 2576.12 2212.59L2793.35 2140.97C2893.49 2107.96 2974.41 2033.15 3015.18 1935.9V1935.9C3031.93 1895.95 3055.67 1859.31 3085.29 1827.7L3145.71 1763.21C3280.24 1619.63 3436.32 1473.44 3553.14 1315.13C3869.02 887.04 4430.46 0.946289 4430.46 0.946289" stroke="#63d023" stroke-dasharray="4 4"/>
<path opacity="0.5" d="M3806.23 2554.57L3284.02 2362.5C3226.13 2341.21 3166.4 2325.32 3105.59 2315.04L2316 2181.5L2100 2169L1270.86 2213.7C1044.29 2225.92 835.057 2338.88 700.533 2521.61V2521.61" stroke="#63d023" stroke-dasharray="4 4"/>
<path opacity="0.5" d="M0.605469 80.5244L1062.09 1536.21C1191.12 1713.16 1374.41 1845.04 1590.73 1879.17C2022.73 1947.31 2592.78 1973.58 2878.42 1982.96C2996.29 1986.83 3112.05 1957.51 3215.11 1900.17L3252.95 1879.11C3428.06 1781.69 3668.33 1746.91 3805.38 1893.1V1893.1" stroke="#63d023" stroke-dasharray="4 4"/>
<circle cx="2942.35" cy="2047.27" r="22.5" fill="#285d20" fill-opacity="0.1"/>
<circle cx="2942.35" cy="2047.27" r="22" stroke="#61892f" stroke-opacity="0.4"/>
<circle cx="2942.35" cy="2047.27" r="10.9474" fill="#63d023" fill-opacity="0.3" stroke="#61892f"/>
<circle cx="2942.35" cy="2047.27" r="5.13158" fill="#82c232"/>
<circle cx="1471.15" cy="2049" r="22.5" fill="#285d20" fill-opacity="0.1"/>
<circle cx="1471.15" cy="2049" r="22" stroke="#61892f" stroke-opacity="0.4"/>
<circle cx="1471.15" cy="2049" r="10.9474" fill="#63d023" fill-opacity="0.3" stroke="#61892f"/>
<circle cx="1471.15" cy="2049" r="5.13158" fill="#82c232"/>
<rect x="3587.1" y="1707.94" width="290.75" height="90.5487" transform="rotate(29.3845 3587.1 1707.94)" fill="url(#paint0_linear_803_57092)"/>
<defs>
<linearGradient id="paint0_linear_803_57092" x1="3584.01" y1="1750.01" x2="3886.46" y2="1756.68" gradientUnits="userSpaceOnUse">
<stop stop-color="#062b01" stop-opacity="0"/>
<stop offset="1" stop-color="#062b01"/>
</linearGradient>
</defs>
</svg>
