<svg width="32" height="32" viewBox="0 0 32 32" fill="none" xmlns="http://www.w3.org/2000/svg">
<rect width="32" height="32" rx="8" fill="#82c232"/>
<path d="M16.0005 10.3681C16.5749 10.3681 17.1481 10.4304 17.715 10.5258V10.1429C17.715 9.51432 17.2006 9 16.572 9H15.4291C14.8005 9 14.2861 9.51432 14.2861 10.1429V10.5258C14.853 10.4298 15.4262 10.3681 16.0005 10.3681Z" fill="#54722e"/>
<path d="M14.6551 13.7595C15.0877 13.6052 15.5403 13.5269 15.9997 13.5269C16.4592 13.5269 16.9118 13.6052 17.3444 13.7595L20 14.707V13.0835C20 12.5446 19.6234 12.0788 19.0965 11.9657L17.9142 11.7125C16.6524 11.4422 15.3477 11.4422 14.0859 11.7125L12.9035 11.9657C12.3766 12.0782 12 12.544 12 13.0835V14.707L14.6551 13.7595Z" fill="#54722e"/>
<path d="M10.792 21.2429C11.4515 20.8217 12.2293 20.5811 13.0299 20.5811C13.9488 20.5811 14.8477 20.8829 15.5604 21.4309C15.6809 21.5235 15.837 21.5744 16.001 21.5744C16.165 21.5744 16.3216 21.5235 16.4416 21.4309C17.1536 20.8835 18.0526 20.5811 18.9726 20.5811C19.7727 20.5811 20.5499 20.8217 21.2099 21.2429C21.7003 20.1485 22.0666 18.9885 22.27 17.7718C22.3672 17.206 22.0414 16.6517 21.5042 16.4574L16.961 14.8367C16.3398 14.615 15.6615 14.615 15.0409 14.8367L10.4977 16.4574C9.96051 16.6517 9.63477 17.206 9.73192 17.7718C9.93536 18.9879 10.3017 20.148 10.792 21.2429Z" fill="#54722e"/>
<path d="M10.0577 23.8579C9.4057 23.8579 8.75479 23.6539 8.22332 23.2447C7.97302 23.0521 7.92616 22.6932 8.11817 22.4435C8.31076 22.1932 8.66964 22.1458 8.91937 22.3389C9.57828 22.8458 10.5344 22.8464 11.1944 22.3389C12.2568 21.5211 13.8003 21.5217 14.8627 22.3389C15.5222 22.8464 16.4777 22.8458 17.1371 22.3389C18.1995 21.5211 19.7431 21.5211 20.8054 22.3389C21.4643 22.8452 22.4204 22.8464 23.0805 22.3389C23.3308 22.1463 23.6885 22.1938 23.8817 22.4435C24.0737 22.6938 24.0274 23.0521 23.7765 23.2447C22.713 24.0631 21.1694 24.0619 20.1082 23.2447C19.4487 22.7378 18.4927 22.7378 17.8332 23.2447C16.7708 24.0625 15.2279 24.0625 14.1655 23.2447C13.506 22.7378 12.5499 22.7378 11.8905 23.2447C11.359 23.6539 10.7081 23.8579 10.0566 23.8579H10.0577Z" fill="#54722e"/>
</svg>
