<svg width="32" height="32" viewBox="0 0 32 32" fill="none" xmlns="http://www.w3.org/2000/svg">
<rect width="32" height="32" rx="8" fill="#54722e"/>
<path d="M12 22H16M14 22V10M14 10L10 14H22M14 10L20.6667 14" stroke="#82c232" stroke-width="2" stroke-linecap="round" stroke-linejoin="round"/>
<path d="M19.3333 14V16.6667C19.597 16.6667 19.8548 16.7449 20.0741 16.8914C20.2934 17.0379 20.4643 17.2461 20.5652 17.4898C20.6661 17.7334 20.6925 18.0015 20.641 18.2601C20.5896 18.5188 20.4626 18.7563 20.2761 18.9428C20.0897 19.1293 19.8521 19.2563 19.5935 19.3077C19.3348 19.3592 19.0667 19.3328 18.8231 19.2318C18.5795 19.1309 18.3712 18.96 18.2247 18.7408C18.0782 18.5215 18 18.2637 18 18" stroke="#54722e" stroke-width="2" stroke-linecap="round" stroke-linejoin="round"/>
</svg>
