<svg width="33" height="32" viewBox="0 0 33 32" fill="none" xmlns="http://www.w3.org/2000/svg">
<rect x="0.394531" width="32" height="32" rx="8" fill="#82c232"/>
<path d="M12.8945 17H9.89453C9.61839 17 9.39453 17.2239 9.39453 17.5V22.5C9.39453 22.7761 9.61839 23 9.89453 23H12.8945C13.1707 23 13.3945 22.7761 13.3945 22.5V17.5C13.3945 17.2239 13.1707 17 12.8945 17Z" fill="#54722e"/>
<path d="M22.8945 13H19.8945C19.6184 13 19.3945 13.2239 19.3945 13.5V22.5C19.3945 22.7761 19.6184 23 19.8945 23H22.8945C23.1707 23 23.3945 22.7761 23.3945 22.5V13.5C23.3945 13.2239 23.1707 13 22.8945 13Z" fill="#54722e"/>
<path d="M17.8945 9H14.8945C14.6184 9 14.3945 9.22386 14.3945 9.5V22.5C14.3945 22.7761 14.6184 23 14.8945 23H17.8945C18.1707 23 18.3945 22.7761 18.3945 22.5V9.5C18.3945 9.22386 18.1707 9 17.8945 9Z" fill="#54722e"/>
</svg>
