<svg width="2407" height="772" viewBox="0 0 2407 772" fill="none" xmlns="http://www.w3.org/2000/svg">
<g clip-path="url(#clip0_1338_62141)">
<path opacity="0.3" d="M2407.5 605.516C2200.32 339.533 2026.2 652.789 1721.5 674.47C1588 683.969 1391.82 720.001 1331.64 735.622C1244.22 758.315 1151.25 735.312 1084.49 674.47C1040.43 634.313 984.212 610.042 924.771 605.516L820.472 597.575C730.67 590.738 651.614 535.804 613.888 454.024C603.03 430.487 588.553 408.795 570.982 389.737L438.001 245.5C393.089 186.888 306.599 64.1051 319.937 41.875" stroke="#608631e6" stroke-dasharray="4 4"/>
<path opacity="0.3" d="M358 -25C459.959 63.2575 672 148 672 148C937.905 254.391 1222.5 268.5 1567.33 230.264C1616.38 220.567 1896 230.264 2175.5 57.5" stroke="#608631e6" stroke-dasharray="4 4"/>
<path d="M226.758 36.2723C249.461 161.161 326.735 269.393 437.484 331.419L567.481 404.226C598.102 421.375 630.168 435.806 663.312 447.351L707.151 462.623C755.214 479.365 760.461 487.132 798 521.5C946.5 734.5 1293.91 694.987 1572 609C1629 574 1647.13 557.498 1700.14 548.073L1947.66 504.063C2002.21 494.363 2045.35 452.405 2056.57 398.142C2060.8 377.659 2069.72 358.435 2082.62 341.978L2197.5 195.5C2251.52 130.707 2240.99 34.4648 2305.82 1.11963" stroke="#608631e6" stroke-dasharray="4 4"/>
<path d="M2286.42 754.523C2198.63 735.015 2172.01 618.745 2079.23 588.632C2018.58 568.952 1977.51 512.449 1977.51 448.69C1977.51 393.48 1946.6 342.916 1897.46 317.745L1774 254.5L1706.87 208.723C1623.88 152.13 1513.36 157.72 1436.5 222.399C1396.14 256.372 1381 254.5 1292.31 275C1125.5 297.5 837.908 344.12 690.475 240.526L680.905 233.8C646.707 209.77 605.928 196.875 564.131 196.875C324.549 196.875 300.5 622.5 110 690" stroke="#608631e6" stroke-dasharray="4 4"/>
<path d="M704.5 491C720.24 491 733 478.24 733 462.5C733 446.76 720.24 434 704.5 434C688.76 434 676 446.76 676 462.5C676 478.24 688.76 491 704.5 491Z" fill="#61892f" fill-opacity="0.1"/>
<path d="M704.5 490.5C719.964 490.5 732.5 477.964 732.5 462.5C732.5 447.036 719.964 434.5 704.5 434.5C689.036 434.5 676.5 447.036 676.5 462.5C676.5 477.964 689.036 490.5 704.5 490.5Z" stroke="#82c232" stroke-opacity="0.4"/>
<path d="M704.5 476.5C712.232 476.5 718.5 470.232 718.5 462.5C718.5 454.768 712.232 448.5 704.5 448.5C696.768 448.5 690.5 454.768 690.5 462.5C690.5 470.232 696.768 476.5 704.5 476.5Z" fill="#82c232" fill-opacity="0.2" stroke="#82c232"/>
<path d="M704.5 469C708.09 469 711 466.09 711 462.5C711 458.91 708.09 456 704.5 456C700.91 456 698 458.91 698 462.5C698 466.09 700.91 469 704.5 469Z" fill="#E7F6FF"/>
<path d="M1571.5 624C1580.06 624 1587 617.06 1587 608.5C1587 599.94 1580.06 593 1571.5 593C1562.94 593 1556 599.94 1556 608.5C1556 617.06 1562.94 624 1571.5 624Z" fill="#61892f" fill-opacity="0.1"/>
<path d="M1571.5 623.5C1579.78 623.5 1586.5 616.784 1586.5 608.5C1586.5 600.216 1579.78 593.5 1571.5 593.5C1563.22 593.5 1556.5 600.216 1556.5 608.5C1556.5 616.784 1563.22 623.5 1571.5 623.5Z" stroke="#82c232" stroke-opacity="0.4"/>
<path d="M1571.5 615.886C1575.58 615.886 1578.89 612.579 1578.89 608.5C1578.89 604.421 1575.58 601.114 1571.5 601.114C1567.42 601.114 1564.11 604.421 1564.11 608.5C1564.11 612.579 1567.42 615.886 1571.5 615.886Z" fill="#82c232" fill-opacity="0.3" stroke="#82c232"/>
<path d="M1571.5 612.035C1573.45 612.035 1575.03 610.452 1575.03 608.5C1575.03 606.548 1573.45 604.965 1571.5 604.965C1569.55 604.965 1567.96 606.548 1567.96 608.5C1567.96 610.452 1569.55 612.035 1571.5 612.035Z" fill="#E7F6FF"/>
<path d="M1772.5 267C1781.06 267 1788 260.06 1788 251.5C1788 242.94 1781.06 236 1772.5 236C1763.94 236 1757 242.94 1757 251.5C1757 260.06 1763.94 267 1772.5 267Z" fill="#61892f" fill-opacity="0.1"/>
<path d="M1772.5 266.5C1780.78 266.5 1787.5 259.784 1787.5 251.5C1787.5 243.216 1780.78 236.5 1772.5 236.5C1764.22 236.5 1757.5 243.216 1757.5 251.5C1757.5 259.784 1764.22 266.5 1772.5 266.5Z" stroke="#82c232" stroke-opacity="0.4"/>
<path d="M1772.5 258.886C1776.58 258.886 1779.89 255.579 1779.89 251.5C1779.89 247.421 1776.58 244.114 1772.5 244.114C1768.42 244.114 1765.11 247.421 1765.11 251.5C1765.11 255.579 1768.42 258.886 1772.5 258.886Z" fill="#82c232" fill-opacity="0.3" stroke="#E7F6FF"/>
<path d="M1772.5 255.035C1774.45 255.035 1776.03 253.452 1776.03 251.5C1776.03 249.548 1774.45 247.965 1772.5 247.965C1770.55 247.965 1768.96 249.548 1768.96 251.5C1768.96 253.452 1770.55 255.035 1772.5 255.035Z" fill="#E7F6FF"/>
<path d="M637.385 200.12L629.689 213.097L673.486 239.069L681.181 226.093L637.385 200.12Z" fill="url(#paint0_linear_1338_62141)"/>
<path fill-rule="evenodd" clip-rule="evenodd" d="M731.66 264.844C731.755 264.684 731.804 264.495 731.787 264.301C731.453 260.682 730.248 257.351 727.615 254.038C725.025 250.787 714.681 243.781 708.772 240.309C705.699 238.502 687.906 228.057 684.836 226.472C681.756 224.88 678.521 223.325 674.85 221.685C671.577 219.745 669.93 223.036 669.93 223.036C669.93 223.036 665.298 230.536 665.366 230.731C665.366 230.731 663.269 233.755 666.544 235.697C669.747 238.131 672.659 240.224 675.533 242.164C678.394 244.096 696.098 254.697 699.156 256.53C705.033 260.051 716.145 265.765 720.238 266.477C724.408 267.199 727.909 266.659 731.245 265.216C731.422 265.14 731.564 265.006 731.66 264.844Z" fill="url(#paint1_linear_1338_62141)"/>
<path d="M677.403 226.09L671.631 235.823C671.366 236.271 671.514 236.849 671.961 237.115L676.017 239.52C676.465 239.785 677.043 239.637 677.309 239.19L683.08 229.457C683.346 229.009 683.198 228.431 682.75 228.165L678.695 225.76C678.247 225.494 677.669 225.642 677.403 226.09Z" fill="#44824d"/>
<path d="M683.839 241.965L682.877 243.587L689.365 247.435L690.327 245.813L683.839 241.965Z" fill="#44824d"/>
<path d="M685.28 239.532L684.318 241.154L690.807 245.002L691.769 243.379L685.28 239.532Z" fill="#44824d"/>
<path d="M686.726 237.099L685.764 238.721L692.252 242.569L693.214 240.947L686.726 237.099Z" fill="#44824d"/>
<path d="M688.167 234.666L687.205 236.288L693.693 240.136L694.655 238.514L688.167 234.666Z" fill="#44824d"/>
<path d="M668.853 230.572L668.503 231.163C668.309 231.489 668.417 231.911 668.743 232.104C669.07 232.298 669.491 232.19 669.685 231.864L670.035 231.273C670.229 230.946 670.121 230.525 669.795 230.331C669.468 230.138 669.047 230.246 668.853 230.572Z" fill="#82c232"/>
<path d="M672.093 225.312L671.743 225.903C671.549 226.23 671.657 226.651 671.984 226.845L671.984 226.845C672.31 227.038 672.731 226.93 672.925 226.604L673.275 226.013C673.469 225.687 673.361 225.265 673.035 225.072L673.035 225.072C672.709 224.878 672.287 224.986 672.093 225.312Z" fill="#82c232"/>
<path d="M689.61 232.233L688.648 233.855L695.137 237.703L696.099 236.081L689.61 232.233Z" fill="#44824d"/>
<path d="M691.948 246.775L690.986 248.397L697.475 252.245L698.437 250.623L691.948 246.775Z" fill="#44824d"/>
<path d="M693.392 244.342L692.43 245.964L698.918 249.812L699.88 248.19L693.392 244.342Z" fill="#44824d"/>
<path d="M694.835 241.909L693.873 243.531L700.361 247.379L701.323 245.757L694.835 241.909Z" fill="#44824d"/>
<path d="M696.276 239.476L695.314 241.098L701.803 244.946L702.765 243.324L696.276 239.476Z" fill="#44824d"/>
<path d="M697.722 237.042L696.76 238.664L703.248 242.512L704.21 240.89L697.722 237.042Z" fill="#44824d"/>
<path d="M700.06 251.585L699.098 253.207L705.586 257.055L706.548 255.433L700.06 251.585Z" fill="#44824d"/>
<path d="M701.501 249.152L700.539 250.774L707.027 254.622L707.989 253L701.501 249.152Z" fill="#44824d"/>
<path d="M702.944 246.718L701.982 248.34L708.471 252.188L709.433 250.565L702.944 246.718Z" fill="#44824d"/>
<path d="M704.39 244.285L703.428 245.907L709.916 249.755L710.878 248.133L704.39 244.285Z" fill="#44824d"/>
<path d="M705.831 241.852L704.869 243.474L711.358 247.322L712.319 245.7L705.831 241.852Z" fill="#44824d"/>
<path d="M708.169 256.394L707.207 258.016L713.695 261.864L714.657 260.242L708.169 256.394Z" fill="#44824d"/>
<path d="M709.612 253.961L708.65 255.583L715.139 259.431L716.101 257.809L709.612 253.961Z" fill="#44824d"/>
<path d="M711.056 251.528L710.094 253.15L716.582 256.998L717.544 255.376L711.056 251.528Z" fill="#44824d"/>
<path d="M712.499 249.095L711.537 250.717L718.025 254.565L718.987 252.942L712.499 249.095Z" fill="#44824d"/>
<path d="M717.724 258.771L716.762 260.393L723.25 264.241L724.212 262.619L717.724 258.771Z" fill="#44824d"/>
<path d="M719.165 256.338L718.203 257.96L724.691 261.808L725.653 260.186L719.165 256.338Z" fill="#44824d"/>
<path d="M720.608 253.905L719.646 255.527L726.135 259.375L727.097 257.752L720.608 253.905Z" fill="#44824d"/>
<path d="M713.94 246.662L712.979 248.284L719.467 252.132L720.429 250.51L713.94 246.662Z" fill="#44824d"/>
<path opacity="0.4" d="M1906.35 517.253L1902.74 500L1844.51 512.192L1848.12 529.446L1906.35 517.253Z" fill="url(#paint2_linear_1338_62141)"/>
<path fill-rule="evenodd" clip-rule="evenodd" d="M1780.03 534.162C1780.07 534.364 1780.17 534.558 1780.32 534.706C1783.13 537.466 1786.38 539.345 1790.69 540.156C1794.92 540.949 1807.58 539.15 1814.45 537.682C1818.02 536.919 1838.67 532.49 1842.08 531.546C1845.5 530.6 1849.01 529.509 1852.91 528.167C1856.72 527.369 1855.62 523.423 1855.62 523.423C1855.62 523.423 1853.77 513.783 1853.58 513.672C1853.58 513.672 1853 509.616 1849.19 510.415C1845.08 510.753 1841.43 511.158 1837.91 511.664C1834.41 512.167 1813.72 516.4 1810.14 517.13C1803.27 518.534 1790.94 521.972 1787.39 524.395C1783.77 526.866 1781.54 529.893 1780.07 533.547C1780 533.74 1779.98 533.957 1780.03 534.162Z" fill="url(#paint3_linear_1338_62141)"/>
<path d="M1847.33 526.836L1844.62 513.896C1844.5 513.301 1843.91 512.919 1843.32 513.044L1837.93 514.173C1837.33 514.297 1836.95 514.881 1837.07 515.477L1839.78 528.417C1839.91 529.012 1840.49 529.394 1841.09 529.269L1846.48 528.14C1847.07 528.016 1847.46 527.432 1847.33 526.836Z" fill="#44824d"/>
<path d="M1828.88 518.32L1828.43 516.163L1819.8 517.969L1820.25 520.126L1828.88 518.32Z" fill="#44824d"/>
<path d="M1829.55 521.555L1829.1 519.398L1820.47 521.204L1820.92 523.361L1829.55 521.555Z" fill="#44824d"/>
<path d="M1830.23 524.789L1829.78 522.633L1821.15 524.439L1821.6 526.596L1830.23 524.789Z" fill="#44824d"/>
<path d="M1830.91 528.024L1830.46 525.868L1821.83 527.674L1822.28 529.831L1830.91 528.024Z" fill="#44824d"/>
<path d="M1852.45 523.595L1850.81 515.764C1850.7 515.224 1850.17 514.877 1849.63 514.991C1849.09 515.104 1848.74 515.634 1848.85 516.174L1850.49 524.004C1850.61 524.545 1851.14 524.892 1851.68 524.778C1852.22 524.665 1852.57 524.135 1852.45 523.595Z" fill="#82c232"/>
<path d="M1831.59 531.26L1831.14 529.103L1822.51 530.909L1822.96 533.066L1831.59 531.26Z" fill="#44824d"/>
<path d="M1818.09 520.578L1817.64 518.421L1809.01 520.227L1809.46 522.384L1818.09 520.578Z" fill="#44824d"/>
<path d="M1818.77 523.812L1818.32 521.655L1809.69 523.461L1810.14 525.618L1818.77 523.812Z" fill="#44824d"/>
<path d="M1819.45 527.047L1819 524.891L1810.37 526.697L1810.82 528.854L1819.45 527.047Z" fill="#44824d"/>
<path d="M1820.13 530.283L1819.68 528.126L1811.05 529.932L1811.5 532.089L1820.13 530.283Z" fill="#44824d"/>
<path d="M1820.8 533.518L1820.35 531.361L1811.72 533.167L1812.17 535.324L1820.8 533.518Z" fill="#44824d"/>
<path d="M1807.31 522.834L1806.86 520.678L1798.23 522.484L1798.68 524.641L1807.31 522.834Z" fill="#44824d"/>
<path d="M1807.99 526.07L1807.54 523.913L1798.91 525.719L1799.36 527.876L1807.99 526.07Z" fill="#44824d"/>
<path d="M1808.66 529.305L1808.21 527.148L1799.58 528.954L1800.03 531.111L1808.66 529.305Z" fill="#44824d"/>
<path d="M1809.34 532.539L1808.89 530.383L1800.26 532.189L1800.71 534.346L1809.34 532.539Z" fill="#44824d"/>
<path d="M1810.02 535.774L1809.57 533.618L1800.94 535.424L1801.39 537.581L1810.02 535.774Z" fill="#44824d"/>
<path d="M1797.24 528.321L1796.79 526.164L1788.16 527.97L1788.61 530.127L1797.24 528.321Z" fill="#44824d"/>
<path d="M1797.92 531.556L1797.47 529.399L1788.84 531.205L1789.29 533.362L1797.92 531.556Z" fill="#44824d"/>
<path d="M1798.59 534.79L1798.14 532.634L1789.51 534.44L1789.96 536.597L1798.59 534.79Z" fill="#44824d"/>
<rect x="75.9785" y="654.937" width="299.795" height="73.0797" transform="rotate(-38.698 75.9785 654.937)" fill="url(#paint4_linear_1338_62141)"/>
<rect x="233.184" y="7" width="299.795" height="73.0797" transform="rotate(61.4343 233.184 7)" fill="url(#paint5_linear_1338_62141)"/>
<rect x="319.184" y="-20" width="299.795" height="73.0797" transform="rotate(61.4343 319.184 -20)" fill="url(#paint6_linear_1338_62141)"/>
<rect x="409.184" y="-53" width="202.186" height="73.0797" transform="rotate(61.4343 409.184 -53)" fill="url(#paint7_linear_1338_62141)"/>
<rect x="2266.71" y="802.237" width="202.186" height="73.0797" transform="rotate(-147.076 2266.71 802.237)" fill="url(#paint8_linear_1338_62141)"/>
<rect x="2406.71" y="642.237" width="202.186" height="73.0797" transform="rotate(-147.076 2406.71 642.237)" fill="url(#paint9_linear_1338_62141)"/>
<rect x="2337.11" y="-6.49219" width="202.186" height="73.0797" transform="rotate(119.07 2337.11 -6.49219)" fill="url(#paint10_linear_1338_62141)"/>
<rect x="2208.99" y="125.347" width="202.186" height="107.928" transform="rotate(161.494 2208.99 125.347)" fill="url(#paint11_linear_1338_62141)"/>
</g>
<defs>
<linearGradient id="paint0_linear_1338_62141" x1="633.537" y1="206.608" x2="677.334" y2="232.58" gradientUnits="userSpaceOnUse">
<stop stop-color="#61892f" stop-opacity="0"/>
<stop offset="1" stop-color="#61892f"/>
</linearGradient>
<linearGradient id="paint1_linear_1338_62141" x1="667.588" y1="226.848" x2="731.66" y2="264.844" gradientUnits="userSpaceOnUse">
<stop stop-color="#61892f"/>
<stop offset="1" stop-color="#82c232"/>
</linearGradient>
<linearGradient id="paint2_linear_1338_62141" x1="1904.54" y1="508.623" x2="1846.31" y2="520.815" gradientUnits="userSpaceOnUse">
<stop stop-color="#61892f" stop-opacity="0"/>
<stop offset="1" stop-color="#61892f"/>
</linearGradient>
<linearGradient id="paint3_linear_1338_62141" x1="1854.67" y1="518.533" x2="1780.03" y2="534.162" gradientUnits="userSpaceOnUse">
<stop stop-color="#61892f"/>
<stop offset="1" stop-color="#82c232"/>
</linearGradient>
<linearGradient id="paint4_linear_1338_62141" x1="75.676" y1="694.411" x2="381.625" y2="689.954" gradientUnits="userSpaceOnUse">
<stop stop-color="#01202B"/>
<stop offset="1" stop-color="#01202B" stop-opacity="0"/>
</linearGradient>
<linearGradient id="paint5_linear_1338_62141" x1="232.881" y1="46.4737" x2="538.83" y2="42.0169" gradientUnits="userSpaceOnUse">
<stop stop-color="#01202B"/>
<stop offset="1" stop-color="#01202B" stop-opacity="0"/>
</linearGradient>
<linearGradient id="paint6_linear_1338_62141" x1="318.881" y1="19.4737" x2="624.83" y2="15.0169" gradientUnits="userSpaceOnUse">
<stop stop-color="#01202B"/>
<stop offset="1" stop-color="#01202B" stop-opacity="0"/>
</linearGradient>
<linearGradient id="paint7_linear_1338_62141" x1="408.98" y1="-13.5263" x2="615.34" y2="-15.5537" gradientUnits="userSpaceOnUse">
<stop stop-color="#01202B"/>
<stop offset="1" stop-color="#01202B" stop-opacity="0"/>
</linearGradient>
<linearGradient id="paint8_linear_1338_62141" x1="2266.51" y1="841.711" x2="2472.87" y2="839.683" gradientUnits="userSpaceOnUse">
<stop stop-color="#01202B"/>
<stop offset="1" stop-color="#01202B" stop-opacity="0"/>
</linearGradient>
<linearGradient id="paint9_linear_1338_62141" x1="2406.51" y1="681.711" x2="2612.87" y2="679.683" gradientUnits="userSpaceOnUse">
<stop stop-color="#01202B"/>
<stop offset="1" stop-color="#01202B" stop-opacity="0"/>
</linearGradient>
<linearGradient id="paint10_linear_1338_62141" x1="2336.91" y1="32.9815" x2="2543.27" y2="30.9542" gradientUnits="userSpaceOnUse">
<stop stop-color="#01202B"/>
<stop offset="1" stop-color="#01202B" stop-opacity="0"/>
</linearGradient>
<linearGradient id="paint11_linear_1338_62141" x1="2208.78" y1="183.643" x2="2415.16" y2="182.27" gradientUnits="userSpaceOnUse">
<stop stop-color="#01202B"/>
<stop offset="1" stop-color="#01202B" stop-opacity="0"/>
</linearGradient>
<clipPath id="clip0_1338_62141">
<rect width="2407" height="772" fill="white"/>
</clipPath>
</defs>
</svg>
