<svg width="224" height="160" viewBox="0 0 224 160" fill="none" xmlns="http://www.w3.org/2000/svg">
<path d="M0 88.0002C0 92.4184 3.58172 96.0001 8 96.0001H48.0001L21.7887 148.422C19.1291 153.741 22.997 160 28.9441 160H59.0556C62.0858 160 64.8559 158.288 66.211 155.578L95.1555 97.6893C95.711 96.5785 96.0001 95.3536 96.0001 94.1116V7.99999C96.0001 3.58172 92.4184 0 88.0001 0H7.99999C3.58172 0 0 3.58172 0 8V88.0002Z" fill="url(#paint0_linear_279_10272)"/>
<path d="M136 0C131.582 0 128 3.58172 128 8V88.0002C128 92.4184 131.582 96.0001 136 96.0001H176.001L149.789 148.422C147.13 153.741 150.998 160 156.945 160H187.056C190.086 160 192.856 158.288 194.211 155.578L223.156 97.6893C223.711 96.5785 224.001 95.3536 224.001 94.1116V7.99999C224.001 3.58172 220.419 0 216.001 0H136Z" fill="url(#paint1_linear_279_10272)"/>
<defs>
<linearGradient id="paint0_linear_279_10272" x1="48.0001" y1="0" x2="48.0001" y2="160" gradientUnits="userSpaceOnUse">
<stop stop-color="#82c23294"/>
<stop offset="1" stop-color="#F0F8FD"/>
</linearGradient>
<linearGradient id="paint1_linear_279_10272" x1="176.001" y1="0" x2="176.001" y2="160" gradientUnits="userSpaceOnUse">
<stop stop-color="#82c23294"/>
<stop offset="1" stop-color="#F0F8FD"/>
</linearGradient>
</defs>
</svg>
