<svg width="32" height="32" viewBox="0 0 32 32" fill="none" xmlns="http://www.w3.org/2000/svg">
<rect width="32" height="32" rx="8" fill="#82c232"/>
<mask id="mask0_3093_15630" style="mask-type:alpha" maskUnits="userSpaceOnUse" x="5" y="5" width="22" height="22">
<rect x="5" y="5" width="22" height="22" fill="#54722e"/>
</mask>
<g mask="url(#mask0_3093_15630)">
<path d="M16.9024 24.6628V23.2879C17.5676 23.1903 18.2019 23.0146 18.8053 22.7608C19.4088 22.5069 19.9662 22.1843 20.4774 21.793L21.4628 22.7872C20.7976 23.3113 20.0848 23.7291 19.3245 24.0406C18.5641 24.352 17.7568 24.5594 16.9024 24.6628ZM22.7725 21.458L21.8066 20.492C22.2038 19.9879 22.5246 19.434 22.7691 18.8306C23.0135 18.2271 23.1816 17.5893 23.2732 16.917H24.6764C24.5718 17.7761 24.3594 18.5879 24.0391 19.3524C23.7189 20.1168 23.2967 20.8187 22.7725 21.458ZM23.2732 15.0837C23.1816 14.3962 23.0135 13.7507 22.7691 13.1472C22.5246 12.5438 22.2038 11.9976 21.8066 11.5087L22.7814 10.5515C23.3325 11.2355 23.7627 11.9371 24.0717 12.6563C24.3808 13.3755 24.5824 14.1847 24.6764 15.0837H23.2732ZM15.0691 24.6628C12.8608 24.3937 11.0178 23.4362 9.53997 21.7903C8.06215 20.1444 7.32324 18.2145 7.32324 16.0004C7.32324 13.7616 8.06215 11.8216 9.53997 10.1804C11.0178 8.53926 12.8608 7.59175 15.0691 7.33789V8.71287C13.2357 8.97259 11.7156 9.78995 10.5086 11.165C9.30169 12.54 8.69822 14.1518 8.69822 16.0004C8.69822 17.8337 9.30169 19.4379 10.5086 20.8129C11.7156 22.1879 13.2357 23.0129 15.0691 23.2879V24.6628ZM20.5232 10.2254C19.9732 9.81287 19.3941 9.47676 18.786 9.21703C18.1778 8.95731 17.5558 8.78926 16.92 8.71287V7.33789C17.7568 7.42604 18.5538 7.62731 19.3113 7.94168C20.0687 8.25603 20.7859 8.67998 21.4628 9.21353L20.5232 10.2254ZM15.9998 20.1341C14.8857 19.174 14.0549 18.2897 13.5072 17.4811C12.9596 16.6726 12.6857 15.9216 12.6857 15.2283C12.6857 14.1941 13.0195 13.3694 13.687 12.7542C14.3545 12.1389 15.1255 11.8313 15.9998 11.8313C16.8742 11.8313 17.6451 12.1389 18.3126 12.7542C18.9801 13.3694 19.3139 14.1941 19.3139 15.2283C19.3139 15.9216 19.0401 16.6726 18.4924 17.4811C17.9448 18.2897 17.1139 19.174 15.9998 20.1341ZM15.9998 15.9915C16.2513 15.9915 16.4622 15.9063 16.6327 15.736C16.8031 15.5655 16.8883 15.3546 16.8883 15.1031C16.8883 14.861 16.8031 14.6524 16.6327 14.4773C16.4622 14.3022 16.2513 14.2147 15.9998 14.2147C15.7483 14.2147 15.5374 14.3022 15.367 14.4773C15.1966 14.6524 15.1114 14.861 15.1114 15.1031C15.1114 15.3546 15.1966 15.5655 15.367 15.736C15.5374 15.9063 15.7483 15.9915 15.9998 15.9915Z" fill="#54722e"/>
</g>
</svg>
