<svg width="13" height="13" viewBox="0 0 13 13" fill="none" xmlns="http://www.w3.org/2000/svg">
<path d="M12.7114 5.36895L11.2202 5.00223C11.1306 4.71956 11.0153 4.44544 10.8762 4.18323C11.1001 3.81055 11.5706 3.02616 11.5706 3.02616C11.6606 2.87628 11.6368 2.68435 11.5133 2.56087L10.4362 1.48375C10.3127 1.3599 10.1212 1.33611 9.9709 1.42647L8.81194 2.12088C8.55121 1.98288 8.27859 1.8687 7.99779 1.77981L7.63108 0.288641C7.58865 0.119031 7.43653 0 7.26172 0H5.73828C5.56347 0 5.41097 0.119031 5.36895 0.288615C5.36895 0.288615 5.11492 1.32938 5.00259 1.77943C4.70318 1.87426 4.41383 1.99738 4.13821 2.14764L2.9365 1.42647C2.78624 1.3372 2.59507 1.36028 2.47122 1.48375L1.3941 2.56087C1.27062 2.68435 1.24681 2.87628 1.33682 3.02616L2.07995 4.2673C1.96018 4.50348 1.85976 4.74932 1.77981 5.00112L0.288641 5.36895C0.119031 5.41135 0 5.56347 0 5.73828V7.26172C0 7.43653 0.119031 7.58903 0.288615 7.63105L1.78016 7.99777C1.87055 8.28453 1.98806 8.56312 2.13053 8.83053L1.46552 9.93888C1.37551 10.0888 1.39933 10.2807 1.5228 10.4042L2.59992 11.4813C2.72304 11.6044 2.91495 11.6278 3.06521 11.5386C3.06521 11.5386 3.81093 11.0915 4.17617 10.8728C4.44062 11.0138 4.71732 11.1302 5.00261 11.2205L5.36897 12.7114C5.41097 12.881 5.56347 13 5.73828 13H7.26172C7.43653 13 7.58865 12.881 7.63105 12.7114L7.99741 11.2206C8.29088 11.1276 8.57353 11.0074 8.84244 10.8617C9.21771 11.0867 9.97087 11.5386 9.97087 11.5386C10.1208 11.6282 10.3127 11.6051 10.4362 11.4813L11.5133 10.4042C11.6368 10.2807 11.6606 10.0888 11.5706 9.93888L10.8858 8.79816C11.0208 8.54189 11.1328 8.27374 11.2202 7.99777L12.7114 7.63105C12.881 7.58865 13 7.43653 13 7.26172V5.73828C13 5.56347 12.881 5.41135 12.7114 5.36895ZM6.5 9.16602C5.03011 9.16602 3.83398 7.96989 3.83398 6.5C3.83398 5.03011 5.03011 3.83398 6.5 3.83398C7.96989 3.83398 9.16602 5.03011 9.16602 6.5C9.16602 7.96989 7.96989 9.16602 6.5 9.16602Z" fill="#82c232"/>
</svg>
